SplineFontDB: 3.0
FontName: Schopf1397
FullName: Schopf 1397
FamilyName: Schopf1397
Weight: Book
Copyright: Christoph Pfeiffer (2017)\nhttp://www.e-codices.unifr.ch/en/ubb/A-II-0002/1v\nSchopf (1397)
UComments: "2017-10-6: Created with FontForge (http://fontforge.org)" 
Version: 1.1.01
ItalicAngle: 0
UnderlinePosition: -102
UnderlineWidth: 51
Ascent: 819
Descent: 205
LayerCount: 2
Layer: 0 0 "Back"  1
Layer: 1 0 "Zeichen"  0
XUID: [1021 515 -1555464417 9833432]
FSType: 0
OS2Version: 0
OS2_WeightWidthSlopeOnly: 0
OS2_UseTypoMetrics: 1
CreationTime: 1507292339
ModificationTime: 1517691474
PfmFamily: 65
TTFWeight: 400
TTFWidth: 5
LineGap: 92
VLineGap: 92
OS2TypoAscent: 0
OS2TypoAOffset: 1
OS2TypoDescent: 0
OS2TypoDOffset: 1
OS2TypoLinegap: 92
OS2WinAscent: 0
OS2WinAOffset: 1
OS2WinDescent: 0
OS2WinDOffset: 1
HheadAscent: 0
HheadAOffset: 1
HheadDescent: 0
HheadDOffset: 1
OS2FamilyClass: 2306
OS2Vendor: 'PfEd'
Lookup: 258 0 0 "kerning"  {"Gk" [210,160,2] "GG" [200,160,2] "kk" [140,80,2] } ['kern' ('DFLT' <'dflt' > 'latn' <'dflt' > ) ]
MarkAttachClasses: 1
DEI: 91125
KernClass2: 29 25 "Gk" 
 9 A A.aldus
 1 B
 1 C
 17 D O S S.s01 D.s01
 1 E
 1 F
 1 G
 1 H
 1 I
 13 J J.s02 J.s05
 1 K
 3 L U
 1 M
 1 N
 1 P
 1 Q
 1 R
 1 T
 7 V V.s01
 1 W
 1 X
 1 Y
 1 Z
 7 A.heart
 5 Y.s01
 5 J.s03
 5 J.s01
 5 J.s04
 1 a
 1 b
 1 c
 1 d
 1 e
 5 f l t
 1 g
 1 h
 1 i
 3 j y
 1 k
 3 m u
 3 n w
 1 o
 1 p
 1 q
 3 r v
 1 s
 1 x
 1 z
 9 adieresis
 9 odieresis
 9 udieresis
 5 s.s01

StartChar: A
Encoding: 65 65 0
Width: 747
VWidth: 0
Flags: HMW
LayerCount: 2
Fore
SplineSet
41.0586 805.835 m 1
 93.418 766.566 207.951 749.113 324.668 749.113 c 0
 444.656 749.113 565.734 767.657 620.273 800.382 c 1
 625.727 791.655 629 776.384 629 762.203 c 0
 629 755.658 627.908 749.114 626.818 744.751 c 1
 610.457 748.022 590.822 749.113 571.188 749.113 c 0
 554.826 749.113 538.465 748.022 524.283 745.842 c 1
 536.283 645.488 615.91 49.9111 623.547 10.6426 c 1
 667.178 5.18848 684.631 0.825195 721.717 -5.71973 c 0
 721.717 -6.81055 722.303 -8.43652 722.303 -10.1768 c 0
 722.303 -11.2451 722.02 -12.1729 721.102 -12.5225 c 2
 159.385 -12.5225 l 1
 144.984 -68.1348 123.438 -133.815 100.756 -199.325 c 1
 98.584 -197.884 95.332 -191.791 94.8457 -189.882 c 0
 97.8027 -179.158 99.0586 -169.079 99.0586 -159.614 c 0
 99.0586 -106.511 59.5234 -72.8154 59.5234 -53.5 c 0
 59.5234 -53.1924 59.5332 -52.8867 59.5508 -52.5859 c 0
 61.4023 -25.2783 76.4629 -13.2012 93.2285 -13.2012 c 1
 106.146 -13.2012 120.078 -20.3711 129.764 -33.2705 c 1
 138.354 -10.0732 139.723 10.1934 140.811 37.041 c 0
 140.83 38.4219 140.842 39.8066 140.842 41.1992 c 0
 140.842 92.9482 125.99 152.578 107.111 214.081 c 0
 88.0332 276.236 68.625 339.162 57.8789 402.802 c 0
 54.5801 422.336 53.0508 440.79 53.0508 458.249 c 0
 53.0508 602.577 157.535 678.983 230.768 735.931 c 1
 230.207 735.921 229.643 735.921 229.068 735.921 c 0
 181.121 738.851 145.285 742.186 105.93 742.186 c 0
 81.6426 742.186 56.0137 740.915 25.3691 737.495 c 0
 24.916 739.72 24.6973 742.839 24.6973 746.529 c 0
 24.6973 766.497 31.0762 803.212 40.9141 805.835 c 1
 41.0586 805.835 l 1
425.486 737.759 m 1
 392.721 735.04 361.07 735.792 336.59 733.886 c 1
 335.811 695.102 333.771 656.207 333.771 624.941 c 0
 333.771 621.886 333.793 618.902 333.834 616 c 0
 369.736 588.028 392.098 567.782 425.705 541.017 c 1
 425.436 570.751 425.359 600.885 425.359 630.542 c 0
 425.359 667.591 425.477 703.897 425.486 737.759 c 1
279.352 732.234 m 1
 233.561 479.506 192.889 219.777 163.346 8.88184 c 1
 202.307 8.00879 240.443 7.5293 272.918 7.50391 c 1
 289.535 242.28 282.543 479 299.016 732.189 c 1
 279.352 732.234 l 1
325.27 504.939 m 1
 323.74 459.818 305.879 111.958 300.113 7.44043 c 1
 343.512 7.72461 417.426 7.74707 434.201 8.19434 c 1
 433.559 89.4717 426.229 301.738 422.74 438.943 c 1
 399.793 453.902 353.637 485.902 325.27 504.939 c 1
EndSplineSet
EndChar

StartChar: n
Encoding: 110 110 1
Width: 444
VWidth: 0
Flags: HMW
LayerCount: 2
Fore
SplineSet
328.021 -38.9834 m 4
 308.538 -0.908203 281.618 32.0098 249.24 48.8867 c 4
 247.221 48.8867 243.18 47.877 237.12 45.8574 c 4
 195.365 33.2227 175.04 -31.3408 170.307 -37.7334 c 4
 169.209 -39.2148 167.344 -40.0078 165.509 -40.0078 c 4
 163.653 -40.0078 161.83 -39.1973 160.865 -37.4678 c 4
 132.08 3.09766 106.442 30.707 64.4102 30.707 c 4
 61.7168 30.707 60.3701 31.3809 60.3701 32.7266 c 4
 60.3701 35.4199 61.7969 36.1133 64.4102 36.7666 c 4
 75.3604 39.5039 84.8789 44.4258 85.6201 51.917 c 4
 91.6641 123.397 94.1143 190.566 94.1143 254.047 c 4
 94.1143 283.032 93.6035 311.25 92.6904 338.757 c 5
 71.6543 356.416 54.5088 379.117 29.0605 384.207 c 6
 24.0107 385.217 l 6
 23.0762 385.403 23 386.563 23 387.237 c 4
 23 389.258 23.6738 390.604 25.0205 391.277 c 4
 56.8955 408.364 90.668 442.084 109.735 465.588 c 4
 111.54 466.939 113.425 467.609 115.11 467.609 c 4
 116.614 467.609 117.96 467.076 118.95 466.017 c 4
 143.622 440.189 166.406 391.637 199.697 391.637 c 4
 200.496 391.637 201.301 391.665 202.112 391.722 c 4
 206.247 391.936 210.71 393.765 213.891 395.317 c 4
 249.577 418.884 267.805 442.464 273.48 465.007 c 4
 274.302 468.272 275.713 469.527 277.242 469.527 c 4
 279.689 469.527 282.441 466.317 283.58 462.987 c 4
 287.62 452.214 292.334 442.956 297.721 435.212 c 4
 311.396 414.927 330.712 403.608 353.775 398.852 c 4
 358.825 397.842 366.887 397.003 377.511 394.307 c 4
 381.073 393.402 382.433 391.587 382.433 389.603 c 4
 382.433 386.747 379.618 383.54 376.5 382.188 c 4
 365.538 376.563 351.697 358.059 351.25 346.837 c 4
 349.875 312.324 349.41 278.139 349.41 244.846 c 4
 349.41 188.508 350.742 134.729 351.25 86.2568 c 5
 356.481 71.4551 397.812 52.9268 407.811 52.9268 c 6
 418.415 52.9268 l 6
 420.301 52.9268 421.02 52.4199 421.02 51.6602 c 4
 421.02 49.4805 415.113 45.2188 413.87 44.8467 c 4
 394.344 38.1133 379.025 27.8457 367.915 14.042 c 4
 356.806 0.238281 346.2 -14.4062 336.101 -37.9727 c 4
 334.754 -39.9932 333.07 -41.0029 331.051 -41.0029 c 4
 329.03 -41.0029 328.021 -40.3291 328.021 -38.9834 c 4
268.431 87.2666 m 4
 268.845 136.688 271.995 190.275 271.995 243.371 c 4
 271.995 277.817 270.669 312.057 266.41 344.817 c 4
 264.178 361.99 241.692 380.119 212.88 385.217 c 5
 190.998 370.3 185.076 361.601 182.58 334.717 c 4
 176.521 232.37 177.194 155.273 176.521 103.427 c 6
 176.521 102.417 l 6
 176.521 97.0312 179.214 92.3174 184.601 88.2773 c 4
 208.167 68.751 223.316 58.9873 238.13 58.9873 c 4
 257.251 60.3506 268.364 70.1572 268.431 87.2666 c 4
EndSplineSet
EndChar

StartChar: a
Encoding: 97 97 2
Width: 364
VWidth: 0
Flags: HMW
LayerCount: 2
Fore
SplineSet
142.66 479.399 m 2
 142.666 479.399 l 0
 149.724 479.399 147.877 458.561 149.385 451.709 c 0
 158.021 411.935 239.109 330.872 292.817 330.872 c 0
 293.196 330.872 293.574 330.876 293.95 330.885 c 0
 300.721 330.562 307.881 328.646 307.881 325.252 c 0
 307.881 324.162 307.143 322.92 305.417 321.529 c 0
 301.758 318.608 298.869 313.3 298.499 310.309 c 0
 291.38 252.7 287.153 203.515 287.153 146.204 c 0
 287.153 125.003 287.731 102.689 288.956 78.4268 c 0
 289.915 59.4287 319.896 37.5107 337.669 35.8574 c 0
 340.012 35.7207 341.359 34.8721 341.359 33.8623 c 0
 341.359 33.0996 340.592 32.2441 338.905 31.5332 c 0
 299.933 15.1064 279.865 -11.2783 262.572 -42.291 c 0
 262.188 -42.5059 261.621 -42.8877 261.094 -42.8877 c 0
 261.025 -42.8877 260.958 -42.8818 260.892 -42.8682 c 0
 260.143 -42.71 259.635 -42.3262 259.205 -41.3105 c 0
 249.21 -16.9141 227.638 25.3877 195.603 35.4268 c 1
 150.994 18.1367 139.288 -14.248 114.562 -40.6729 c 0
 113.311 -41.5684 111.776 -42.5898 110.262 -42.5898 c 0
 110.033 -42.5898 109.806 -42.5664 109.579 -42.5166 c 0
 108.439 -42.2627 107.12 -40.5703 107.12 -40.0254 c 0
 92.4336 1.18652 57.0791 13.501 23 22.6514 c 0
 23 24.6963 34.4531 34.1211 36.2676 41.6211 c 0
 41.6377 63.8135 42.8213 97.8086 42.8213 136.573 c 0
 42.8213 167.147 42.0869 200.688 42.0869 233.745 c 0
 42.0869 234.035 42.0869 234.325 42.0869 234.615 c 1
 74.6133 243.03 102.553 249.538 128.256 263.494 c 1
 89.6416 286.126 57.8623 313.283 55.7041 351.151 c 0
 55.6279 352.466 55.5908 353.766 55.5908 355.051 c 0
 55.5908 402.399 105.524 430.183 137.328 476.404 c 0
 139.432 478.5 141.193 479.395 142.66 479.399 c 2
81.5215 366.017 m 1
 72.7393 359.25 68.9893 351.487 68.9893 343.225 c 0
 68.9893 305.682 146.415 257.824 180.997 246.242 c 1
 175.611 240.438 l 1
 164.428 244.698 150.525 251.084 136.188 258.991 c 1
 131.4 253.747 129.703 241.616 129.242 233.657 c 0
 128.259 216.698 127.129 195.988 127.129 174.55 c 0
 127.129 113.509 136.289 46.5615 184.09 43.458 c 0
 186.63 43.293 188.708 43.124 190.391 43.124 c 0
 195.043 43.124 196.678 44.4121 196.722 50.6279 c 0
 196.609 52.8447 196.558 55.7324 196.558 59.2061 c 0
 196.558 96.6094 202.608 202.004 204.325 270.603 c 1
 167.043 304.052 124.68 337.543 81.5205 366.017 c 1
 81.5215 366.017 l 1
EndSplineSet
EndChar

StartChar: L
Encoding: 76 76 3
Width: 734
VWidth: 0
Flags: HMW
LayerCount: 2
Fore
SplineSet
632.273 792.937 m 6
 634.232 790.308 635.792 786.243 635.792 785.168 c 4
 635.792 784.314 635.21 783.722 634.103 783.021 c 4
 632.219 781.83 630.467 781.24 628.891 781.24 c 4
 626.285 781.24 624.313 782.018 622.864 785.194 c 6
 607.727 785.194 l 6
 561.704 780.905 559.753 743.283 529.893 736.952 c 4
 527.457 736.437 524.791 736.201 522.069 736.201 c 4
 514.307 736.201 506.083 738.115 501.395 740.882 c 4
 485.401 750.325 482.878 785.192 470.534 785.192 c 6
 470.514 785.192 l 5
 372.028 784.907 l 6
 370.641 784.453 369.443 778.592 369.269 776.547 c 4
 355.874 619.871 347.733 501.497 347.733 328.579 c 4
 347.733 240.39 349.851 138.012 354.468 9.12988 c 4
 354.752 1.22754 365.516 -2.10645 376.812 -2.10645 c 4
 387.787 -2.10645 399.264 1.03906 402.124 6.2002 c 4
 403.911 9.89941 405.321 20.2822 405.321 27.6914 c 4
 405.321 29.1348 405.269 30.4668 405.153 31.6123 c 4
 404.131 41.834 402.608 51.124 402.608 59.791 c 4
 406.224 116.448 427.556 144.826 480.674 144.826 c 4
 481.584 144.826 482.505 144.819 483.435 144.801 c 4
 516.699 144.801 537.827 125.695 547.375 108.679 c 4
 548.926 105.915 552.787 98.3086 554.568 98.3086 c 4
 554.892 98.3086 555.146 98.5596 555.306 99.1348 c 4
 556.998 105.226 557.812 110.876 557.812 116.544 c 4
 557.812 122.998 556.758 129.475 554.748 136.653 c 4
 551.797 144.483 505.396 158.352 490.115 163.406 c 5
 532.869 345.922 544.528 449.797 574.203 598.656 c 4
 581.539 635.462 594.495 665.726 608.813 686.642 c 4
 620.732 704.053 641.311 718.553 661.535 718.553 c 4
 663.225 718.553 664.912 718.451 666.592 718.243 c 4
 685.984 715.829 709.325 699.201 709.556 678.358 c 4
 709.559 678.184 709.56 678.008 709.56 677.833 c 4
 709.56 662.56 702.251 647.459 690.809 638.549 c 4
 687.044 635.618 682.615 634.306 678.112 634.306 c 4
 665.1 634.306 651.466 645.261 651.466 659.782 c 4
 651.466 661.182 651.593 662.614 651.859 664.073 c 4
 653.764 674.523 665.65 685.729 678.94 685.953 c 4
 679.038 685.954 679.133 685.955 679.23 685.955 c 4
 692.305 685.955 697.41 670.906 698.426 668.268 c 5
 699.411 670.154 699.902 672.402 699.902 674.824 c 4
 699.902 686.14 689.178 701.265 667.846 701.265 c 4
 667.197 701.265 666.538 701.251 665.867 701.223 c 4
 645.018 700.332 631.476 667.589 630.103 650.45 c 4
 610.261 479.421 602.693 335.07 602.693 186.757 c 4
 602.693 131.921 603.728 76.5439 605.558 19.0762 c 4
 605.558 11.8604 608.195 1.62305 610.541 1.62305 c 4
 627.334 -0.149414 656.681 -3.67969 684.825 -3.67969 c 4
 687.651 -3.67969 690.466 -8.12891 693.254 -8.12891 c 4
 693.311 -8.12891 693.368 -8.12695 693.424 -8.12402 c 4
 695.265 -10.5879 696.184 -13.4072 696.184 -15.793 c 4
 696.184 -18.1787 695.264 -20.1299 693.422 -20.8604 c 4
 636.256 -20.3574 578.757 -20.166 521.521 -20.166 c 4
 349.612 -20.166 180.082 -21.8936 29.085 -22.0791 c 5
 26.3496 -15.834 25 -8.52539 25 -1.0918 c 4
 25 20.8955 36.8057 43.9902 59.498 43.9902 c 4
 61.6289 43.9902 63.8545 43.7871 66.1768 43.3594 c 4
 92.7715 37.7725 86.9336 14.29 103.421 5.03418 c 4
 119.731 -4.11914 142.826 -4.29102 142.826 -4.29102 c 5
 158.373 117.286 165.189 259.508 165.189 405.11 c 4
 165.189 530.278 160.152 657.945 151.291 777.141 c 4
 149.855 782.966 143.068 783.618 135.849 783.618 c 4
 135.636 783.625 135.425 783.63 135.213 783.63 c 4
 135.116 783.63 l 4
 110 779.404 103.11 771.697 103.11 762.279 c 4
 103.11 751.519 112.105 738.523 113.184 725.941 c 4
 113.243 725.243 113.273 724.562 113.273 723.9 c 4
 113.273 710.618 101.47 704.803 88.6689 704.803 c 4
 73.5059 704.803 56.9424 712.964 56.9424 726.541 c 4
 56.9424 729.389 57.6699 732.473 59.291 735.771 c 4
 61.7988 740.871 63.5488 746.551 63.5742 752.272 c 4
 63.5771 752.361 63.5781 752.45 63.5781 752.541 c 4
 63.5781 762.124 49.8408 785.94 49.8408 792.089 c 4
 49.8408 792.706 49.9795 793.146 50.2842 793.374 c 4
 72.7725 792.803 95.2363 792.646 116.856 792.646 c 4
 143.149 792.646 168.192 792.879 190.514 792.879 c 4
 190.768 792.879 l 4
 287.824 792.879 394.492 793.317 495.427 793.317 c 4
 542.837 793.317 588.983 793.221 632.273 792.936 c 5
 632.273 792.937 l 6
EndSplineSet
EndChar

StartChar: i
Encoding: 105 105 4
Width: 235
VWidth: 0
Flags: HMW
LayerCount: 2
Fore
SplineSet
138.265 -36.4014 m 4
 118.847 5.82324 84.8369 11.9277 50.1924 26.1543 c 4
 46.5713 27.6406 44.2295 27.6162 43.0605 31.4463 c 4
 42.8896 32.0039 42.8135 32.4941 42.8135 32.9434 c 4
 42.8135 34.9072 44.2705 36.0947 45.6973 38.8301 c 4
 50.5303 48.0908 52.8076 62.4775 54.666 78.7363 c 4
 62.0244 134.531 65.1309 175.31 65.1309 225.831 c 4
 65.1309 259.579 63.7441 297.674 61.3135 347.496 c 4
 57.7686 358.537 28.7129 353.492 23.9775 359.105 c 4
 23.4062 359.848 23 360.571 23 361.496 c 4
 23 361.859 23.0625 362.253 23.2021 362.691 c 4
 23.8594 364.742 24.8848 365.24 26.5664 366.546 c 4
 60.6338 393.001 82.3477 428.076 99.8691 462.566 c 4
 101.14 464.524 101.909 466.573 103.809 466.573 c 4
 103.833 466.573 l 4
 106.067 466.552 106.567 464.701 107.472 462.599 c 4
 126.154 419.232 149.486 395.866 181.07 392.887 c 4
 185.125 392.564 187.411 391.037 187.411 389.138 c 4
 187.411 386.604 186.672 384.218 182.873 379.785 c 4
 165.811 367.327 162.924 356.188 161.186 333.915 c 4
 157.894 257.964 152.013 153.206 152.013 108.396 c 4
 152.013 101.338 152.158 95.7686 152.483 92.0312 c 4
 154.021 74.333 180.7 61.0557 200.699 54.9834 c 4
 206.508 53.2188 212.497 52.3955 212.82 49.0098 c 4
 212.831 48.8887 212.837 48.7686 212.837 48.6504 c 4
 212.837 44.8984 207.097 42.8145 201.979 39.7383 c 4
 191.656 33.4971 181.804 25.1279 172.426 14.6328 c 4
 159.13 -0.244141 147.927 -20.8779 146.027 -36.7051 c 4
 145.545 -39.1816 144.112 -40.2383 142.593 -40.2383 c 4
 140.794 -40.2383 138.873 -38.7578 138.265 -36.4014 c 4
EndSplineSet
EndChar

StartChar: s
Encoding: 115 115 5
Width: 408
VWidth: 0
Flags: HMW
LayerCount: 2
Fore
SplineSet
226 478 m 4
 228 478 230.817 475.657 232.15 473.657 c 4
 272.243 431.527 303.064 417.999 346.502 417.999 c 4
 347 418 l 6
 352 418 l 6
 355.385 418 356.646 414.014 356.646 409.978 c 4
 356.646 408.22 356.407 406.452 356 405 c 4
 329.303 385.748 309.59 360.557 292 330 c 5
 310.672 298.993 344.272 283.33 377 276 c 5
 371.755 245.082 369.246 214.726 369.246 185.433 c 4
 369.246 142.082 374.742 101.062 385 64 c 4
 385 63.333 384.333 62.333 383 61 c 4
 369.537 57.5537 358.59 56.2451 346.517 56.2451 c 4
 337.739 56.2451 328.367 56.9365 317 58 c 5
 268.974 35.9775 237.517 2.27832 214 -38 c 5
 207.761 -34.457 206.617 -32.168 206.617 -28.9062 c 4
 206.617 -27.0537 206.986 -24.8877 207 -22 c 4
 207 -18.667 206.333 -16.333 205 -15 c 4
 173.435 8.81055 145.534 22.917 99.8477 39.2539 c 5
 85.1367 20.5596 62.2607 -12.0586 47 -26 c 4
 33.7012 -38.1484 25.333 -43 24 -43 c 4
 23.333 -43 23 -42.667 23 -42 c 4
 23 -41.333 23.833 -40.167 25.5 -38.5 c 4
 63.5908 1.54492 117.354 74.6797 141 139 c 5
 133.593 171.863 101.931 188.661 70.6777 188.661 c 4
 67.1006 188.661 63.5293 188.441 60 188 c 5
 73.8389 213.65 80.6396 239.685 80.6396 264.417 c 4
 80.6396 287.541 74.6953 309.527 63 329 c 4
 59.1289 335.445 48.833 339.558 45 344 c 5
 141.258 387.651 166.678 407.193 215 471 c 4
 217.93 474.869 220 478 226 478 c 4
184 366 m 5
 173.769 350.336 168.116 321.593 168.116 296.911 c 4
 168.116 280.427 170.638 265.754 176 258 c 4
 186 248.667 197.667 244 211 244 c 5
 227.667 266.667 244.667 292 262 320 c 4
 262.667 322 263 323.667 263 325 c 4
 263 329 262 332 260 334 c 4
 234.667 350.667 209.333 361.333 184 366 c 5
218 229 m 5
 200.667 203 179 168.333 157 125 c 5
 175.667 108.333 231.898 86.4297 268 78 c 4
 269.274 77.6807 270.505 77.3848 271.43 77.3848 c 4
 272.394 77.3848 273.024 77.7051 273.024 78.6533 c 4
 273.024 78.7607 273.017 78.876 273 79 c 4
 272.978 82.0752 272.965 85.1514 272.965 88.2285 c 4
 272.965 123.279 274.557 158.407 280 193 c 4
 280 197 279.333 200 278 202 c 4
 264 217.333 244 226.333 218 229 c 5
EndSplineSet
EndChar

StartChar: hyphen
Encoding: 45 45 6
Width: 296
VWidth: 0
Flags: HMW
LayerCount: 2
Fore
SplineSet
31.4561 277.316 m 4
 31.2642 277.438 31.1775 277.669 31.1775 277.984 c 0
 31.1775 280.374 36.1692 287.58 38.0098 288.207 c 4
 54.394 305.51 76.8835 325.153 93.1875 343.666 c 5
 125.839 335.109 161.432 333.004 194.282 333.004 c 0
 218.088 333.004 240.454 334.109 259.214 334.666 c 5
 234.317 322.956 215.321 297.529 205.834 286.211 c 4
 204.777 285.379 203.345 284.698 202.652 284.698 c 4
 201.96 284.698 201.025 284.329 200.573 283.877 c 4
 177.397 284.223 126.211 289.159 87.2971 289.159 c 0
 68.2095 289.159 52.0743 287.972 43.6445 284.472 c 4
 41.6448 283.308 32.8265 277.299 31.551 277.299 c 0
 31.5123 277.299 31.4805 277.305 31.4561 277.316 c 4
EndSplineSet
Validated: 1
EndChar

StartChar: Z
Encoding: 90 90 8
Width: 1073
VWidth: 0
Flags: HMW
LayerCount: 2
Fore
SplineSet
921.723 801.37 m 4
 923.139 800.109 924.095 798.532 924.095 796.805 c 4
 924.095 796.005 923.902 795.174 923.472 794.327 c 4
 850.047 678.491 640.442 480.457 640.442 480.457 c 5
 640.135 477.28 639.99 474.462 639.99 471.961 c 4
 639.99 436.341 674.997 465.829 687.949 438.794 c 4
 689.009 436.315 689.493 433.844 689.493 431.416 c 4
 689.493 416.587 672.588 403.401 658.024 400.283 c 4
 633.854 400.87 644.854 448.823 617.014 448.823 c 4
 614.648 448.823 611.999 448.447 609.021 447.63 c 4
 602.003 443.104 575.422 414.118 575.422 414.118 c 5
 578.418 399.942 600.997 371.824 624.053 362.972 c 4
 625.762 362.342 627.922 362.074 630.44 362.074 c 4
 644.745 362.074 670.61 371.756 690.745 371.756 c 4
 703.189 371.756 713.456 368.334 717.51 357.284 c 5
 717.356 340.335 690.64 321.362 675.376 310.019 c 5
 702.189 305.395 727.334 289.635 727.334 270.958 c 4
 727.334 264.186 724.193 257.036 716.865 249.889 c 4
 707.359 240.617 699.14 236.805 692.024 236.805 c 4
 671.418 236.805 659.938 267.148 653.312 290.49 c 5
 644.797 271.146 635.093 252.006 614.744 242.951 c 4
 610.966 241.297 607.667 240.534 604.794 240.534 c 4
 590.68 240.534 586.651 257.606 586.651 277.519 c 4
 586.651 294.626 589.319 313.819 591.227 326.159 c 4
 591.301 326.655 591.338 327.164 591.338 327.684 c 4
 591.338 341.891 560.258 365.181 536.692 382.038 c 5
 536.692 382.038 523.944 370.652 522.475 367.245 c 4
 521.703 365.416 521.35 363.769 521.35 362.272 c 4
 521.35 347.436 558.478 347.617 562.957 332.176 c 4
 565.636 323.209 567.084 315.851 567.084 310.024 c 4
 567.084 298.246 561.576 292.666 548.898 292.666 c 4
 542.987 292.666 535.531 293.787 526.363 295.972 c 4
 510.289 299.938 520.363 342.649 500.064 342.649 c 4
 496.164 342.649 491.123 340.972 484.524 336.991 c 5
 410.345 267.526 285.277 138.112 148.894 9.70605 c 5
 418.281 16.1611 671.208 71.9004 777.183 278.413 c 4
 801.2 327.076 797.814 404.371 800.546 458.402 c 4
 803.301 505.259 838.871 526.727 878.155 526.727 c 4
 879.511 526.727 880.871 526.713 882.234 526.687 c 4
 918.441 525.386 950.645 500.257 957.527 464.764 c 4
 964.1 430.926 983.167 410.062 997.022 402.92 c 4
 1002.56 400.588 1007.79 398.513 1012.77 398.513 c 4
 1017.61 398.513 1022.21 400.578 1026.64 406.479 c 4
 1033.28 418.013 1035.88 426.96 1035.88 433.937 c 4
 1035.88 456.783 1006.47 458.223 1002.42 460.431 c 4
 1001.99 460.669 1001.8 460.879 1001.8 461.065 c 4
 1001.8 462.005 1006.16 462.353 1008.94 462.42 c 4
 1009.07 462.425 1009.21 462.427 1009.35 462.427 c 4
 1021.93 462.427 1045.92 449.825 1047.77 434.294 c 4
 1048.21 431.009 1048.45 427.627 1048.45 424.21 c 4
 1048.45 397.262 1035.64 368.15 991.704 367.084 c 4
 991.688 367.084 l 4
 966.309 367.084 932.583 380.077 919.597 395.786 c 4
 914.643 401.775 912.724 407.479 912.724 413.148 c 4
 912.724 427.479 924.338 441.591 930.609 459.504 c 4
 930.779 460.284 930.859 461.025 930.859 461.731 c 4
 930.859 468.158 923.508 471.772 915.722 477.447 c 4
 915.501 477.447 915.055 477.418 914.97 477.03 c 4
 910.386 456.036 910.895 425.662 878.868 424.367 c 4
 851.412 424.633 836.711 446.297 836.711 469.517 c 4
 836.711 471.646 836.816 473.788 837.026 475.928 c 4
 837.026 477.877 836.786 479.116 836.323 479.116 c 6
 836.312 479.115 l 6
 835.507 479.083 831.981 476.401 828.477 473.155 c 4
 824.937 469.644 823.744 464.623 823.744 458.84 c 4
 823.744 446.939 829.273 431.796 829.273 419.964 c 4
 829.273 419.109 829.252 418.272 829.206 417.454 c 4
 828.364 327.713 811.198 234.533 811.198 140.159 c 4
 811.198 91.5869 816.623 42.6982 832.929 -6.20117 c 4
 832.932 -6.20117 l 4
 837.094 -6.20117 839.31 -7.99023 839.31 -10.4951 c 4
 839.31 -10.4971 l 4
 839.31 -12.3945 838.102 -14.6973 835.581 -16.9482 c 4
 830.333 -21.6279 827.669 -26.7637 823.879 -39.501 c 4
 821.429 -47.7627 819.631 -53.5 817.708 -53.5 c 4
 817.707 -53.5 l 4
 816.804 -53.5 815.869 -52.3115 814.834 -49.6367 c 4
 811.627 -27.458 801.704 -25.3506 783.623 -23.7637 c 5
 783.622 -23.7617 l 5
 665.898 -19.9736 536.403 -15.2549 403.551 -15.2549 c 4
 304.274 -15.2549 203.121 -19.4658 103.607 -31.6572 c 5
 103.607 -31.6572 75.4248 -31.3848 50.125 -31.3848 c 4
 40.8525 -31.3848 31.9678 -31.5342 25 -31.9404 c 5
 162.259 99.5342 297.147 237.255 434.604 370.213 c 4
 438.8 374.274 441.753 377.643 442.945 380.809 c 4
 444.025 383.748 444.516 386.315 444.516 388.575 c 4
 444.516 409.23 400.541 403.751 396.682 420.446 c 4
 395.662 424.643 395.18 428.581 395.18 432.218 c 4
 395.18 448.949 404.514 459.354 418.515 459.354 c 4
 424.822 459.354 432.065 457.36 439.827 453.023 c 4
 453.661 445.245 439.456 406.369 459.03 406.369 c 4
 460.919 406.369 463.129 406.767 465.719 407.63 c 5
 493.9 435.975 l 5
 484.467 451.977 461.224 476.8 443.715 484.041 c 4
 441.817 484.795 439.341 485.107 436.422 485.107 c 4
 422.38 485.107 398.058 476.979 378.633 476.979 c 4
 368.844 476.979 360.294 478.862 354.912 484.521 c 4
 351.995 487.658 350.74 490.812 350.74 493.957 c 4
 350.74 510.346 383.182 526.441 393.78 538.303 c 5
 367.353 543.559 342.85 559.691 342.85 578.143 c 4
 342.85 585.083 346.145 592.347 353.862 599.49 c 4
 363.362 608.29 371.507 611.928 378.504 611.928 c 4
 399.465 611.928 410.279 580.967 416.343 557.255 c 5
 425.351 576.372 435.546 595.26 456.129 603.779 c 4
 459.752 605.258 462.925 605.941 465.694 605.941 c 4
 479.288 605.941 483.337 590.659 483.337 572.135 c 4
 483.337 554.162 479.872 533.152 477.484 519.988 c 4
 477.405 519.546 477.367 519.083 477.367 518.6 c 4
 477.367 506.753 503.178 482.794 523.912 466.166 c 5
 559.271 501.735 l 5
 561.193 506.761 562.034 510.438 562.034 513.178 c 4
 562.034 527.389 537.877 515.974 526.179 537.509 c 4
 522.537 544.13 520.853 550.158 520.853 555.354 c 4
 520.853 567.605 529.698 575.275 544.067 575.275 c 4
 550.197 575.275 557.325 573.97 565.194 571.135 c 4
 575.143 567.463 577.016 560.441 577.016 553.247 c 4
 577.016 548.872 576.443 544.435 576.443 540.642 c 4
 576.443 534.697 578.146 530.346 586.929 530.346 c 4
 588.286 530.346 589.813 530.464 591.532 530.714 c 5
 621.375 556.336 741.036 682.524 799.958 739.271 c 4
 802.557 741.774 805.454 743.732 805.454 744.858 c 4
 805.453 746.952 803.332 748.126 800.92 748.126 c 4
 759.61 750.072 719.685 751.228 681.318 751.228 c 4
 395.758 751.228 197.293 665.337 159.788 291.328 c 4
 159.789 291.286 159.79 291.241 159.79 291.196 c 4
 159.79 290.69 159.78 290.015 159.78 289.247 c 4
 159.78 286.182 160.171 281.639 164.081 280.578 c 4
 164.271 280.528 164.459 280.505 164.646 280.505 c 4
 166.238 280.505 167.737 282.364 168.611 284.698 c 4
 175.047 295.455 180.215 299.681 184.707 299.681 c 4
 184.709 299.681 l 4
 192.668 299.681 203.173 284.586 205.523 273.845 c 4
 206.055 271.562 206.292 269.192 206.292 266.775 c 4
 206.292 253.074 199.43 237.866 194.529 228.558 c 4
 186.469 218.71 173.033 211.772 167.66 200.91 c 4
 167.221 200.005 167.033 199.167 167.033 198.372 c 4
 167.033 193.938 173.262 190.883 173.962 185.216 c 4
 173.962 185.213 l 4
 173.962 169.863 141.285 153.311 122.104 153.306 c 4
 122.099 153.306 l 4
 117.045 153.306 113.602 155.235 110.562 156.878 c 4
 95.3174 165.18 55.9277 158.57 51.1436 185.344 c 4
 51.1436 185.348 l 4
 51.1436 189.857 52.7568 195.284 56.5771 201.846 c 4
 57.3691 202.956 59.2578 207.883 60.7695 212.798 c 4
 65.8037 228.214 73.9404 233.973 82.2969 233.975 c 4
 82.3018 233.975 l 4
 97.3115 233.975 113.005 216.263 113.149 202.053 c 4
 113.15 195.889 113.83 192.681 116.624 192.681 c 4
 116.8 192.681 116.984 192.695 117.179 192.725 c 4
 126.577 194.05 129.087 204.306 129.087 216.136 c 4
 129.087 227.774 126.389 240.943 125.647 248.573 c 4
 120.152 298.937 118.646 351.538 118.646 403.178 c 4
 118.646 465.987 119.038 527.376 119.038 581.588 c 4
 119.038 647.769 116.072 703.247 102.894 737.537 c 4
 90.8213 771.008 81.1807 782.954 74.6797 785.901 c 5
 83.2217 793.604 90.1709 796.702 99.0342 796.702 c 4
 100.215 796.702 101.428 796.659 102.684 796.577 c 4
 224.908 788.639 352.395 785.306 478.76 785.306 c 4
 628.385 785.306 776.435 792.618 912.295 803.938 c 5
 912.296 803.939 l 6
 912.898 804.18 913.589 804.293 914.328 804.293 c 4
 916.762 804.293 919.712 803.154 921.723 801.37 c 4
EndSplineSet
EndChar

StartChar: Y
Encoding: 89 89 9
Width: 794
VWidth: 0
Flags: HMW
LayerCount: 2
Fore
SplineSet
769.317 806.616 m 6
 769.317 801.723 768.058 796.954 763.214 794.79 c 4
 736.288 782.603 698.211 771.569 660.432 759.646 c 4
 634.272 751.543 618.868 743.684 614.681 724.562 c 4
 577.01 141.282 408.007 9.61035 342.663 -56.6143 c 4
 334.076 -65.3174 315.085 -84.1953 315.085 -92.3779 c 4
 315.085 -94.8057 316.757 -96.291 320.868 -96.291 c 4
 322.527 -96.291 324.584 -96.0498 327.088 -95.5303 c 4
 380.767 -84.3838 625.052 31.4512 650.22 32.5781 c 4
 650.406 32.5928 650.587 32.5996 650.767 32.5996 c 4
 655.426 32.5996 657.446 30.0264 657.446 25.5625 c 4
 657.446 3.07812 587.943 -79.8301 565.041 -112.633 c 4
 556.031 -125.476 537.66 -149.581 530.783 -149.581 c 4
 530.153 -149.581 529.617 -149.397 529.191 -149.008 c 4
 528.542 -148.412 528.275 -147.653 528.275 -146.813 c 4
 528.275 -144.271 530.497 -140.984 532.062 -139.05 c 4
 547.06 -120.487 550.857 -109.059 550.857 -99.6777 c 4
 550.857 -90.1387 546.309 -82.7393 546.309 -72.0283 c 4
 546.309 -69.8174 546.451 -67.4678 546.798 -64.9277 c 4
 548.229 -56.0498 558.021 -46.0752 567.057 -46.0752 c 4
 567.438 -46.0752 567.818 -46.0859 568.196 -46.1094 c 4
 580.28 -47.1855 581.794 -60.2119 587.273 -60.2119 c 4
 591.202 -60.2119 597.235 -52.8545 611.077 -27.6982 c 4
 613.212 -23.7705 614.246 -21.1104 614.246 -19.4658 c 4
 614.246 -17.998 613.335 -17.3604 611.565 -17.3604 c 4
 606.81 -17.3604 595.749 -22.4414 579.421 -28.4658 c 4
 500.768 -61.6074 382.871 -153.649 272.912 -153.649 c 4
 264.089 -153.649 255.315 -153.057 246.618 -151.793 c 4
 232.505 -149.742 226.932 -147.182 224.006 -130.556 c 4
 223.251 -126.26 222.891 -121.987 222.891 -117.737 c 4
 222.891 -32.2852 368.411 44.1514 368.411 118.763 c 4
 368.411 123.991 367.697 129.21 366.168 134.422 c 4
 294.903 339.727 207.743 645.132 74.1006 776.213 c 4
 67.9492 782.249 36.1602 792.944 25.7129 797.9 c 4
 25.2178 798.136 25 798.714 25 799.463 c 4
 25 801.966 27.2197 806.336 29.7588 806.336 c 4
 33.3594 806.336 38.6826 805.35 45.3262 803.225 c 4
 184.066 755.158 279.955 730.434 388.133 730.434 c 4
 484.496 730.434 590.771 753.086 746.116 800.681 c 4
 750.904 802.122 760.118 805.455 769.318 806.615 c 5
 769.317 806.616 l 6
314.643 714.038 m 5
 334.092 613.623 421.623 320.603 456.977 236.576 c 5
 479.056 304.07 515.344 438.719 515.344 536.882 c 4
 515.344 543.783 515.05 550.505 514.438 557.011 c 4
 508.387 650.417 449.799 711.355 396.943 713.158 c 4
 373.536 713.502 314.643 714.039 314.643 714.039 c 5
 314.643 714.038 l 5
EndSplineSet
EndChar

StartChar: X
Encoding: 88 88 10
Width: 806
VWidth: 0
Flags: HMW
LayerCount: 2
Fore
SplineSet
765.123 797.275 m 4
 765.268 797.279 765.413 797.281 765.562 797.281 c 4
 771.216 797.281 780.53 794.472 781.137 792.653 c 4
 781.258 792.292 781.322 791.944 781.322 791.613 c 5
 778.365 791.643 772.303 791.899 764.603 791.899 c 4
 740.418 791.899 700.073 789.366 689.002 769.29 c 4
 607.026 620.656 591 488.438 465.823 405.761 c 4
 451.833 396.52 445.437 395.355 445.437 380.121 c 4
 445.437 378.182 445.54 376.014 445.744 373.573 c 4
 450.796 248.634 461.983 30.1475 521.565 5.7793 c 4
 530.644 2.06641 559.804 -7.44141 565.392 -8.24512 c 4
 567.645 -8.01953 568.674 -7.38184 568.674 -5.94531 c 4
 568.674 -5.38867 568.52 -4.71191 568.222 -3.89258 c 4
 565.401 2.60449 564.381 8.73047 564.381 15.1045 c 4
 564.381 18.1768 564.618 21.3057 565.005 24.5615 c 4
 567.52 45.7598 577.82 56.6514 594.272 56.6514 c 4
 604.631 56.6514 616.694 52.3857 628.657 43.8203 c 4
 641.086 33.9932 650.207 17.499 660.192 3.00879 c 4
 672.828 -15.3301 730.209 -20.0098 744.652 -23.4082 c 4
 745.946 -23.7129 746.214 -24.6885 746.214 -25.5234 c 4
 746.214 -26.1123 746.079 -26.6318 746.079 -26.7959 c 4
 746.079 -27.4619 742.513 -27.9932 733.944 -28.5293 c 4
 636.638 -24.3242 537.114 -22.752 440.837 -22.752 c 4
 331.629 -22.752 226.598 -24.7754 133.721 -27.2725 c 4
 129.212 -27.3936 125.209 -31.0762 123.382 -33.2803 c 4
 121.434 -36.5459 120.941 -39.6357 120.941 -42.7803 c 4
 120.941 -45.8838 121.421 -49.04 121.454 -52.4697 c 4
 121.454 -54.8936 120.773 -56.6631 118.047 -57.1816 c 4
 116.858 -81.834 102.303 -78.5674 90.041 -120.925 c 4
 88.1309 -127.526 86.2754 -135.235 84.5352 -144.331 c 4
 83.6367 -149.02 83.2285 -153.338 83.2285 -157.285 c 4
 83.2285 -177.011 93.4062 -187.441 103.438 -188.412 c 6
 103.528 -188.412 l 6
 103.478 -187.748 103.452 -187.007 103.452 -186.196 c 4
 103.452 -185.834 103.452 -185.467 103.452 -185.096 c 4
 103.452 -171.571 103.716 -151.763 123.366 -144.336 c 4
 127.524 -142.765 131.631 -142.052 135.517 -142.052 c 4
 149.748 -142.052 161.019 -151.597 161.019 -163.435 c 4
 161.019 -163.691 161.014 -163.949 161.003 -164.207 c 4
 159.989 -188.781 153.387 -206.956 128.652 -206.956 c 4
 122.835 -206.956 116.014 -205.951 108.027 -203.787 c 4
 87.4531 -198.212 66.3779 -176.515 66.3779 -152.866 c 4
 66.3779 -151.994 66.4062 -151.119 66.4658 -150.242 c 4
 69.2246 -108.832 85.4131 -43.6602 95.3945 -29.1445 c 4
 95.5205 -28.958 95.583 -28.7871 95.583 -28.6289 c 4
 95.583 -27.4717 92.2891 -27.0225 87.2793 -27.0225 c 4
 77.6523 -27.0225 61.6924 -28.6816 50.6162 -30.1611 c 4
 49.4297 -30.1611 48.6074 -29.9346 48.6074 -29.4033 c 4
 48.6074 -28.4873 49.2949 -27.3125 50.1377 -26.792 c 4
 51.6602 -25.8486 67.8457 -23.2227 87.5049 -20.7305 c 4
 93.1738 -20.0107 97.7432 -18.3018 98.4873 -17.3838 c 4
 108.116 -5.48828 116.517 13.6426 116.517 29.9014 c 4
 116.517 32.6885 116.27 35.3906 115.74 37.957 c 4
 115.01 41.3477 114.505 42.6621 113.337 42.6621 c 4
 112.791 42.6621 112.1 42.375 111.174 41.8779 c 4
 98.916 34.9834 88.4609 32.2881 79.3604 32.2881 c 4
 73.7061 32.2881 68.5752 33.3291 63.8604 35.0469 c 4
 38.1484 47.8994 25 75.7334 25 101.96 c 4
 25 105.789 25.2803 109.583 25.8428 113.293 c 4
 53.1768 274.986 223.467 330.046 315.171 366.952 c 4
 317.209 367.706 317.732 369.167 317.732 370.854 c 4
 317.732 372.112 317.44 373.497 317.271 374.807 c 4
 301.45 497.201 273.474 722.62 186.243 778.254 c 5
 158.066 766.964 180.517 752.864 159.943 737.809 c 4
 153.95 733.943 146.188 731.938 138.675 731.938 c 4
 117.079 732.4 102.705 743.85 98.5801 753.254 c 4
 83.2969 790.957 36.0117 791.199 36.0117 795.083 c 4
 36.0117 796.122 39.6396 796.902 48.6074 797.794 c 4
 196.917 796.038 347.553 794.004 491.901 794.004 c 4
 586.481 794.004 678.363 794.877 765.123 797.275 c 4
419.858 773.407 m 5
 429.154 649.698 437.327 543.413 444.41 430.329 c 5
 535.425 490.422 544.977 573.98 544.977 660.351 c 4
 545.081 662.843 545.132 665.294 545.132 667.704 c 4
 545.132 739.81 499.123 775.45 443.424 775.45 c 4
 435.722 775.45 427.835 774.769 419.858 773.407 c 5
173.281 31.4082 m 4
 172.724 27.1055 157.067 31.5605 151.292 26.79 c 4
 139.968 17.4395 135.885 -0.0976562 134.248 -13.8389 c 4
 134.239 -13.9062 134.234 -13.9697 134.234 -14.0283 c 4
 134.234 -14.6416 134.646 -14.7686 135.155 -14.7686 c 4
 135.514 -14.7686 135.919 -14.7051 136.264 -14.7051 c 4
 192.701 -11.6982 316.725 -17.6113 327.079 36.6982 c 4
 333.608 70.9424 336.213 108.065 336.213 147.034 c 4
 336.213 207.875 329.862 273.217 322.176 339.131 c 5
 221.447 279.519 183.687 111.659 173.281 31.4082 c 4
EndSplineSet
EndChar

StartChar: A.heart
Encoding: 983048 983048 11
Width: 806
VWidth: 0
Flags: HMW
LayerCount: 2
Fore
SplineSet
41.2168 808.081 m 1
 83.3203 769.406 162.676 757.389 215.176 754.535 c 0
 245.911 752.975 276.229 752.135 306.265 752.135 c 0
 379.596 752.135 451.251 757.152 523.208 768.978 c 0
 560.194 775.057 593.212 783.887 631.308 799.938 c 1
 637.196 791.974 639.749 776.251 639.749 762.574 c 0
 639.749 755.765 639.114 749.461 637.946 744.874 c 1
 626.327 747.887 609.662 748.981 593.188 748.981 c 0
 575.027 748.981 557.1 747.65 546.422 746.084 c 1
 558.926 645.867 637.996 50.3789 645.38 11 c 1
 689.405 4.75488 744.182 0.755859 780.756 -5.6748 c 0
 780.756 -6.26465 781.508 -8.37598 781.508 -10.1152 c 0
 781.508 -11.1836 781.225 -12.1104 780.307 -12.459 c 2
 197.201 -12.459 l 1
 195.331 -18.166 189.38 -36.499 187.612 -44.3066 c 1
 193.713 -42.0996 199.88 -41.0498 205.773 -41.0498 c 0
 225.954 -41.0498 242.917 -53.3496 242.917 -73.5156 c 0
 242.917 -80.8809 240.654 -89.2949 235.461 -98.542 c 0
 224.479 -118.092 154.075 -122.947 131.468 -193.454 c 0
 129.305 -195.343 124.87 -198.158 122.541 -198.158 c 0
 122.289 -198.158 122.062 -198.125 121.866 -198.055 c 0
 120.208 -196.082 118.109 -192.518 116.877 -189.424 c 0
 119.834 -178.7 121.088 -168.62 121.088 -159.157 c 0
 121.088 -106.052 81.5547 -72.3574 81.5547 -53.042 c 0
 81.5547 -52.7344 81.5654 -52.4297 81.585 -52.1299 c 0
 83.4355 -24.8232 98.4941 -12.7441 115.262 -12.7441 c 0
 128.179 -12.7441 142.11 -19.9141 151.795 -32.8135 c 1
 159.567 -11.9873 162.928 11.5635 162.928 37.1025 c 0
 162.928 89.8105 148.618 150.983 129.231 214.142 c 0
 110.151 276.297 90.7441 339.223 79.998 402.864 c 0
 76.6982 422.398 75.1709 440.852 75.1709 458.312 c 0
 75.1709 602.639 179.653 679.045 252.885 735.992 c 1
 252.326 735.985 251.762 735.983 251.188 735.983 c 0
 225.889 735.983 186.815 741.073 147.698 742.428 c 0
 132.229 742.963 102.647 746.549 74.7373 746.549 c 0
 56.0557 746.549 38.1221 744.942 25.6729 739.739 c 1
 25.2178 741.965 25 745.084 25 748.775 c 0
 25 768.742 31.3789 805.458 41.2168 808.081 c 1
447.606 737.824 m 1
 414.84 735.105 383.189 735.856 358.708 733.948 c 1
 357.929 695.165 355.89 656.271 355.89 625.006 c 0
 355.89 621.949 355.909 618.967 355.951 616.063 c 0
 391.854 588.092 414.214 567.848 447.821 541.082 c 1
 447.549 570.828 447.472 599.021 447.472 627.07 c 0
 447.472 663.228 447.6 699.144 447.606 737.824 c 1
301.471 732.3 m 1
 269.372 555.142 234.477 385.203 214.79 209.737 c 0
 207.315 143.108 211.751 72.0088 202.918 8.94824 c 1
 241.88 8.0752 262.562 7.59375 295.037 7.57031 c 1
 311.654 242.345 304.662 479.068 321.135 732.257 c 1
 301.471 732.3 l 1
347.389 505.004 m 1
 345.859 459.884 327.997 112.022 322.232 7.50586 c 1
 365.63 7.79004 439.54 7.8125 456.317 8.25977 c 1
 455.675 89.5371 448.349 301.805 444.86 439.009 c 1
 421.911 453.969 375.756 485.968 347.389 505.004 c 1
137.265 -46.0967 m 0
 128.747 -46.0967 121.098 -52.2324 120.157 -66.1035 c 0
 120.147 -66.2568 120.143 -66.4111 120.143 -66.5684 c 0
 120.143 -76.3809 140.224 -93.4971 140.224 -120.474 c 0
 140.224 -125.282 139.587 -130.401 138.086 -135.849 c 0
 138.712 -137.42 139.778 -139.23 140.62 -140.234 c 0
 140.721 -140.27 140.835 -140.285 140.964 -140.285 c 0
 142.147 -140.285 144.399 -138.856 145.497 -137.896 c 0
 156.981 -102.079 192.746 -99.6133 198.324 -89.6816 c 0
 200.921 -85.0596 202.047 -80.7812 202.047 -76.9932 c 0
 202.047 -66.6426 193.625 -59.96 183.754 -59.96 c 0
 180.58 -59.96 177.259 -60.6504 174.018 -62.1309 c 0
 165.691 -65.9355 160.896 -74.8604 160.896 -74.8604 c 1
 160.09 -66.0645 159.995 -61.582 155.823 -56.291 c 0
 151.651 -51 143.827 -46.0967 137.265 -46.0967 c 0
EndSplineSet
EndChar

StartChar: e
Encoding: 101 101 15
Width: 320
VWidth: 0
Flags: HMW
LayerCount: 2
Fore
SplineSet
134 -37.5527 m 4
 124.561 -11.9053 61.8418 31.5225 28 36.4473 c 4
 26.248 36.6514 25.1123 37.333 25.1123 38.125 c 4
 25.1123 38.2529 25.1416 38.3828 25.2031 38.5146 c 6
 28 45.4473 l 6
 38.8213 72.2725 43.9238 127.697 43.9238 184.589 c 4
 43.9238 245.749 38.0273 308.604 27 339.447 c 4
 25.5195 343.588 23 345.78 23 350.447 c 4
 23.3652 355.867 25.5498 356.492 29.0859 356.492 c 4
 30.1465 356.492 31.3291 356.437 32.6201 356.437 c 4
 34.7607 356.437 37.2002 356.591 39.8818 357.413 c 4
 55.4697 361.131 167.667 429.114 185 458.447 c 4
 187.37 463.003 189.084 468.206 191 471.947 c 4
 193.199 476.241 195.498 478 197.54 478 c 4
 201.035 478 203.781 472.85 204 466.447 c 4
 204.61 450.209 240.209 382.434 267.343 382.434 c 4
 267.562 382.434 267.781 382.438 268 382.447 c 4
 273.493 382.672 278.652 385.809 284 388.447 c 4
 289.453 391.138 290.693 391.633 294 392.447 c 4
 294.192 392.462 294.378 392.469 294.555 392.469 c 4
 296.685 392.469 297.701 391.458 297.701 390.235 c 4
 297.701 389.312 297.12 388.268 296 387.447 c 4
 253.285 364.382 218.103 325.736 163 226.447 c 4
 161.914 224.49 161.263 222.122 161.263 219.979 c 4
 161.263 217.654 162.029 215.595 163.837 214.612 c 4
 164.587 214.205 165.382 214.024 166.203 214.024 c 4
 171.291 214.024 177.383 220.939 179.966 223.522 c 4
 183.447 226.783 187.04 228.184 190.324 228.184 c 4
 197.07 228.184 202.512 222.274 203 214.447 c 4
 203.667 214.447 207.71 219.926 211.525 224.71 c 4
 214.351 228.252 217.684 232.052 220.237 233.464 c 5
 212.162 222.127 206.963 213.791 200 204.447 c 4
 192.419 194.273 182.123 186.193 171.095 186.193 c 4
 170.177 186.193 169.255 186.249 168.328 186.364 c 4
 158.711 187.562 149.983 197.193 147.384 206.529 c 4
 146.829 208.52 146.577 210.481 146.577 212.433 c 4
 146.577 220.18 150.55 227.759 155.343 236.297 c 4
 165.468 254.334 178.637 276.191 197 306.447 c 4
 197.948 308.01 198.521 309.938 198.521 311.827 c 4
 198.521 312.736 198.389 313.636 198.102 314.481 c 4
 191.035 335.253 162.072 366.599 142 368.447 c 4
 136 368.447 133 363.78 133 354.447 c 4
 132.724 329.308 132.585 304.026 132.585 279.013 c 4
 132.585 219.082 133.382 160.686 135 109.447 c 4
 135.144 108.589 135.575 107.436 136.213 106.778 c 4
 158.072 88.127 187.881 74.2949 215 68.4473 c 4
 217.817 67.8564 220 67.2715 220 65.4473 c 4
 220 62.1143 217.458 60.3662 213 58.4473 c 4
 195.443 50.8896 150.212 -12.8047 142 -37.5527 c 4
 140.666 -40.9043 139.272 -42.2637 137.974 -42.2637 c 4
 136.428 -42.2637 135.017 -40.3369 134 -37.5527 c 4
EndSplineSet
EndChar

StartChar: d
Encoding: 100 100 16
Width: 408
VWidth: 0
Flags: HMW
LayerCount: 2
Fore
SplineSet
171 589 m 4
 175 589 178.333 586.333 181 581 c 4
 221.667 508.333 288 441.333 380 372 c 5
 385 369 l 5
 385 368 l 6
 385 366.667 384.333 365.667 383 365 c 4
 373.667 363.667 368.667 363 368 363 c 4
 364.667 361 363 358.333 363 355 c 4
 357.667 309.667 355 254.333 355 189 c 4
 355 124.333 359 90 367 86 c 4
 369.667 85.333 372.667 84.667 376 84 c 4
 379.333 84 381 83.333 381 82 c 4
 381 79.333 377.667 77.333 371 76 c 4
 329 70.667 303 62 281 50 c 4
 265.667 42 251.5 34.5 238.5 15.5 c 4
 225.5 -3.5 217.333 -23.333 214 -44 c 4
 212.667 -47.333 210.667 -49 208 -49 c 4
 207.333 -49 206 -47.167 204 -43.5 c 4
 202 -39.833 199.667 -35.167 197 -29.5 c 4
 178.438 0.510742 133.57 45.4004 96 51 c 4
 94 49.667 91.667 48.667 89 48 c 4
 82.333 44.667 77.167 43 73.5 43 c 4
 69.833 43 68 44.667 68 48 c 4
 68 50.667 72.667 56.667 82 66 c 4
 86 70.667 88.333 75.333 89 92 c 4
 93 172.667 95 213.667 95 215 c 4
 95 254.333 91.333 288.667 84 318 c 5
 81 320 l 6
 81 321.333 83.333 323.667 88 327 c 4
 99.333 333.667 108.333 340.667 139 352 c 4
 169.667 363.333 191 375 203 387 c 4
 207 390.333 209 392.667 209 394 c 4
 173.667 434.667 132 484 84 550 c 4
 76.667 560 58.333 565 29 565 c 4
 25 565 23 566 23 568 c 4
 23 570 23.667 572 25 574 c 4
 39.667 572.667 53 572 65 572 c 4
 67.8291 571.838 70.6182 571.762 73.373 571.762 c 4
 108.564 571.762 138.084 584.216 171 589 c 4
215 388 m 4
 214.333 388 213 386.667 211 384 c 4
 201 373.333 189 364.333 175 357 c 5
 177 322.333 178 285 178 245 c 4
 178 201.667 176.667 167.333 174 142 c 4
 173.333 138.667 173 134.667 173 130 c 4
 205 101.333 228.333 83 243 75 c 4
 248.333 71.667 252.667 69.333 256 68 c 4
 257.333 67.333 258.333 67 259 67 c 4
 260.333 67 261 68 261 70 c 4
 261 70.667 260.667 72.333 260 75 c 4
 260.667 99 261.667 141.667 263 203 c 4
 264.333 264.333 265 310.667 265 342 c 5
 255 353.333 238.333 368.667 215 388 c 4
EndSplineSet
EndChar

StartChar: f
Encoding: 102 102 17
Width: 353
VWidth: 0
Flags: HMW
LayerCount: 2
Fore
SplineSet
149 -37 m 4
 124.333 6.33301 94.667 30.333 44 35 c 4
 41.333 35 39 37.333 37 42 c 4
 37.667 42.667 39.167 43.5 41.5 44.5 c 4
 43.833 45.5 45.5 46.333 46.5 47 c 4
 47.5 47.667 48.667 48.333 50 49 c 4
 51.333 49.667 52.333 50.5 53 51.5 c 6
 55 54.5 l 5
 56 58 l 5
 67.333 128 73 216 73 274 c 4
 73 336.667 66.667 398.333 54 459 c 4
 53.333 460.333 52.667 462.167 52 464.5 c 4
 51.333 466.833 50.833 468.833 50.5 470.5 c 4
 50.167 472.167 49.5 474 48.5 476 c 4
 47.5 478 46.333 479.333 45 480 c 4
 43 480.667 41 481 39 481 c 4
 36.333 481 33.833 480.333 31.5 479 c 4
 29.167 477.667 27.667 477 27 477 c 4
 24.333 477 23 478 23 480 c 4
 23 480.667 23.333 481.333 24 482 c 4
 25.333 484 32.333 487 45 491 c 4
 133 519.667 175.333 560 212 628 c 4
 212.667 630 214.333 631 217 631 c 4
 217.667 631 218.333 630.667 219 630 c 4
 221 629.333 223 626.667 225 622 c 4
 230.333 610.667 236.667 600.333 244 591 c 4
 253.333 579 265.333 567.667 280 557 c 4
 280.667 556.333 282.667 554.833 286 552.5 c 4
 289.333 550.167 291.5 548.5 292.5 547.5 c 4
 293.5 546.5 295.5 545 298.5 543 c 4
 301.5 541 303.833 539.667 305.5 539 c 4
 307.167 538.333 309.167 537.333 311.5 536 c 4
 313.833 534.667 316.167 533.833 318.5 533.5 c 4
 320.833 533.167 323 533 325 533 c 6
 327 533 l 6
 329 533 330 532 330 530 c 5
 330 528.667 329.667 528 329 528 c 4
 301 512.667 284.333 493.667 255 455 c 4
 248.333 447 239 433.667 227 415 c 6
 202 378 l 6
 201.333 377.333 200.833 377 200.5 377 c 4
 200.167 377 200 378.667 200 382 c 4
 209.333 400 225 426.667 247 462 c 5
 245 464 l 5
 228.333 489.333 204.333 509.333 173 524 c 4
 167 526.667 162.333 528 159 528 c 4
 156.333 528 155 527 155 525 c 4
 151 499 149 475.333 149 454 c 4
 149 424 152.667 397.667 160 375 c 4
 164 363.667 176 358 196 358 c 4
 199.333 358 202.667 358.333 206 359 c 4
 209.333 359.667 212.167 360.333 214.5 361 c 4
 216.833 361.667 219.5 362.5 222.5 363.5 c 4
 225.5 364.5 227.667 365 229 365 c 6
 230 366 l 6
 231.333 366 232 364.667 232 362 c 4
 232 360.667 231.333 357.333 230 352 c 4
 222 306 218 269.667 218 243 c 4
 218 229.667 218.333 212.667 219 192 c 4
 218.333 186.667 216.667 184 214 184 c 6
 213 184 l 6
 209.667 184.667 207.333 187.667 206 193 c 4
 206 209 205.333 234 204 268 c 4
 204 275.333 195.667 279 179 279 c 4
 171 279 164.667 277.667 160 275 c 4
 156 273.667 153.667 268.667 153 260 c 4
 150.333 244 149 228.667 149 214 c 4
 149 169.333 157.667 114.333 175 97 c 4
 190.333 82.333 205.667 74.667 221 74 c 6
 222 74 l 5
 226 74.5 l 5
 229 75 l 6
 231 75 232.333 74.667 233 74 c 4
 233.667 73.333 234 72.333 234 71 c 6
 234 70 l 5
 200 33.333 176.667 -1.33301 164 -34 c 4
 162 -38.667 159.667 -41.333 157 -42 c 6
 156 -42 l 6
 153.333 -42 151 -40.333 149 -37 c 4
EndSplineSet
EndChar

StartChar: h
Encoding: 104 104 18
Width: 346
VWidth: 0
Flags: HMW
LayerCount: 2
Fore
SplineSet
226 -130 m 4
 214 -126.667 207.667 -117 207 -101 c 4
 206.333 -81 206 -59.667 206 -37 c 4
 206 -16.333 206.333 14 207 54 c 5
 206.333 54 205 53.333 203 52 c 4
 172.333 35.333 148.667 3.66699 132 -43 c 5
 131 -43 l 5
 129 -43 l 5
 113.346 -3.98633 79.6318 27.5234 42 28 c 6
 25 28 l 6
 23.667 28 23 28.333 23 29 c 6
 23 30 l 5
 31 34 35 38.667 35 44 c 4
 39.667 117.333 42 194.667 42 276 c 4
 42 358.667 39.667 446.333 35 539 c 4
 34.333 541.667 34 544 34 546 c 4
 34 554 37.5 559.667 44.5 563 c 4
 80.6416 573.582 103.81 575.572 131 604 c 4
 133 605.333 134.667 606 136 606 c 4
 140 606 142 603 142 597 c 4
 136.667 541.667 134 483.333 134 422 c 5
 157.333 428 183.667 458 213 512 c 4
 213.667 513.333 214.667 514 216 514 c 4
 218 514 220.333 512.667 223 510 c 4
 249.152 482.927 269.543 443.138 310 437 c 4
 318.667 436.333 323 434.333 323 431 c 4
 322.333 429.667 320.667 428.5 318 427.5 c 4
 315.333 426.5 313.333 425.333 312 424 c 4
 308 419.333 304.333 387.833 301 329.5 c 4
 297.667 271.167 296 212.333 296 153 c 4
 296 122.333 296.5 96.5 297.5 75.5 c 4
 298.5 54.5 300 41 302 35 c 4
 302.667 33 303 31.667 303 31 c 6
 303 30 l 6
 303 28 302 26 300 24 c 4
 261.766 -3.35352 221.725 -46.4932 221 -93 c 4
 221 -103.667 222.833 -111.667 226.5 -117 c 4
 230.167 -122.333 237.333 -126 248 -128 c 4
 248.667 -128 249.333 -128.667 250 -130 c 6
 250 -131 l 5
 248 -132 l 5
 247 -132 l 6
 235 -131.333 228 -130.667 226 -130 c 4
208 75 m 4
 210.667 143 212 208.667 212 272 c 4
 212 297.333 211.667 324 211 352 c 4
 210.333 358 209.333 361.667 208 363 c 4
 196.667 379.667 177.667 388 151 388 c 4
 144.333 388 138.333 387.333 133 386 c 5
 131 324.667 130 268 130 216 c 4
 130 161.333 132.667 122.333 138 99 c 5
 154.667 87 174 76.333 196 67 c 4
 199.333 65.667 201.667 65 203 65 c 4
 206.333 65 208 68.333 208 75 c 4
EndSplineSet
EndChar

StartChar: D
Encoding: 68 68 19
Width: 843
VWidth: 0
Flags: HMW
LayerCount: 2
Fore
SplineSet
72.3037 -3.48047 m 4
 85.1943 -9.6416 90.2432 -14.1992 93.3965 -22.5283 c 6
 95.5273 -28.1504 l 5
 95.5273 -28.1504 104.427 -14.3467 106.295 -6.02148 c 4
 128.729 93.9746 137.451 211.583 137.451 327.41 c 4
 137.451 488.285 120.627 645.723 100.356 747.757 c 4
 99.9033 749.447 99.5674 750.406 98.8438 750.406 c 4
 92.1152 737.5 80.9541 729.422 69.7734 729.422 c 4
 68.7373 729.422 67.7012 729.491 66.6689 729.632 c 4
 46.5117 732.389 39.458 742.503 39.458 753.829 c 4
 39.458 756.97 39.999 760.201 40.9541 763.396 c 4
 46.8252 783.044 68.9795 804.947 80.0703 813.418 c 4
 84.5381 816.838 88.917 818.349 93.125 818.349 c 4
 103.754 818.349 113.29 808.712 120.393 795.851 c 4
 138.956 762.235 140.648 715.837 150.996 674.225 c 4
 153.383 664.626 163.42 662.747 178.353 662.747 c 4
 185.375 662.747 201.446 665.853 205.616 668.805 c 4
 293.883 731.284 375.227 766.059 460.515 767.167 c 4
 507.974 767.167 559.625 757.525 608.793 730.877 c 4
 719.859 670.687 818.644 512.882 818.644 391.77 c 4
 818.644 387.766 818.535 383.804 818.317 379.887 c 4
 811.056 249.923 724.383 85.0605 600.128 9.23535 c 4
 545.761 -23.9414 494.15 -36.1836 447.265 -36.1836 c 4
 263.416 -20.4424 231.2 82.4697 169.023 114.208 c 5
 149.177 10.7236 140.161 -23.2021 96.1475 -57.3389 c 4
 94.085 -62.8076 89.4238 -72.5576 82.5703 -76.123 c 4
 76.5488 -79.2578 69.2793 -80.9609 62.0986 -80.9609 c 4
 55.6787 -80.9609 49.3311 -79.5996 44.0107 -76.6836 c 4
 33.5469 -70.9482 25.1924 -60.4688 25.1924 -46.2334 c 4
 25.0635 -45.0693 25 -43.8828 25 -42.6816 c 4
 25 -23.6533 40.7295 -0.691406 60.4551 -0.691406 c 4
 64.2822 -0.691406 68.2607 -1.55566 72.3037 -3.48047 c 4
512.405 -0.503906 m 5
 532.09 7.43945 549.182 33.8486 550.932 51.1201 c 4
 560.591 146.47 564.081 255.891 564.081 367.281 c 4
 564.081 392.838 564.232 418.014 564.232 442.459 c 4
 564.232 563.924 560.477 667.332 515.637 709.647 c 4
 497.788 726.491 457.34 729.869 433.148 729.869 c 4
 360.24 726.796 280.232 704.38 241.438 648.521 c 4
 240.316 647.197 239.395 629.474 239.388 624.5 c 4
 237.831 552.014 237.254 508.718 237.254 458.485 c 4
 237.254 363.335 239.324 288.387 240.718 158.912 c 4
 241.257 135.796 248.008 119.364 254.51 101.619 c 4
 280.864 30.2998 374.694 -12.9873 449.87 -12.9873 c 4
 473.43 -12.9873 495.159 -8.93945 512.405 -0.504883 c 5
 512.405 -0.503906 l 5
EndSplineSet
EndChar

StartChar: E
Encoding: 69 69 20
Width: 838
VWidth: 0
Flags: HMW
LayerCount: 2
Fore
SplineSet
567.271 705.088 m 4
 588.454 684.611 629.743 667.775 653.153 663.645 c 4
 682.753 658.726 706.519 657.062 726.871 657.062 c 4
 754.047 657.062 775.138 660.03 795.905 662.186 c 5
 778.105 630.469 716.492 630.472 668.167 627.09 c 4
 659.171 626.936 646.87 623.854 645.954 612.04 c 4
 634.804 540.305 627.158 464.446 627.158 389.301 c 4
 627.158 315.553 634.521 242.49 653.158 174.683 c 4
 655.474 166.446 657.082 157.393 675.299 152.031 c 4
 693.517 146.669 784.81 152.242 813.629 94.4951 c 5
 769.665 111.832 724.628 117.181 684.814 117.181 c 4
 675.615 117.181 666.695 116.895 658.132 116.405 c 4
 605.401 109.025 575.41 73.7588 535.656 24.6865 c 4
 493.29 -21.1914 447.399 -37.6064 404.553 -37.6064 c 4
 363.626 -37.6064 325.477 -22.6289 295.831 -4.04688 c 4
 151.182 86.6201 32.4414 216.043 25.3877 373.601 c 4
 25.1289 379.364 25 385.181 25 391.043 c 4
 25 530.434 98.0186 695.743 248.104 767.502 c 4
 296.224 788.733 336.44 799.646 374.121 799.646 c 4
 437.211 799.646 493.193 769.055 567.271 705.088 c 4
370.236 773.484 m 4
 330 773.484 247.896 751.432 247 717.712 c 4
 243.75 595.208 245.496 543.631 242.799 443.507 c 5
 290.058 442.959 333.848 442.434 375.84 442.434 c 4
 426.836 442.434 475.181 443.208 523.873 445.657 c 5
 525.065 458.453 525.627 472.494 525.627 487.276 c 4
 525.627 574.023 506.264 686.363 481.229 723.244 c 4
 458.407 756.865 409.632 773.461 370.236 773.484 c 4
242.886 339.203 m 5
 247.658 226.729 270.103 91.1201 310.919 18.1816 c 4
 323.399 -4.12012 363.978 -17.0488 405.322 -17.0488 c 4
 444.712 -17.0488 484.796 -5.31348 501.939 21.2334 c 4
 530.622 65.6523 536.576 168.677 536.576 262.109 c 4
 536.576 289.185 536.076 315.454 535.484 339.259 c 5
 496.697 341.212 450.758 341.969 404.687 341.969 c 4
 346.165 341.969 287.433 340.747 242.886 339.203 c 5
EndSplineSet
EndChar

StartChar: C
Encoding: 67 67 21
Width: 932
VWidth: 0
Flags: HMW
LayerCount: 2
Fore
SplineSet
833.851 -44.7656 m 4
 832.81 -44.7461 825.363 -42.6484 821.133 -38.7803 c 4
 814.203 -32.4473 808.882 -24.583 808.882 -16.5547 c 4
 808.882 -16.4355 808.883 -16.3145 808.885 -16.1953 c 4
 808.907 -15.0566 809.041 -13.9141 809.291 -12.7725 c 4
 811.493 -2.68359 825.54 0.114258 832.725 7.5 c 4
 834.925 9.76172 835.903 11.5029 835.903 12.8223 c 4
 835.903 15.502 831.861 16.4346 825.809 16.4346 c 4
 823.476 16.4346 820.845 16.2949 818.031 16.0654 c 4
 806.85 14.7275 796.531 9.71094 785.684 9.71094 c 4
 785.476 9.71094 785.267 9.71191 785.059 9.71582 c 4
 773.589 11.2295 772.197 22.4648 772.197 28.7217 c 4
 772.197 29.1377 772.204 29.5312 772.215 29.8984 c 4
 772.495 40.5127 781.017 55.627 781.017 65.8398 c 4
 781.017 67.0918 780.89 68.2705 780.602 69.3584 c 5
 712.625 68.1064 645.122 56.7051 594.98 25.0361 c 4
 528.352 -19.7441 473.253 -36.2373 426.475 -36.2373 c 4
 355.08 -36.2373 303.07 2.18164 259.046 37.0859 c 4
 136.547 125.483 28.8066 241.29 25.1426 367.021 c 4
 25.0469 370.27 25 373.529 25 376.802 c 4
 25 379.079 25.0234 381.361 25.0693 383.649 c 4
 27.8887 525.105 120.533 691.315 260.015 749.292 c 4
 301.651 766.598 364.746 795.812 422.66 795.812 c 4
 423.624 795.812 424.588 795.805 425.55 795.789 c 4
 514.546 794.27 570.659 740.697 609.858 704.374 c 5
 667.68 661.024 731.228 636.5 793.436 634.996 c 4
 793.926 634.988 794.403 634.983 794.868 634.983 c 4
 820.397 634.983 805.854 649.639 826.653 662.106 c 4
 833.728 666.615 843.853 672.105 856.202 672.105 c 4
 856.479 672.105 856.756 672.103 857.034 672.097 c 4
 862.545 672.215 871.559 672.637 871.559 674.884 c 4
 871.559 675.741 870.247 676.864 866.928 678.338 c 4
 857.734 682.138 855.596 691.962 855.596 701.026 c 4
 855.596 701.427 855.601 701.825 855.609 702.222 c 4
 855.86 714.856 861.276 728.057 863.67 733.702 c 4
 863.595 734.799 863.557 735.854 863.557 736.868 c 4
 863.557 737.125 863.559 737.379 863.562 737.631 c 4
 863.873 753.198 873.398 758.873 883.473 758.873 c 4
 883.65 758.873 883.83 758.871 884.01 758.867 c 4
 884.585 758.855 885.162 758.827 885.735 758.779 c 4
 901.305 756.484 904.624 749.331 904.624 741.051 c 4
 904.624 740.836 904.622 740.62 904.618 740.404 c 4
 904.618 740.245 l 4
 904.618 734.85 903.391 728.861 903.391 723.229 c 4
 903.391 719.517 903.925 715.96 905.698 712.832 c 4
 907.364 709.893 907.741 706.578 907.741 703.246 c 4
 907.741 700.803 907.538 698.349 907.492 696.025 c 4
 906.851 663.85 888.864 635.854 865.502 617.584 c 4
 833.334 592.427 757.289 615.316 746.744 587.506 c 4
 722.87 522.395 713.017 450.545 711.576 378.267 c 4
 711.45 371.896 711.389 365.521 711.389 359.147 c 4
 711.389 273.878 722.401 188.787 735.24 114.221 c 4
 737.645 103.436 736.49 100.322 745.986 100.093 c 4
 746.715 100.078 747.444 100.071 748.178 100.071 c 4
 759.978 100.071 772.457 101.875 782.704 101.875 c 4
 783.108 101.875 783.512 101.872 783.909 101.866 c 4
 796.104 101.623 809.265 99.8398 819.982 94.3047 c 4
 857.466 72.4678 859.228 38.3125 862.327 5.05859 c 4
 863.556 -8.11328 863.535 -30.5391 873.435 -34.333 c 4
 877.315 -35.7715 879.873 -37.5439 879.873 -39.1533 c 4
 879.873 -39.291 879.854 -39.4268 879.815 -39.5625 c 4
 875.065 -54.7109 854.602 -102.146 844.642 -102.311 c 4
 844.37 -102.28 844.262 -102.074 844.262 -101.748 c 4
 844.262 -100.605 845.594 -97.9961 845.905 -96.374 c 4
 846.71 -91.4707 847.407 -84.3975 847.407 -77.0508 c 4
 847.407 -62.1279 844.532 -46.0732 833.851 -44.7656 c 4
558.879 86.5039 m 4
 567.918 181.447 571.014 272.129 571.014 356.355 c 4
 571.014 472.667 565.109 576.672 560.795 662.601 c 4
 557.23 733.568 487.51 763.238 420.082 763.238 c 4
 357.275 763.238 296.457 737.494 292.948 695.406 c 4
 281.501 558.105 275.242 468.604 275.242 380.478 c 4
 275.242 295.433 281.07 211.666 293.687 87.4531 c 4
 299.234 32.8281 370.337 -0.958984 437.586 -0.958984 c 4
 496.811 -0.958984 553.046 25.2471 558.879 86.5039 c 4
EndSplineSet
EndChar

StartChar: B
Encoding: 66 66 22
Width: 695
VWidth: 0
Flags: HMW
LayerCount: 2
Fore
SplineSet
167.656 745.554 m 4
 225.815 772.211 288.553 805.771 347.428 805.771 c 4
 357.832 805.771 368.114 804.723 378.23 802.404 c 4
 453.272 784.159 525.724 709.918 525.724 643.448 c 4
 525.724 640.228 525.554 637.024 525.206 633.848 c 4
 518.357 571.348 468.633 522.286 427.178 489.221 c 4
 423.401 486.024 421.604 481.479 421.604 477.251 c 4
 421.604 471.971 424.413 467.194 429.675 466.188 c 4
 549.352 435.373 670.597 350.188 670.597 245.929 c 4
 670.597 245.77 670.597 245.611 670.596 245.452 c 4
 670.103 106.42 583.736 68.3984 504.254 9.03711 c 4
 477.768 -11.9141 454.745 -32.0635 412.942 -38.0537 c 4
 406.567 -38.9688 400.159 -39.376 393.825 -39.376 c 4
 359.893 -39.376 328.094 -27.6992 314.58 -19.7559 c 4
 264.259 2.41309 195.494 29.2041 137.269 29.2041 c 4
 109.861 29.2041 84.79 23.2686 65.0752 8.12012 c 5
 65.0752 8.12012 63.3066 13.6221 63.3066 16.9072 c 4
 63.3066 16.9258 63.3066 16.9463 63.3066 16.9648 c 4
 80.5771 32.8496 116.042 44.8564 116.042 44.8564 c 6
 117.051 46.958 119.084 58.6494 119.39 60.9697 c 4
 129.676 139.006 135.08 231.881 135.08 324.041 c 4
 135.08 466.789 122.115 607.824 94.2471 689.351 c 4
 93.3398 689.981 92.0811 690.251 90.5928 690.251 c 4
 83.8281 690.251 72.3389 684.702 67.7734 682.274 c 4
 53.6982 675.876 45.5674 670.975 27.9268 661.476 c 5
 27.3789 662.584 25 669.302 25 669.302 c 5
 72.5518 692.384 124.111 725.597 167.656 745.554 c 4
349.094 771.023 m 4
 343.431 771.661 336.078 772.159 327.978 772.159 c 4
 303.275 772.159 273.763 761.416 259.489 740.748 c 4
 251.74 729.527 250.904 677.676 250.904 633.584 c 4
 250.904 621.453 250.968 609.91 250.968 599.962 c 4
 250.968 579.959 251.3 562.374 251.696 549.565 c 4
 252.37 549.565 255.178 555.479 257.329 558.136 c 4
 262.364 564.357 268.233 571.206 275.942 572.152 c 4
 277.153 572.301 278.404 572.374 279.677 572.374 c 4
 289.716 572.374 301.133 567.796 305.916 559.436 c 4
 308.378 555.13 309.555 549.816 309.555 544.384 c 4
 309.555 535.646 306.51 526.601 300.874 520.956 c 4
 294.499 514.57 284.701 512.663 274.837 512.663 c 4
 267.529 512.663 260.186 513.709 254.169 514.759 c 5
 254.169 514.759 254.034 513.471 254.034 511.8 c 4
 254.034 509.599 254.266 506.731 255.34 505.272 c 4
 282.561 487.817 321.244 474.218 346.718 474.218 c 4
 347.236 474.218 347.75 474.224 348.257 474.235 c 4
 372.235 475.03 398.556 487.354 416.812 517.742 c 4
 435.17 548.297 444.12 586.214 444.12 623.356 c 4
 444.12 694.396 411.379 762.602 349.094 771.023 c 4
255.146 480.397 m 5
 253.819 479.422 253.273 474.903 253.273 469.05 c 4
 253.273 455.407 256.234 434.514 259.173 434.321 c 4
 271.374 446.397 285.847 456.655 296.925 463.586 c 4
 297.26 464.142 297.411 464.615 297.411 465.038 c 4
 297.411 465.778 296.947 466.366 296.184 466.969 c 4
 279.456 469.992 269.621 473.327 255.146 480.397 c 5
368.814 450.144 m 4
 366.646 450.227 364.481 450.267 362.325 450.267 c 4
 334.359 450.267 307.728 443.493 287.81 434.505 c 4
 278.08 430.116 257.609 417.002 257.609 400.273 c 4
 257.609 400.216 257.609 400.159 257.61 400.101 c 4
 257.61 398.421 258.078 396.947 259.042 395.783 c 4
 260.483 394.047 261.894 393.183 263.245 393.183 c 4
 265.317 393.183 267.251 395.22 268.937 399.258 c 4
 274.634 408.913 282.939 420.149 290.676 421.365 c 4
 290.964 421.396 291.242 421.411 291.515 421.411 c 4
 296.776 421.411 299.181 415.77 302.697 411.952 c 4
 307.511 406.729 312.244 401.689 312.244 393.757 c 4
 312.244 392.987 312.198 392.194 312.105 391.369 c 4
 311.247 383.748 304.695 377.947 299.508 372.082 c 4
 292.066 363.894 281.938 356.565 266.896 356.565 c 4
 263.201 356.565 259.211 357.007 254.892 357.987 c 5
 251.819 331.078 250.252 303.513 250.252 275.73 c 4
 250.252 196.781 262.901 116.091 289.6 43.8105 c 4
 292.553 31.6826 300.663 24.0527 314.125 14.7783 c 4
 338.271 -1.75391 373.257 -13.7305 405.162 -13.7305 c 4
 406.48 -13.7305 407.795 -13.71 409.102 -13.6689 c 4
 444.672 -12.543 496.833 23.3926 507.516 52.7607 c 4
 520.252 92.1182 526.039 143.075 526.039 194.486 c 4
 526.039 281.047 509.636 368.896 482.386 404.829 c 4
 462.683 430.811 396.971 449.071 368.814 450.144 c 4
EndSplineSet
EndChar

StartChar: F
Encoding: 70 70 23
Width: 908
VWidth: 0
Flags: HMW
LayerCount: 2
Fore
SplineSet
851.461 793.189 m 4
 856.642 792.293 860.638 784.308 860.638 779.733 c 4
 860.638 778.619 860.4 777.707 859.885 777.15 c 4
 790.277 701.83 788.538 621.736 769.33 532.301 c 4
 765.812 525.315 762.876 520.938 762.876 516.959 c 4
 762.876 510.69 766.001 506.15 766.001 500.024 c 4
 766.004 499.901 766.006 499.777 766.006 499.655 c 4
 766.006 493.149 761.488 488.998 761.386 482.648 c 4
 761.444 476.637 764.128 472.705 767.977 472.705 c 4
 768.115 472.705 768.254 472.71 768.395 472.72 c 4
 769.511 472.874 769.853 473.4 769.853 474.078 c 4
 769.853 475.1 769.073 476.467 769.012 477.42 c 4
 769.012 486.45 777.467 507.156 784.317 507.993 c 4
 785.656 508.157 786.791 508.224 787.754 508.224 c 4
 791.719 508.224 792.76 507.089 793.062 506.896 c 4
 794.373 507.347 795.821 507.631 797.259 507.631 c 4
 800.405 507.631 803.503 506.27 805.002 502.289 c 4
 806.916 501.67 807.852 499.984 807.852 496.749 c 4
 807.852 494.402 807.358 491.241 806.393 487.081 c 4
 806.036 485.539 805.232 483.696 805.232 482.885 c 4
 805.232 482.62 805.317 482.466 805.53 482.466 c 4
 805.558 482.466 805.587 482.468 805.618 482.473 c 4
 805.771 482.473 l 4
 816.867 482.473 820.651 480.916 820.651 477.146 c 4
 820.651 473.801 817.672 468.712 814.178 461.424 c 4
 806.145 444.674 796.277 434.664 780.369 434.606 c 4
 772.104 434.606 754.955 441.258 748.237 446.522 c 5
 728.805 343.845 718.653 244.354 718.653 151.366 c 4
 718.653 110.166 720.646 70.2432 724.707 31.8848 c 4
 726.557 14.4443 736.144 -3.73828 748.782 -3.73828 c 4
 749.601 -3.73828 750.432 -3.66113 751.275 -3.50391 c 4
 755.051 -2.79883 756.476 -0.56543 756.476 2.42188 c 4
 756.476 10.5605 745.907 24.2969 743.479 28.0098 c 4
 741.971 29.5176 741.232 33.4023 741.232 37.4678 c 4
 741.232 41.2344 741.866 45.1553 743.116 47.4893 c 4
 744.135 49.3916 747.209 55.2471 747.425 64.9873 c 4
 747.485 67.7832 747.521 70.1709 747.521 72.2217 c 4
 747.521 80.9609 746.886 83.5322 744.967 85.2666 c 4
 740.627 89.9082 738.676 97.6582 738.676 106.06 c 4
 738.676 115.498 741.14 125.754 745.439 133.333 c 4
 747.422 136.828 750.602 141.573 756.17 145.607 c 4
 760.054 148.421 766.622 150.722 767.438 150.722 c 4
 769.759 150.722 785.712 141.737 788.952 137.959 c 4
 796.057 129.543 799.71 118.678 799.71 107.526 c 4
 799.71 98.917 797.533 90.1396 793.089 82.1895 c 4
 791.081 79.9736 789.943 74.8887 789.943 70.9355 c 4
 789.943 67.9736 790.583 65.6484 791.977 65.6484 c 4
 800.418 67.3252 821.229 91.9746 832.65 99.5508 c 4
 840.684 105.627 848.773 108.518 856.079 108.518 c 4
 869.718 108.518 880.619 98.4414 883.286 80.208 c 4
 883.315 79.7236 883.325 79.2373 883.325 78.752 c 4
 883.325 63.8311 870.793 48.416 848.15 47.4385 c 4
 844.209 47.6045 840.671 47.7441 837.435 47.7441 c 4
 826.12 47.7441 818.482 46.0273 810.105 37.5684 c 4
 807.854 34.958 806.045 32.792 806.045 31.4355 c 4
 806.045 31.2197 806.091 31.0244 806.189 30.8516 c 4
 807.739 28.0996 809.729 27.207 811.85 27.207 c 4
 815.614 27.207 819.791 30.0234 822.644 30.252 c 4
 830.681 30.252 837.95 28.0732 848.718 24.1885 c 4
 856.051 22.3193 863.867 19.6152 870.225 15.5723 c 4
 875.964 10.7432 875.422 9.31738 875.973 4.65918 c 4
 875.92 -1.34082 871.001 -5.67285 868.933 -10.4629 c 4
 868.889 -10.5654 868.868 -10.6729 868.868 -10.7852 c 4
 868.868 -12.0723 871.507 -13.9902 871.507 -15.2236 c 4
 871.507 -15.3369 871.484 -15.4453 871.436 -15.5459 c 4
 870.437 -17.6123 868.314 -18.043 865.942 -18.043 c 4
 864.254 -18.043 862.438 -17.8252 860.812 -17.8252 c 4
 859.547 -17.8252 858.396 -17.957 857.51 -18.4268 c 4
 856.216 -19.2129 855.866 -20.3174 855.866 -21.5049 c 4
 855.866 -22.8994 856.349 -24.4121 856.349 -25.668 c 4
 856.349 -26.9619 855.837 -27.9805 853.747 -28.3105 c 4
 853.34 -28.5508 852.629 -28.6611 851.679 -28.6611 c 4
 843.206 -28.6611 819.859 -18.4795 815.692 -13.1621 c 4
 813.521 -10.4316 810.208 -9.13867 806.652 -9.13867 c 4
 802.389 -9.13867 797.777 -10.998 794.368 -14.4717 c 4
 785.292 -21.3115 771.402 -24.5801 760.292 -24.5801 c 4
 758.894 -24.5801 757.54 -24.5283 756.246 -24.4248 c 4
 688.716 -19.0615 603.992 -18.3838 503.63 -18.3838 c 4
 468.404 -18.7207 245.035 -19.5156 111.785 -22.3916 c 4
 111.581 -22.165 111.488 -19.6787 111.488 -19.3818 c 4
 111.488 -15.0303 131.067 -5.80859 142.443 -4.39746 c 4
 182.125 6.99121 196.191 40.4678 223.199 46.6826 c 4
 226.334 47.29 229.717 47.6143 233.164 47.6143 c 4
 244.511 47.6143 256.559 44.1045 262.8 35.6523 c 4
 265.716 31.6992 267.09 26.4072 267.09 21.0225 c 4
 267.09 14.8545 265.286 8.56738 261.934 4.0498 c 4
 253.78 -6.94434 226.248 -6.19727 222.982 -8.94043 c 4
 222.982 -10.2412 230.354 -11.0938 243.458 -11.1396 c 4
 265.58 -11.0381 295.814 -11.8154 300.878 8.2959 c 4
 309.588 50.8242 343.513 295.034 343.513 491.255 c 4
 343.513 631.143 326.271 746.638 270.362 747.284 c 4
 269.995 747.288 269.631 747.29 269.276 747.29 c 4
 257.225 747.29 253.029 744.844 253.029 740.893 c 4
 253.029 732.094 290.323 745.879 290.323 709.666 c 4
 290.323 708.64 290.293 707.573 290.232 706.467 c 4
 288.809 680.834 256.877 675.939 242.988 675.878 c 4
 241.56 675.878 240.148 675.943 238.765 676.073 c 4
 169.589 682.542 118.395 769.167 56.0049 783.031 c 4
 43.3438 785.68 25 788.752 25 791.391 c 4
 25 792.468 28.0596 793.474 35.8135 794.349 c 4
 211.862 792.854 412.569 791.936 580.724 791.936 c 4
 689.918 791.936 785.386 792.322 851.461 793.189 c 4
489.174 742.137 m 5
 479.951 742.137 469.876 734.776 469.876 726.062 c 6
 469.876 725.971 l 6
 469.188 703.297 468.858 680.286 468.858 657.183 c 4
 468.858 592.08 471.478 526.244 476.064 465.176 c 4
 476.064 458.241 480.942 456.307 486.407 456.275 c 4
 574.586 458.204 655.069 458.307 734.646 459.536 c 5
 736.53 474.471 739.25 487.827 739.25 499.541 c 4
 739.351 500.369 739.397 501.154 739.397 501.903 c 4
 739.397 511.411 731.779 514.919 730.303 520.658 c 4
 731.11 530.696 731.521 540.274 731.521 549.419 c 4
 731.521 669.286 660.915 714.57 489.174 742.137 c 5
679.412 308.105 m 5
 667.008 368.479 569.569 391.332 501.866 391.332 c 4
 494.905 391.332 488.26 391.091 482.054 390.625 c 4
 478.87 390.625 477.781 389.181 475.98 382.542 c 4
 475.965 377.375 475.957 372.182 475.957 366.961 c 4
 475.957 247.617 480.523 110.534 497.174 -3.20996 c 5
 506.215 -3.07031 515.297 -3.00977 524.395 -3.00977 c 4
 583.971 -3.00977 644.308 -5.60742 699.083 -5.6875 c 4
 699.856 -5.6875 700.244 -5.3877 700.464 -4.65527 c 4
 686.318 88.6387 699.021 203.043 679.413 308.106 c 5
 679.413 308.105 l 5
 679.412 308.105 l 5
EndSplineSet
EndChar

StartChar: G
Encoding: 71 71 24
Width: 925
VWidth: 0
Flags: HMW
LayerCount: 2
Fore
SplineSet
526.158 795.646 m 1
 624.566 795.632 710.073 753.872 771.814 714.481 c 0
 794.78 698.812 835.196 689.533 872.825 689.533 c 0
 906.409 689.533 937.772 696.925 952.522 713.762 c 0
 952.969 715.221 953.171 716.508 953.171 717.634 c 0
 953.171 721.988 950.14 723.914 946.464 723.914 c 0
 942.953 723.914 938.857 722.156 936.259 719.078 c 0
 931.056 715.61 923.122 713.572 915.22 713.572 c 0
 909.366 713.572 903.529 714.692 898.83 717.179 c 0
 887.357 723.248 877.474 737.099 877.474 750.142 c 0
 877.474 750.804 877.498 751.464 877.552 752.121 c 0
 878.878 768.826 893.609 787.671 910.143 790.402 c 0
 912.402 790.775 914.666 790.958 916.922 790.958 c 0
 936.412 790.958 953.323 783.617 964.916 762.687 c 0
 967.575 757.628 970.929 745.93 970.929 739.611 c 0
 971.759 731.762 971.066 721.513 976.275 715.943 c 0
 978.679 713.867 979.616 711.637 979.616 709.418 c 0
 979.616 701.733 968.34 694.197 967.754 693.743 c 0
 966.129 692.364 962.242 690.223 959.112 688.984 c 0
 924.507 675.745 879.405 670.394 833.936 670.394 c 0
 816.553 670.394 799.117 671.175 782.193 672.598 c 0
 680.536 681.138 557.614 689.776 457.829 689.776 c 0
 380.179 689.776 271.271 678.726 252.049 606.356 c 0
 227.089 512.384 216.72 427.515 216.72 349.273 c 0
 216.72 238.53 237.492 141.064 267.071 49.8604 c 0
 278.376 15.8408 332.829 -9.86523 383.402 -9.86523 c 0
 424.569 -9.86523 463.167 7.16797 473.833 50.6143 c 0
 493.06 128.931 501.714 204.28 501.714 278.58 c 0
 501.714 373.541 487.578 466.789 463.314 562.327 c 1
 455.584 565.972 451.86 569.399 448.13 569.399 c 0
 446.23 569.399 444.329 568.511 441.896 566.309 c 0
 439.653 564.001 432.787 562.688 428.991 562.688 c 0
 428.728 562.688 428.479 562.694 428.249 562.708 c 0
 427.861 562.802 427.525 562.846 427.234 562.846 c 0
 426.127 562.846 425.678 562.21 425.678 561.227 c 0
 425.678 559.296 427.409 556.019 429.29 553.556 c 0
 435.876 547.917 438.173 542.716 438.173 537.738 c 0
 438.173 526.257 425.949 515.959 425.949 504.197 c 0
 425.949 499.157 428.193 493.85 434.604 488.064 c 0
 441.729 482.212 446.673 475.663 446.673 468.183 c 0
 446.673 463.662 444.866 458.801 440.646 453.549 c 0
 436.521 448.412 431.551 444.592 426.961 437.399 c 0
 415.464 415.788 402.657 409.248 367.569 399.813 c 1
 380.208 411.774 394.919 422.908 394.977 438.39 c 0
 394.977 448.705 378.792 453.003 361.741 463.506 c 0
 348.287 470.147 345.667 487.554 345.667 502.141 c 0
 345.667 503.632 345.693 505.095 345.738 506.512 c 0
 347.496 560.77 384.46 596.254 433.996 596.254 c 0
 447.361 596.254 461.642 593.671 476.392 588.179 c 0
 588.981 542.547 652.787 429.662 652.787 324.897 c 0
 652.787 323.468 652.774 322.039 652.75 320.612 c 0
 650.851 206.849 584.608 96.6592 502.715 20.4795 c 0
 470.802 -9.20703 426.235 -33.752 382.601 -33.752 c 0
 379.188 -33.752 375.78 -33.6006 372.385 -33.291 c 0
 210.749 -18.5479 25 196.699 25 330.876 c 0
 25 332.558 25.0293 334.227 25.0889 335.882 c 1
 38.2285 518.6 166.052 600.626 278.244 699.146 c 0
 363.013 773.053 449.585 795.644 526.113 795.644 c 2
 526.158 795.644 l 1
 526.158 795.646 l 1
EndSplineSet
EndChar

StartChar: b
Encoding: 98 98 25
Width: 339
VWidth: 0
Flags: HMW
LayerCount: 2
Fore
SplineSet
170.932 -40.2578 m 4
 127.965 -0.649414 91.7217 23.3174 27.2725 30.7021 c 4
 25.2588 30.7021 23.8428 31.4727 23.1904 32.8682 c 4
 23.0576 33.1523 23 33.4834 23 33.8281 c 4
 23 34.7578 23.418 35.7861 23.9072 36.2764 c 4
 48.8525 60.0957 61.4238 67.8857 65.1953 104.753 c 4
 66.5381 169.873 67.21 236.335 67.21 304.14 c 4
 67.21 378.658 66.2031 445.457 64.1885 504.535 c 4
 64.1885 505.207 63.8525 505.542 63.1816 505.542 c 4
 57.1396 502.186 45.7266 496.479 28.9434 488.423 c 4
 27.6006 487.751 26.5938 487.416 25.9229 487.416 c 4
 25.251 487.416 24.915 487.751 24.915 488.423 c 4
 24.915 491.108 26.2578 493.122 28.9434 494.465 c 4
 71.2373 517.291 91.3779 534.41 109.504 545.822 c 4
 139.714 565.291 162.204 584.424 176.974 603.222 c 4
 180.33 607.922 183.352 610.271 186.037 610.271 c 4
 188.722 608.929 190.064 607.25 190.064 605.236 c 4
 190.064 603.223 189.393 601.544 188.051 600.201 c 6
 169.925 578.047 l 5
 165.225 553.879 161.868 490.437 159.854 387.722 c 4
 159.854 386.38 160.189 385.708 160.861 385.708 c 4
 193.458 409.066 203.333 426.654 212.957 459.986 c 4
 213.952 461.645 216.244 466.271 219.16 466.271 c 4
 219.196 466.271 219.232 466.271 219.269 466.27 c 4
 222.359 466.147 223.967 463.92 225.31 459.22 c 4
 238.162 426.156 279.753 393.23 308.892 391.75 c 6
 313.927 391.75 l 5
 316.947 389.736 l 5
 316.947 388.729 l 6
 316.947 387.387 315.269 384.869 311.913 381.177 c 4
 308.556 377.484 306.542 374.631 305.871 372.617 c 4
 305.868 370.755 305.867 368.896 305.867 367.04 c 4
 305.867 283.284 308.672 206.324 308.672 128.233 c 4
 308.672 96.2725 308.202 64.123 306.878 31.2402 c 4
 306.878 27.8838 304.166 26.7246 298.821 26.2051 c 4
 251.849 21.6426 202.841 -9.87012 176.974 -39.25 c 6
 176.974 -39.25 175.369 -42.1309 173.952 -42.2715 c 4
 173.873 -42.2793 173.796 -42.2832 173.723 -42.2832 c 4
 172.682 -42.2832 172.186 -41.5117 170.932 -40.2578 c 4
212.219 49.3662 m 4
 215.575 49.3662 217.254 54.4014 217.254 64.4717 c 6
 217.254 65.4785 l 5
 220.878 117.053 223.167 163.283 223.167 210.315 c 4
 223.167 244.108 221.985 278.316 219.269 315.218 c 4
 219.269 323.273 216.583 329.315 211.212 333.344 c 4
 196.442 343.414 181.002 349.791 164.89 352.477 c 4
 159.518 352.477 156.833 350.798 156.833 347.442 c 4
 156.833 332.002 156.161 301.119 154.819 254.797 c 4
 153.477 208.475 152.806 175.243 152.806 155.104 c 4
 152.806 107.438 155.49 80.9189 160.861 75.5488 c 4
 174.288 62.1221 191.407 53.3945 212.219 49.3662 c 4
EndSplineSet
EndChar

StartChar: c
Encoding: 99 99 26
Width: 305
VWidth: 0
Flags: HMW
LayerCount: 2
Fore
SplineSet
28.5801 36.3564 m 4
 27.1992 36.5439 26.6523 37.333 26.6523 38.5986 c 4
 26.6523 39.2705 26.8066 40.0771 27.0723 41.001 c 4
 32.0664 58.3613 38.9707 104.546 39.0342 135.223 c 4
 39.7441 144.727 40.0566 154.211 40.0566 163.656 c 4
 40.0566 232.393 23.4961 299.097 23.002 356.665 c 4
 23.001 356.785 23 356.904 23 357.022 c 4
 23 364.126 24.8721 367.519 28.0117 368.688 c 4
 98.3418 394.903 140.721 424.989 159.164 463.192 c 4
 159.454 463.794 161.508 467.222 163.528 467.461 c 4
 163.793 467.492 164.045 467.508 164.286 467.508 c 4
 166.789 467.508 168.165 465.833 171.339 462.795 c 4
 200.738 434.644 231.898 421.021 277.51 415.782 c 4
 280.828 415.401 282.52 414.947 282.52 413.277 c 4
 264.02 394.845 246.558 359.469 245.445 324.601 c 5
 205.365 330.612 166.955 345.309 130.216 368.688 c 4
 129.548 369.356 128.879 369.69 128.212 369.69 c 4
 126.875 369.69 126.521 368.336 126.208 365.683 c 4
 120.286 315.617 116.742 264.741 116.742 216.938 c 4
 116.742 185.088 118.315 154.603 121.809 126.629 c 4
 124.181 93.9346 178.12 65.5869 210.877 62.5781 c 4
 214.449 62.1494 217.846 61.3945 218.392 58.0684 c 4
 218.426 57.8604 218.442 57.6436 218.442 57.4219 c 4
 218.442 54.834 216.119 51.3994 211.378 49.0508 c 4
 170.515 28.8154 152.896 -2.30566 138.231 -38.123 c 4
 137.057 -40.1328 134.337 -41.5361 131.983 -41.5361 c 4
 130.312 -41.5361 128.826 -40.8281 128.212 -39.125 c 4
 115.561 -4.07422 69.8193 32.957 28.5801 36.3564 c 4
EndSplineSet
EndChar

StartChar: g
Encoding: 103 103 27
Width: 505
VWidth: 0
Flags: HMW
LayerCount: 2
Fore
SplineSet
299.593 460.33 m 0
 300.645 460.278 302.272 458.37 302.82 457.09 c 0
 320.942 418.969 374.343 382.373 399.308 368.861 c 0
 400.737 368.306 403.205 367.581 403.603 362.946 c 0
 403.788 360.797 403.861 358.438 403.861 355.958 c 0
 403.861 346.474 402.791 335.214 402.791 327.134 c 0
 402.791 326.145 402.807 325.202 402.843 324.317 c 1
 407.391 325.429 413 325.869 419.026 325.869 c 0
 435.987 325.869 456.257 322.38 465.491 320.53 c 1
 467.4 325.027 472.082 329.54 474.148 329.54 c 0
 474.663 329.54 475.016 329.26 475.123 328.63 c 0
 475.665 325.444 477.911 323.129 477.911 320.441 c 0
 477.911 319.935 477.831 319.415 477.646 318.873 c 0
 461.277 256.464 446.89 150.22 446.89 98.3945 c 0
 446.89 94.6377 446.965 91.166 447.121 88.0186 c 1
 448.712 81.8389 453.081 79.4736 457.408 79.4736 c 0
 462.709 79.4736 467.948 83.0225 467.948 87.459 c 0
 467.948 90.4346 465.594 93.8086 459.325 96.7812 c 0
 458.138 96.8662 455.774 97.0029 454.073 97.0879 c 0
 452.018 97.1895 451.331 97.2461 451.331 98.8027 c 0
 451.331 99.5645 451.496 100.687 451.745 102.35 c 0
 453.008 110.766 457.427 115.355 464.12 115.355 c 0
 464.901 115.355 465.713 115.293 466.555 115.167 c 0
 471.479 114.428 474.642 109.033 477.608 105.002 c 0
 480.283 101.367 481.989 95.9521 481.989 90.0146 c 0
 481.989 81.1729 478.208 71.1748 468.214 64.1797 c 0
 464.506 61.584 459.983 60.1973 455.286 60.1973 c 0
 445.381 60.1973 434.698 66.3643 429.231 80.3682 c 0
 428.102 85.9844 427.7 92.0078 427.7 98.2197 c 0
 427.7 109.507 429.026 121.415 429.719 132.631 c 0
 431.236 157.234 434.631 188.385 438.126 206.102 c 0
 441.127 221.311 443.759 232.37 443.759 241.455 c 0
 443.759 247.838 442.459 253.246 439.075 258.432 c 1
 434.469 260.198 423.378 262.7 413.718 262.7 c 0
 406.485 262.7 400.055 261.298 397.747 257.134 c 1
 394.671 224.27 392.747 174.12 392.747 127.799 c 0
 392.747 107.998 393.099 88.8965 393.862 72.1436 c 0
 393.852 72.0449 393.847 71.9434 393.847 71.8389 c 0
 393.847 63.5 425.306 36.3643 431.62 31.6689 c 0
 438.136 27.8135 443.213 26.0332 449.605 26.0332 c 0
 453.892 26.0332 458.769 26.833 465.068 28.3438 c 0
 465.748 28.3438 466.042 27.7012 466.042 26.6846 c 0
 466.042 23.6631 463.447 17.3359 460.661 14.7344 c 1
 460.163 14.7471 459.667 14.7539 459.172 14.7539 c 0
 405.079 14.7539 365.894 -62.3535 365.894 -112.266 c 0
 365.894 -113.599 365.922 -114.913 365.979 -116.205 c 0
 367.331 -118.857 368.015 -121.027 368.015 -122.886 c 0
 368.015 -125.197 366.957 -127.028 364.812 -128.708 c 0
 362.187 -130.763 362.953 -132.535 362.009 -137.89 c 0
 360.737 -145.114 358.362 -147.441 351.408 -147.909 c 0
 351.184 -147.924 350.962 -147.932 350.741 -147.932 c 0
 345.646 -147.932 341.581 -143.943 340.47 -137.994 c 0
 340.229 -136.7 340.104 -135.635 340.104 -134.711 c 0
 340.104 -133.163 340.455 -132.014 341.199 -130.859 c 0
 342.189 -129.325 342.929 -127.905 342.929 -126.438 c 0
 342.929 -125.064 342.282 -123.649 340.59 -122.061 c 0
 338.497 -120.094 330.556 -118.369 324.305 -117.196 c 0
 317.606 -115.94 294.96 -114.408 267.934 -114.408 c 0
 247.484 -114.408 224.528 -115.286 204.076 -117.824 c 0
 197.83 -118.6 199 -126.5 196.163 -131.115 c 0
 193.374 -135.654 189.851 -137.384 186.448 -137.384 c 0
 180.13 -137.384 174.23 -131.415 174.23 -126.391 c 0
 174.23 -125.175 174.576 -124.014 175.346 -123.006 c 0
 175.958 -122.269 176.689 -118.465 176.972 -114.554 c 0
 176.716 -102.367 172.272 -86.9912 159.88 -77.1055 c 0
 156.563 -74.46 149.982 -75.3721 146.3 -72.7432 c 0
 142.301 -69.8877 142.69 -61.2861 137.9 -59.1572 c 0
 136.496 -58.5332 134.562 -58.3311 132.385 -58.3311 c 0
 128.414 -58.3311 123.637 -59.002 119.802 -59.002 c 0
 118.111 -59.002 116.604 -58.8711 115.429 -58.4951 c 0
 102.938 -54.5 90.2402 -52.209 79.0518 -52.209 c 0
 63.8262 -52.209 51.3916 -56.4521 46.0674 -66.417 c 0
 45.5508 -67.8535 45.3242 -69.0146 45.3242 -70.0049 c 0
 45.3242 -73.2021 47.6836 -74.6035 50.2373 -77.6553 c 0
 57.3906 -85.9424 60.1465 -92.0371 60.1465 -96.7627 c 0
 60.1465 -109.514 40.0762 -112.287 32.21 -121.223 c 0
 32.1445 -124.163 28.959 -124.537 28.959 -127.048 c 0
 28.959 -127.46 29.0449 -127.93 29.2451 -128.479 c 0
 34.2236 -140.837 35.1338 -151.175 35.1338 -157.843 c 0
 35.1338 -159.27 35.0918 -160.528 35.04 -161.603 c 0
 34.3291 -176.185 15.1191 -185.962 1.31738 -188.955 c 0
 -5.16797 -190.362 -10.2783 -191.602 -15.7588 -193.278 c 0
 -15.9619 -193.341 -16.168 -193.369 -16.373 -193.369 c 0
 -17.5381 -193.369 -18.6592 -192.459 -18.9365 -191.737 c 0
 -18.9795 -191.601 -19 -191.465 -19 -191.33 c 0
 -19 -185.75 16.9473 -181.079 17.8867 -166.663 c 0
 17.9414 -165.832 17.9678 -164.991 17.9678 -164.143 c 0
 17.9678 -147.958 8.44824 -129.01 2.35547 -118.938 c 0
 -4.32324 -107.602 -7.7334 -96.7363 -7.7334 -86.9023 c 0
 -7.7334 -60.1182 17.5645 -40.9785 71.0312 -40.7666 c 0
 152.989 -36.9707 238.169 -39.1074 350.601 -37.4697 c 0
 356.867 -36.9541 360.901 -32.1309 362.38 -27.1162 c 0
 362.609 -26.3359 362.72 -25.6113 362.72 -24.9014 c 0
 362.72 -22.6201 361.575 -20.499 359.573 -17.2178 c 0
 348.996 0.119141 306.492 12.8008 298.405 36.7617 c 0
 297.976 38.7188 297.34 39.3457 296.699 39.3457 c 0
 296.359 39.3457 296.019 39.1689 295.705 38.9209 c 0
 293.681 37.3184 292.325 36.0879 290.528 34.8115 c 0
 268.903 19.4502 255.896 2.0332 240.397 -26.9326 c 0
 238.915 -29.1221 237.2 -30.3418 235.296 -30.3418 c 0
 232.445 -30.3418 229.17 -27.6094 225.613 -21.3096 c 0
 204.739 14.541 175.743 23.127 136.75 23.5596 c 0
 133.352 23.835 132.21 24.5234 132.21 25.8369 c 0
 132.21 27.0283 133.15 28.7344 134.198 31.1094 c 0
 138.646 54.8711 140.357 92.042 140.357 133.147 c 0
 140.357 212.769 133.939 307.149 128.57 347.415 c 0
 129.768 350.533 138.141 352.536 144.153 352.874 c 0
 195.58 356.669 258.226 409.271 294.759 456.451 c 0
 295.824 458.271 298.168 460.332 299.529 460.332 c 0
 299.551 460.332 299.572 460.331 299.593 460.33 c 0
234.849 366.551 m 0
 234.628 366.582 234.398 366.597 234.162 366.597 c 0
 230.097 366.597 223.881 362.146 223.881 357.062 c 0
 223.881 356.605 223.931 356.144 224.037 355.679 c 0
 226.169 328.819 226.774 300.781 226.774 271.982 c 0
 226.774 234.091 225.726 194.885 225.726 155.318 c 0
 225.726 138.904 225.906 122.429 226.417 105.959 c 0
 229.055 86.0889 280.414 60.7383 303.08 56.7461 c 1
 307.144 59.3594 307.145 68.0488 307.581 70.5234 c 0
 306.494 89.458 306.122 108.694 306.122 128.087 c 0
 306.122 170.036 307.862 212.715 307.862 254.639 c 0
 307.862 276.311 307.397 297.781 305.986 318.846 c 1
 288.264 337.112 243.03 365.401 234.849 366.551 c 0
EndSplineSet
EndChar

StartChar: U
Encoding: 85 85 28
Width: 859
VWidth: 0
Flags: HMW
LayerCount: 2
Fore
SplineSet
789.364 -34.75 m 4
 769.494 -15.1729 748.626 -7.32617 734.314 -7.32617 c 4
 733.811 -7.27734 733.318 -7.25488 732.836 -7.25488 c 4
 722.601 -7.25488 717.172 -17.8535 708.018 -17.9961 c 4
 708.007 -17.9961 707.997 -17.9961 707.985 -17.9961 c 4
 686.695 -17.9961 688.688 9.90039 672.816 10.2295 c 4
 662.823 11.252 649.328 13.0469 636.511 13.0469 c 4
 624.019 13.0469 612.169 11.3418 604.83 5.55566 c 4
 592.206 -4.39648 580.749 -15.5186 565.4 -21.8906 c 4
 544.914 -30.3955 521.001 -37.5479 495.675 -37.5479 c 4
 494.88 -37.5479 494.083 -37.542 493.284 -37.5293 c 4
 420.901 -36.2314 344.396 8.74902 289.904 47.5479 c 4
 109.37 176.089 25 301.931 25 420.777 c 4
 25 544.995 117.169 661.57 288.039 765.598 c 5
 279.551 768.694 271.405 769.748 263.315 769.748 c 4
 255.447 769.748 247.632 768.752 239.598 767.667 c 4
 225.496 765.992 228.577 743.232 220.361 732.812 c 4
 211.825 721.986 200.521 718.666 189.271 718.666 c 4
 186.172 718.666 183.078 718.918 180.047 719.333 c 4
 167.886 721.005 155.333 731.409 149.563 740.001 c 4
 130.578 768.283 100.493 776.082 64.1982 785.834 c 4
 63.0537 786.179 62.5625 786.588 62.5625 787.032 c 4
 62.5625 789.229 74.5684 792.257 78.9062 792.257 c 4
 79.0244 792.256 l 4
 205.071 790.588 321.019 789.697 444.189 789.697 c 4
 562.265 789.697 686.979 790.516 833.592 792.25 c 4
 833.881 791.761 834.01 791.134 834.01 790.42 c 4
 834.01 786.506 830.152 780.021 827.839 779.766 c 4
 823.267 780.422 819.194 780.692 815.42 780.692 c 4
 814.971 780.693 l 4
 777.995 780.693 738.899 769.593 738.354 725.881 c 4
 735.221 674.224 728.778 527.056 728.778 377.578 c 4
 728.778 240.616 734.187 101.716 752.505 32.5732 c 4
 759.792 5.06738 808.554 -26.7471 808.554 -38.5352 c 4
 808.554 -41.0059 806.812 -42.4102 802.746 -42.4102 c 4
 796.345 -42.2451 794.397 -39.707 789.364 -34.75 c 4
621.615 711.021 m 4
 620.861 733.604 536.347 745.695 453.17 745.695 c 4
 372.363 745.695 292.819 734.284 292.567 709.999 c 4
 291.87 643.085 289.521 546.104 289.521 447.704 c 4
 289.521 280.543 296.302 109.284 329.486 74.3604 c 4
 369.992 31.7324 441.346 -1.60449 500.249 -1.60449 c 4
 534.191 -1.60449 564.001 9.46387 581.393 36.2002 c 4
 617.014 90.9619 623.229 376.336 623.229 558.863 c 4
 623.229 637.849 622.064 697.575 621.615 711.021 c 4
EndSplineSet
EndChar

StartChar: H
Encoding: 72 72 29
Width: 920
VWidth: 0
Flags: HMW
LayerCount: 2
Fore
SplineSet
787.634 791.125 m 5
 790.903 776.851 l 5
 767 776.948 742.837 776.989 718.626 776.989 c 4
 619.237 776.989 519.07 776.293 433.015 776.067 c 5
 431.922 728.68 431.104 676.66 430.942 631.562 c 5
 489.279 664.822 547.301 681.255 602.137 681.255 c 4
 604.92 681.255 607.695 681.213 610.464 681.129 c 4
 691.191 677.371 755.793 647.427 802.275 602.722 c 4
 851.161 555.702 880.003 492.355 886.477 425.979 c 4
 887.406 416.445 887.875 406.85 887.875 397.231 c 4
 887.875 354.568 878.664 311.451 859.645 271.315 c 4
 841.17 233.058 813.868 206.845 789.503 178.26 c 4
 778.896 165.817 768.845 152.927 760.323 138.396 c 4
 746.774 114.811 738.846 92.0566 738.846 68.3145 c 4
 738.846 53.5947 741.894 38.4941 748.542 22.5811 c 4
 749.714 20.1484 751.177 19.3682 753.786 19.3604 c 4
 766.093 19.7607 763.651 35.2891 767.879 43.9375 c 4
 774.9 58.3008 786.958 68.4727 798.96 68.4727 c 4
 810.057 68.4727 821.107 59.7773 828.089 37.6641 c 4
 830.591 30.3418 834.502 22.1934 840.349 16.5234 c 4
 859.296 -8.96094 895.814 -7.13184 895.814 -17.0918 c 4
 895.814 -18.4912 895.094 -20.124 893.502 -22.0977 c 4
 890.64 -25.2246 882.024 -25.7637 872.558 -25.7637 c 4
 867.571 -25.7637 862.35 -25.6123 857.608 -25.6123 c 4
 855.161 -25.6123 852.841 -25.6523 850.749 -25.7744 c 4
 691.106 -25.0459 530.693 -24.2812 377.695 -24.2812 c 4
 253.821 -24.2812 134.808 -24.7822 25 -26.21 c 5
 25.4893 -22.0098 29.9316 -13.1348 33.7002 -12.334 c 4
 108.417 -2.10645 129.802 53.6201 196.982 53.6201 c 4
 198.682 53.6201 200.411 53.584 202.171 53.5107 c 4
 208.766 53.2363 214.462 51.7334 219.188 47.5732 c 4
 222.783 44.4102 227.231 38.2559 227.231 32.6377 c 4
 227.231 31.9873 227.171 31.3428 227.043 30.7119 c 4
 224.082 16.0791 193.834 4.18555 193.834 0.663086 c 4
 193.834 -0.0478516 195.183 -0.423828 198.424 -0.423828 c 4
 201.806 -0.423828 207.248 -0.0146484 215.37 0.855469 c 4
 234.149 2.33301 264.424 2.59668 265.506 39.8184 c 4
 268.452 84.7852 269.748 141.885 269.748 205.242 c 4
 269.748 390.281 258.693 628.688 245.436 774.058 c 5
 193.809 777.136 174.172 776.971 107.737 779.989 c 5
 109.396 791.717 l 5
 145.271 791.021 198.213 790.796 260.563 790.796 c 4
 373.863 790.796 518.232 791.538 647.72 791.538 c 4
 697.415 791.538 744.919 791.429 787.634 791.125 c 5
699.366 257.043 m 4
 699.366 371.979 696.436 485.972 692.777 541.567 c 4
 689.113 564.285 683.419 586.836 669.348 606.02 c 4
 659.717 619.15 646.161 630.704 626.65 639.653 c 4
 613.976 645.468 598.843 647.957 581.618 647.957 c 4
 569.308 647.957 555.929 646.686 541.617 644.447 c 4
 523.147 641.559 502.865 636.415 480.643 628.628 c 4
 464.967 623.137 447.407 617.732 432.421 605.782 c 5
 429.493 538.822 428.107 472.028 428.107 405.785 c 4
 428.107 264.154 434.443 125.039 445.584 -7.80176 c 5
 457.868 -7.8291 469.973 -7.84473 481.933 -7.84473 c 4
 555.042 -7.84473 622.729 -7.24512 692.748 -4.82617 c 5
 697.469 86.1123 699.305 177.11 699.366 257.043 c 4
EndSplineSet
EndChar

StartChar: I
Encoding: 73 73 30
Width: 824
VWidth: 0
Flags: HMW
LayerCount: 2
Fore
SplineSet
32.8398 790.378 m 5
 126.37 789.521 224.592 789.216 324.879 789.216 c 4
 481.271 789.216 642.685 789.959 799.154 790.516 c 4
 799.632 790.039 799.843 789.405 799.843 788.693 c 4
 799.843 785.701 796.113 781.303 792.619 781.172 c 4
 707.604 766.741 741.584 726.327 667.479 683.015 c 4
 657.942 677.441 645.052 673.916 631.536 673.916 c 4
 621.116 673.916 610.325 676.01 600.41 680.875 c 4
 589.039 686.456 579.252 698.281 579.252 712.067 c 4
 579.252 725.896 589.1 741.698 617.071 755.146 c 4
 619.082 756.111 619.943 756.875 619.943 757.438 c 4
 619.943 758.247 618.158 758.645 615.444 758.645 c 4
 610.888 758.645 603.715 757.524 597.972 755.353 c 4
 568.495 745.209 536.881 720.986 534.336 682.201 c 4
 530.21 619.357 527.12 542.021 527.12 485.231 c 4
 527.12 475.865 527.204 467.058 527.382 458.968 c 5
 535.274 457.547 543.167 457.354 550.762 457.354 c 4
 553.618 457.354 556.435 457.382 559.191 457.382 c 4
 565.756 457.382 571.992 457.227 577.69 456.176 c 4
 591.789 454.031 594.891 450.49 594.891 442.849 c 4
 594.891 432.792 588.596 424.234 587.429 423.929 c 4
 575.373 420.774 544.349 422.564 529.302 420.986 c 4
 528.112 419.703 527.748 418.052 527.748 416.422 c 4
 527.748 413.836 528.668 411.302 528.668 410.377 c 4
 528.668 410.187 528.664 409.969 528.664 409.734 c 4
 528.664 408.048 528.856 405.442 531.98 405.442 c 4
 537.93 404.465 546.307 404.079 555.719 404.079 c 4
 576.035 404.079 601.179 405.87 617.175 407.369 c 4
 620.735 407.369 624.108 406.518 629.383 398.217 c 4
 631.608 394.714 632.735 391.571 632.735 388.58 c 4
 632.735 384.534 630.673 380.763 626.479 376.745 c 4
 602.298 371.257 557.235 371.756 530.669 371.543 c 4
 525.698 371.543 525.617 369.016 525.617 364.285 c 4
 525.617 363.802 l 4
 525.617 362.395 525.61 360.804 525.481 359.037 c 4
 525.456 358.315 525.438 357.533 525.438 356.724 c 4
 525.438 352.721 525.879 348.038 528.197 346.665 c 4
 535.162 346.855 550.846 348.018 563.299 348.018 c 4
 568.647 348.018 573.399 347.804 576.609 347.205 c 4
 578.121 345.951 578.873 343.967 578.873 341.324 c 4
 578.873 337.907 577.612 333.391 575.106 327.927 c 4
 560.356 323.084 540.826 321.348 526.193 320.855 c 5
 526.193 320.855 525.21 289.811 525.21 246.838 c 4
 525.21 185.611 527.208 100.172 536.899 45.8154 c 4
 539.143 33.2314 547.222 23.7842 554.167 16.1631 c 4
 560.026 10.6064 572.98 5.63379 583.749 5.63379 c 4
 593.091 5.63379 599.104 8.34277 602.167 14.416 c 4
 602.492 15.0625 602.629 15.7676 602.629 16.499 c 4
 602.629 18.457 601.642 20.5967 600.644 22.2588 c 4
 597.967 26.7158 596.387 29.8408 596.387 33.834 c 4
 596.387 34.0439 596.392 34.2578 596.4 34.4727 c 4
 596.716 42.1455 600.204 50.1992 605.722 55.5381 c 4
 613.688 63.2422 625.167 69.9658 636.259 69.9658 c 4
 637.714 69.9658 639.163 69.8496 640.597 69.6045 c 4
 676.973 63.3955 686.601 16.6572 723.718 -3.51562 c 4
 736.186 -10.293 761.387 -9.44727 762.021 -11.5703 c 4
 762.746 -13.4961 763.106 -15.3174 763.106 -16.9766 c 4
 763.106 -20.9258 761.065 -23.9512 757.029 -25.2627 c 4
 719.702 -24.6533 596.31 -24.3008 462.521 -24.3008 c 4
 300.85 -24.3008 123.995 -24.8154 65.4795 -26.0195 c 5
 67.373 -18.5703 72.417 -16.9531 79.4238 -16.0215 c 4
 151.148 -12.7998 185.527 59.79 235.651 59.79 c 4
 236.357 59.79 237.066 59.7754 237.779 59.7461 c 4
 256.01 58.998 265.4 50.3984 268.588 38.2988 c 4
 268.836 37.3555 268.953 36.335 268.953 35.2773 c 4
 268.953 29.5264 265.461 22.6875 260.436 21.3174 c 4
 255.066 19.8545 248.317 14.6768 248.317 9.83398 c 4
 248.317 8.88379 248.507 7.88574 248.91 6.82812 c 4
 251.006 3.0127 254.817 1.33887 259.553 1.33887 c 4
 276.822 1.33887 306.399 5.86621 310.065 27.6914 c 4
 325.374 118.839 332.322 217.355 334.963 316.308 c 4
 334.951 319.875 333.217 322.729 330.717 322.729 c 4
 317.736 323.384 300.123 323.078 294.502 330.248 c 4
 293.664 331.4 293.301 332.88 293.301 334.415 c 4
 293.301 336.515 293.982 338.72 295.064 340.34 c 4
 300.335 348.247 306.726 347.871 320.729 348.07 c 4
 332.346 348.07 334.042 354.066 334.042 363.285 c 6
 334.042 363.368 l 6
 334.038 367.652 332.741 369.663 329.675 369.663 c 4
 298.664 370.796 264.068 371.474 231.35 375.769 c 4
 230.128 377.468 229.556 379.696 229.556 381.908 c 4
 229.556 383.294 229.78 384.673 230.212 385.91 c 4
 231.893 390.733 236.479 393.525 241.014 396.781 c 4
 251.462 402.306 264.605 403.536 278.603 403.536 c 4
 281.088 403.699 283.525 403.767 285.926 403.767 c 4
 298.303 403.767 309.688 401.945 321.555 401.945 c 4
 323.996 401.945 326.459 402.021 328.954 402.207 c 5
 330.155 404.041 330.683 406.434 330.683 408.756 c 4
 330.683 412.626 329.216 416.303 326.955 416.876 c 4
 313.266 417.389 302.085 417.848 287.327 419.8 c 4
 279.762 422.98 274.29 426.811 272.216 433.342 c 4
 271.965 434.129 271.855 434.952 271.855 435.789 c 4
 271.855 438.08 272.683 440.472 273.74 442.466 c 4
 275.783 446.316 278.673 448.799 283.217 451.479 c 4
 294.673 455.019 303.954 455.822 314.055 455.822 c 4
 319.475 455.822 325.132 455.591 331.488 455.427 c 5
 331.488 455.427 330.021 501.817 330.021 529.232 c 4
 330.021 588.519 325.697 659.131 321.092 685.287 c 4
 314.591 722.211 271.827 759.707 230.785 761.55 c 4
 230.726 761.55 l 4
 226.104 761.55 224.567 759.499 224.567 758.191 c 4
 224.567 757.269 225.452 755.972 226.935 753.71 c 4
 228.571 751.176 230.302 746.425 230.302 742.468 c 4
 230.302 742.347 230.301 742.227 230.298 742.106 c 4
 230.025 732.208 227.19 721.354 220.484 714.066 c 4
 211.62 704.434 199.249 695.38 185.448 695.38 c 4
 183.579 695.38 181.686 695.545 179.77 695.898 c 4
 94.4287 711.621 98.1699 777.379 27.7812 777.379 c 4
 27.4287 777.379 27.0723 777.377 26.7158 777.372 c 4
 25.625 777.387 25 779.748 25 782.077 c 4
 25 783.318 25.1787 784.55 25.5576 785.411 c 4
 26.7402 788.102 27.3145 789.274 32.8398 790.378 c 5
EndSplineSet
EndChar

StartChar: K
Encoding: 75 75 31
Width: 752
VWidth: 0
Flags: HMW
LayerCount: 2
Fore
SplineSet
26.332 795.587 m 5
 166.163 793.914 295.203 792.505 424.447 792.505 c 4
 522.731 792.505 621.134 793.319 724.488 795.453 c 4
 726.957 793.749 727.909 792.375 727.909 791.218 c 4
 727.909 787.857 720.688 785.175 717.614 783.864 c 4
 690.458 772.285 663.463 755.997 647.062 739.748 c 4
 565.673 652.769 479.223 531.856 377.603 442.089 c 5
 378.615 441.074 380.296 440.849 382.453 440.849 c 4
 384.182 440.849 386.217 440.993 388.462 440.993 c 4
 404.162 442.543 421.745 444.652 436.163 444.693 c 4
 554.956 444.693 654.114 366.988 654.114 274.158 c 4
 654.114 221.359 620.707 165.661 543.248 112.596 c 4
 527.274 101.651 514.426 68.5479 514.426 41.2549 c 4
 514.426 32.2266 515.995 23.626 519.644 16.2607 c 4
 523.469 8.54004 535.607 6.55078 543.347 5.94824 c 4
 543.893 5.90527 544.422 5.88477 544.935 5.88477 c 4
 550.747 5.88477 554.328 8.5625 554.328 12.5713 c 4
 554.328 16.7148 546.677 19.9043 542.2 23.5283 c 4
 537.727 27.1523 537.505 32.3848 537.505 35.7734 c 4
 537.505 42.0654 541.212 49.8994 544.662 53.9736 c 4
 552.341 63.0342 560.049 66.7168 567.743 66.7168 c 4
 599.588 66.7168 632.496 8.01562 659.329 -2.43066 c 4
 690.951 -14.7422 708.489 -11.8184 709.57 -16.5244 c 4
 709.57 -18.416 702.271 -22.0332 682.076 -22.0332 c 4
 655.324 -21.9365 409.935 -21.2676 207.021 -21.2676 c 4
 145.158 -21.2676 87.2422 -21.3291 40.6748 -21.4893 c 5
 40.6748 -20.4014 41.2949 -12.3799 42.832 -10.792 c 4
 45.2129 -10.7822 47.6533 -10.7783 50.1426 -10.7783 c 4
 59.2256 -10.7783 68.9521 -10.832 78.7344 -10.832 c 4
 117.733 -10.832 157.642 -9.97656 161.356 -1.44043 c 4
 176.977 123.421 183.628 246.197 183.628 369.58 c 4
 183.628 496.792 176.559 624.651 164.958 756.112 c 4
 164.958 763.842 156.558 769.825 151.607 771.68 c 4
 150.234 772.194 148.856 772.477 147.433 772.477 c 4
 140.549 772.477 132.601 765.903 119.121 747.336 c 4
 113.261 738.358 105.915 732.691 97.6016 732.595 c 6
 97.4043 732.592 l 6
 80.4541 732.592 69.71 751.681 58.9531 764.356 c 4
 36.2148 791.153 25 784.237 25 792.542 c 4
 25 793.878 25.4131 794.931 26.333 795.587 c 6
 26.332 795.587 l 5
373.155 776.061 m 5
 356.61 672.404 346.749 568.025 346.08 450.82 c 4
 346.235 450.724 346.424 450.676 346.647 450.676 c 4
 348.564 450.676 352.997 454.178 359.635 460.951 c 4
 374.639 476.308 390.358 495.316 403.928 513.9 c 4
 436.255 558.171 472.364 630.788 472.364 688.392 c 4
 472.364 736.591 447.084 774.279 373.155 776.061 c 5
422.303 412.763 m 6
 395.944 412.458 362.56 404.899 352.182 402.041 c 4
 340.35 401.54 342.954 383.437 342.281 373.339 c 4
 341.152 339.174 340.577 305.212 340.577 271.256 c 4
 340.577 180.728 344.658 90.2354 353.191 -3.98242 c 5
 389.168 -5.90918 428.911 -6.52734 466.507 -6.52734 c 4
 479.097 -6.52734 491.445 -6.45703 503.331 -6.34375 c 5
 484.849 0.548828 476.605 26.0098 476.605 51.71 c 4
 476.605 56.418 476.883 61.1328 477.425 65.7441 c 4
 481.328 98.9668 506.193 198.167 506.193 273.888 c 4
 506.193 314.486 497.663 353.601 471.459 388.41 c 4
 460.605 402.83 445.946 412.77 423.21 412.77 c 4
 422.908 412.77 422.606 412.768 422.303 412.763 c 6
EndSplineSet
EndChar

StartChar: N
Encoding: 78 78 32
Width: 859
VWidth: 0
Flags: HMW
LayerCount: 2
Fore
SplineSet
436.558 806.697 m 5
 437.066 806.698 l 6
 482.409 806.698 537.272 793.28 561.021 778.834 c 4
 730.189 674.277 792.398 578.148 792.398 486.786 c 4
 792.398 367.128 658.025 196.812 572.014 68.6162 c 4
 568.041 62.6992 566.422 56.6562 566.422 50.6211 c 4
 566.422 36.8555 574.803 23.1318 582.86 11.0225 c 4
 583.765 10.2021 584.547 9.79297 585.203 9.79297 c 4
 586.888 9.79297 587.747 12.4678 587.747 17.7656 c 4
 587.747 17.8877 587.747 18.0127 587.746 18.1387 c 6
 587.746 18.2061 l 6
 587.746 42.7666 606.208 67.5068 642.127 67.5068 c 4
 644.815 67.5068 647.604 67.3652 650.488 67.0742 c 4
 666.2 65.5 680.512 41.6016 684.053 33.6025 c 4
 687.591 25.6055 686.21 23.5918 690.216 23.1973 c 4
 690.344 23.1855 690.47 23.1797 690.599 23.1797 c 4
 693.991 23.1797 697.544 27.4932 697.544 30.9414 c 4
 697.544 31.0713 697.539 31.2002 697.53 31.3291 c 4
 697.512 31.5586 697.503 31.792 697.503 32.0322 c 4
 697.503 41.5654 712.118 58.0498 722.675 58.0498 c 4
 727.093 58.0498 730.798 55.1504 732.419 47.6211 c 4
 740.437 10.3965 760.043 2.36816 783.721 -7.1123 c 4
 789.51 -9.44434 810.385 -11.2383 829.525 -11.498 c 4
 830.611 -11.0869 831.567 -10.8896 832.358 -10.8896 c 4
 833.935 -10.8896 834.855 -11.6836 834.855 -13.1582 c 4
 834.855 -13.3574 834.839 -13.5693 834.805 -13.793 c 4
 834.514 -15.6914 833.64 -18.1094 828.187 -18.3691 c 4
 691.137 -17.5605 565.74 -17.083 443.265 -17.083 c 4
 315.091 -17.083 190.113 -17.4189 58.3242 -18.1953 c 5
 58.752 -16.5791 58.2119 -10.0938 60.3164 -8.03223 c 4
 95.0439 25.9043 113.196 238.919 113.196 429.805 c 4
 113.196 529.809 108.301 623.739 98.2881 682.674 c 4
 97.3613 683.965 96.3506 684.462 95.0215 684.462 c 4
 92.4834 684.462 88.7852 682.655 82.3076 681.086 c 4
 72.4346 678.694 40.5596 666.703 40.5596 666.703 c 6
 36.5576 665.357 33.1689 664.724 30.585 664.724 c 4
 27.0303 664.724 25 665.928 25 668.123 c 4
 25 671.596 30.1084 677.556 42.3438 685.156 c 4
 52.3135 691.342 70.6064 697.1 99.1289 703.985 c 4
 145.796 711.41 200.627 727.252 244.521 743.968 c 5
 316.654 783.551 376.834 805.074 432.262 806.635 c 4
 433.685 806.673 435.117 806.695 436.557 806.698 c 6
 436.558 806.697 l 5
433.499 774.932 m 6
 429.637 775.145 425.566 775.27 421.331 775.27 c 4
 381.697 775.27 304.88 744.891 292.815 686.602 c 4
 269.779 576.098 261.967 436.628 261.967 305.51 c 4
 261.967 189.15 267.97 79.3682 274.924 2.24121 c 5
 339.55 0.84082 404.173 -0.493164 466.477 -0.493164 c 4
 486.32 -0.493164 505.929 -0.376953 525.228 -0.107422 c 5
 556.358 178.714 571.25 314.064 571.25 470.779 c 4
 571.25 535.213 568.799 603.259 563.987 679.42 c 5
 551.453 749.604 484.168 772.195 433.497 774.93 c 5
 433.499 774.932 l 6
EndSplineSet
EndChar

StartChar: O
Encoding: 79 79 33
Width: 816
VWidth: 0
Flags: HMW
LayerCount: 2
Fore
SplineSet
256.026 748.876 m 5
 299.888 776.707 368.126 795.57 435.07 795.57 c 4
 494.789 795.57 553.49 783.332 593.401 753.201 c 5
 728.291 665.584 791.74 538.838 791.74 410.81 c 4
 791.74 261.354 716.346 110.194 576.347 14.4326 c 5
 544.055 -18.5889 492.687 -33.2822 439.139 -33.2822 c 4
 364.483 -33.2822 285.657 -9.2041 246.999 30.7764 c 5
 113.885 92.0176 25 243.397 25 394.852 c 4
 25 535.403 91.9141 676.018 256.026 748.876 c 5
547.57 712.318 m 5
 521.902 747.508 467.15 767.068 409.074 767.068 c 4
 358.919 767.068 306.239 749.982 268.252 712.789 c 5
 247.455 615.11 237.989 496.83 237.989 377.294 c 4
 237.989 262.288 251.932 146.115 277.163 46.1738 c 5
 312.078 8.59375 376.871 -5.56543 435.752 -5.56543 c 4
 492.105 -5.56543 542.961 9.96289 555.992 31.1484 c 5
 568.527 105.977 580.973 285.911 580.973 448.983 c 4
 580.973 555.35 571.822 654.511 547.57 712.318 c 5
EndSplineSet
EndChar

StartChar: P
Encoding: 80 80 34
Width: 709
VWidth: 0
Flags: HMW
LayerCount: 2
Fore
SplineSet
396.242 801.392 m 5
 396.437 801.392 l 6
 439.581 801.392 482.312 789.312 529.138 763.404 c 4
 637.162 703.633 684.482 607.198 684.482 511.778 c 4
 684.482 402.194 620.477 291.127 507.242 225.935 c 4
 472.03 201.307 439.429 191.614 410.198 191.614 c 4
 361.401 191.614 322.001 218.628 295.535 248.276 c 5
 295.29 231.536 295.092 209.491 295.092 184.886 c 4
 295.092 125.879 296.229 52.1357 300.607 1.46387 c 5
 331.188 -6.76465 359.728 -8.50195 388.162 -8.50195 c 4
 406.38 -8.50195 424.555 -7.78906 443.194 -7.61133 c 4
 444.663 -9.23145 445.194 -11.5205 445.194 -13.8955 c 4
 445.194 -15.8477 444.836 -17.8574 444.346 -19.6016 c 4
 369.284 -19.1611 284.564 -18.8965 205.795 -18.8965 c 4
 138.5 -18.8965 75.5488 -19.0898 26.6758 -19.5312 c 4
 25.709 -18.2695 25 -15.8496 25 -13.7031 c 4
 25 -12.29 25.3076 -10.9951 26.0508 -10.2256 c 4
 59.7578 -9.65332 120.312 -10.5283 126.092 3.44922 c 4
 152.321 66.8691 154.783 151.663 154.783 240.692 c 4
 154.783 398.65 130.63 564.188 122.243 629.104 c 5
 114.792 651.249 104.384 662.922 80.7969 662.922 c 4
 76.4189 662.922 71.585 662.52 66.2324 661.707 c 4
 61.208 660.945 54.165 660.261 44.2148 655.601 c 5
 44.2148 655.601 39.7705 664.74 39.7705 665.943 c 4
 39.7705 666.024 39.79 666.068 39.833 666.071 c 4
 151.131 703.873 206.782 726.072 263.695 759.411 c 4
 313.663 788.684 355.646 801.351 396.242 801.391 c 5
 396.242 801.392 l 5
387.407 781.243 m 4
 349.72 780.386 289.469 765.317 288.454 724.129 c 4
 288.203 696.496 288.072 665.179 288.072 632.337 c 4
 288.072 488.613 290.568 315.708 296.355 294.72 c 4
 311.977 238.054 362.125 215.448 408.376 215.448 c 4
 447.403 215.448 483.656 231.545 494.051 256.853 c 4
 503.758 280.486 509.967 374.912 509.967 479.496 c 4
 509.967 569.63 505.355 667.307 494.399 733.716 c 4
 488.206 769.659 430.229 781.291 391.612 781.291 c 4
 390.183 781.291 388.78 781.275 387.407 781.243 c 4
EndSplineSet
EndChar

StartChar: M
Encoding: 77 77 35
Width: 955
VWidth: 0
Flags: HMW
LayerCount: 2
Fore
SplineSet
25.3604 -18.7676 m 6
 25.1084 -18.2959 25 -17.7471 25 -17.165 c 4
 25 -17.1592 25 -17.1533 25 -17.1484 c 4
 25.0088 -14.7988 26.7803 -11.9033 28.1768 -11.1914 c 4
 89.9102 1.51074 137.974 -0.136719 162.131 35.2383 c 4
 177.47 55.0508 192.93 63.2939 206.072 63.2939 c 4
 206.248 63.2939 206.423 63.292 206.599 63.2891 c 4
 234.937 62.8125 242.265 42.0518 242.265 20.1758 c 4
 242.265 13.3408 241.55 6.39844 240.538 -0.0703125 c 5
 261.947 -0.147461 l 6
 263.688 1.58203 264.422 5.31641 264.53 6.26562 c 4
 265.743 17.0068 266.381 26.5176 266.414 35.4258 c 4
 266.415 35.5332 266.415 35.6406 266.415 35.748 c 4
 266.415 51.0361 262.481 64.5586 258.782 79.4873 c 4
 222.616 225.398 56.0801 331.518 56.0801 485.915 c 4
 56.0801 491.246 56.2783 496.636 56.6875 502.086 c 4
 68.875 664.343 206.238 806.315 362.11 809.341 c 4
 397.236 809.213 432.455 796.007 465.234 760.543 c 5
 465.234 760.543 466.825 758.349 468.876 758.342 c 4
 468.885 758.342 l 4
 469.979 758.342 472.133 759.129 473.038 760.019 c 4
 479.137 766.005 481.203 769.094 487.368 773.649 c 4
 516.915 795.472 563.744 805.803 611.467 805.803 c 4
 611.863 805.803 612.261 805.802 612.658 805.801 c 4
 757.125 804.282 863.68 671.48 866.104 539.129 c 4
 865.473 364.737 695.078 254.554 637.973 98.123 c 4
 631.146 79.4258 624.247 60.5215 624.175 40.0537 c 4
 626.148 22.5098 626.457 -0.389648 639.06 -1.51172 c 6
 642.96 -1.52539 l 6
 643.173 -1.26074 643.256 -0.902344 643.256 -0.506836 c 4
 643.256 0.688477 642.498 2.2168 642.303 2.49219 c 4
 633.382 15.0557 630.631 21.6406 630.631 28.4014 c 4
 630.631 28.4932 l 4
 630.642 31.6064 631.232 34.7598 632.068 38.5596 c 4
 636.819 60.1582 660.896 73.8721 681.104 73.8721 c 4
 681.433 73.8721 681.76 73.8691 682.086 73.8623 c 4
 699.653 73.4697 713.34 54.3486 723.759 41.5723 c 4
 770.984 -16.3389 856.55 -2.29688 925.722 -6.85156 c 4
 928.311 -7.16113 930.334 -14.5059 930.334 -18.9346 c 4
 930.334 -18.9834 l 4
 930.331 -19.9023 930.238 -20.6924 930.047 -21.2656 c 4
 896.571 -20.7783 746.361 -19.6279 573.544 -19.0029 c 4
 503.185 -18.748 429.077 -18.5801 357.574 -18.5801 c 4
 234.285 -18.5801 118.74 -19.0771 43.5078 -20.4834 c 4
 42.5303 -20.502 38.1807 -20.8682 34.2002 -20.8682 c 4
 34.1211 -20.8682 34.043 -20.8682 33.9648 -20.8682 c 4
 32.9141 -20.9443 31.8496 -21.0205 30.8369 -21.0205 c 4
 30.8086 -21.0205 30.7822 -21.0205 30.7549 -21.0205 c 4
 28.3916 -21.0117 26.3193 -20.5801 25.3584 -18.7676 c 6
 25.3604 -18.7676 l 6
595.189 -1.35352 m 5
 591.4 15.4629 589.842 33.9521 589.842 52.2734 c 4
 589.842 52.666 589.843 53.0576 589.844 53.4502 c 4
 589.944 80.9775 593.371 109.033 597.374 134.307 c 4
 629.345 306.304 658.791 469.938 659.371 630.415 c 4
 659.376 631.727 659.379 633.038 659.379 634.349 c 4
 659.379 667.099 657.886 699.719 654.566 732.254 c 5
 639.613 755.759 611.54 768.073 582.997 768.177 c 4
 582.753 768.177 l 4
 556.525 768.177 515.243 753.003 511.13 726.014 c 4
 498.585 643.716 498.915 578.59 496.577 502.423 c 4
 499.452 490.556 506.579 486.841 515.362 486.809 c 4
 515.479 486.809 l 4
 529.895 486.809 548.728 496.646 560.551 496.646 c 4
 560.629 496.646 l 4
 562.791 496.639 564.715 496.299 566.333 495.508 c 4
 577.463 490.059 581.556 483.919 581.556 478.018 c 4
 581.556 477.972 l 4
 581.529 470.705 575.309 463.799 568.395 458.982 c 4
 564.319 456.854 560.12 456.094 555.774 456.094 c 4
 555.646 456.094 l 4
 544.797 456.134 533.036 460.879 520.027 460.927 c 4
 519.829 460.927 l 4
 512.602 460.927 504.989 459.463 496.934 454.931 c 5
 497.382 435.845 l 5
 509.227 430.967 518.312 429.272 525.752 429.245 c 4
 525.933 429.245 l 4
 542.144 429.245 550.526 437.162 562.706 437.162 c 4
 562.808 437.162 l 4
 568.923 437.141 575.999 435.118 585.501 429.104 c 4
 595.656 422.082 599.712 415.693 599.712 410.297 c 4
 599.712 410.258 l 4
 599.673 399.541 583.628 392.751 567.612 392.717 c 4
 550.218 394.598 535.918 409.089 518.534 409.152 c 4
 518.42 409.152 l 4
 511.912 409.152 504.971 407.125 497.273 401.656 c 4
 496.724 400.58 496.534 397.413 496.521 393.688 c 4
 496.52 393.544 496.52 393.4 496.52 393.256 c 4
 496.52 386.373 497.083 377.818 497.083 376.929 c 4
 497.083 376.92 l 4
 501.116 372.327 505.964 370.779 511.132 370.76 c 4
 511.229 370.76 l 4
 521.578 370.76 533.203 376.841 542.143 376.841 c 4
 542.214 376.841 l 4
 544.132 376.835 545.927 376.545 547.557 375.854 c 4
 555.307 372.563 560.25 365.985 560.25 359.246 c 4
 560.25 359.195 l 4
 560.228 353.047 556.086 346.771 546.205 342.747 c 4
 544.511 342.058 542.479 341.78 540.222 341.78 c 4
 540.118 341.78 l 4
 531.205 341.813 518.802 346.085 509.47 346.119 c 4
 509.36 346.119 l 4
 501.876 346.119 496.394 343.36 496.323 333.434 c 4
 495.666 316.011 495.254 295.68 495.254 273.714 c 4
 495.254 178.051 503.077 51.375 532.545 -1.12598 c 5
 595.189 -1.35352 l 5
381.762 7.8125 m 4
 418.99 105.66 413.555 251.026 414.35 343.184 c 5
 408.225 348.813 402.122 350.658 396.165 350.68 c 4
 396.06 350.68 l 4
 385.079 350.68 374.593 344.527 365.367 344.527 c 4
 365.291 344.527 l 4
 361.281 344.541 357.509 345.726 354.039 349.093 c 4
 350.093 352.924 347.259 359.188 347.259 365.394 c 4
 347.259 365.468 l 4
 347.272 369.252 348.342 373.01 350.853 376.181 c 4
 356.16 382.878 361.566 385.1 367.176 385.1 c 4
 367.254 385.1 l 4
 378.276 385.061 390.092 376.486 403.503 376.438 c 4
 403.615 376.438 l 4
 407.816 376.438 412.175 377.277 416.714 379.48 c 5
 416.714 379.48 417.515 386.495 417.538 392.781 c 4
 417.538 392.868 417.538 392.956 417.538 393.043 c 4
 417.538 396.03 417.356 398.828 416.821 400.595 c 4
 405.166 407.451 395.62 409.909 387.161 409.939 c 4
 387 409.939 l 4
 366.278 409.939 352.052 395.395 329.179 395.395 c 4
 328.984 395.395 l 4
 327.355 395.399 325.685 395.479 323.963 395.643 c 4
 307.754 397.187 302.018 406.97 302.018 417.251 c 4
 302.018 417.349 l 4
 302.056 427.552 307.722 438.225 314.397 441.81 c 4
 319.482 444.542 324.67 445.611 329.983 445.611 c 4
 330.125 445.611 l 4
 349.053 445.543 369.581 431.998 392.838 431.913 c 4
 393.058 431.913 l 4
 400.383 431.913 407.978 433.255 415.879 436.776 c 4
 416.977 438.594 417.519 442.2 417.529 445.586 c 4
 417.529 445.706 l 4
 417.529 449.48 416.871 452.949 415.597 453.311 c 4
 408.67 460.021 402.026 462.248 395.66 462.271 c 4
 395.56 462.271 l 4
 383.32 462.271 372.104 454.163 361.877 454.163 c 4
 361.808 454.163 l 4
 360.121 454.169 358.462 454.396 356.829 454.918 c 4
 347.905 457.771 342.115 464.964 342.115 472.65 c 4
 342.115 472.708 l 4
 342.136 478.838 345.843 485.275 354.579 490.071 c 4
 357.793 491.835 360.593 492.543 363.134 492.543 c 4
 363.18 492.543 l 4
 373.538 492.505 379.588 480.678 391.873 480.634 c 4
 391.941 480.634 l 4
 398.559 480.634 406.985 484.053 418.858 494.555 c 5
 418.566 586.086 418.229 664.305 399.494 744.093 c 4
 395.347 761.762 358.449 771.311 341.969 771.471 c 4
 341.759 771.471 l 4
 304.657 771.471 264.547 735.849 264.471 715.111 c 4
 264.471 715.072 l 4
 264.471 714.637 264.488 714.208 264.523 713.784 c 4
 282.627 497.699 301.198 290.256 303.409 99.3359 c 4
 303.421 98.2021 303.427 97.082 303.427 95.9775 c 4
 303.427 95.667 303.427 95.3584 303.426 95.0498 c 4
 303.295 59.1055 298.458 31.3301 298.396 13.9268 c 4
 298.396 13.8711 l 4
 298.396 10.9482 299.122 0.30957 301.757 -0.291016 c 6
 370.52 -0.540039 l 6
 376.953 1.17578 379.596 4.35059 381.762 7.8125 c 4
EndSplineSet
EndChar

StartChar: Q
Encoding: 81 81 36
Width: 754
VWidth: 0
Flags: HMW
LayerCount: 2
Fore
SplineSet
406.358 816.847 m 4
 448.036 815.455 489.675 808.41 524.138 791.269 c 4
 674.641 716.417 729.602 603.834 729.602 490.75 c 4
 729.602 486.818 729.535 482.887 729.405 478.955 c 4
 724.657 336.679 634.347 194.098 536.459 119.701 c 4
 497.669 91.1445 453.854 82.5088 413.758 82.5088 c 4
 410.532 82.5088 407.329 82.5654 404.156 82.6719 c 4
 394.041 83.0088 384.217 83.8545 374.83 85.0176 c 4
 364.003 85.7666 352.896 88.251 342.46 91.6152 c 4
 337.277 91.209 333.362 88.627 329.72 80.7451 c 4
 327.809 76.6123 318.662 66.335 312.038 66.335 c 4
 311.969 66.335 311.898 66.3359 311.829 66.3379 c 4
 311.48 66.2402 311.037 66.1934 310.511 66.1934 c 4
 310.405 66.1934 310.297 66.1953 310.185 66.1982 c 4
 294.222 66.7305 209.396 105.053 160.411 108.447 c 4
 159.929 108.463 159.458 108.471 158.998 108.471 c 4
 155.11 108.471 152.051 107.888 150.021 106.585 c 4
 148.922 106.088 148.046 104.946 147.869 103.668 c 4
 147.601 92.3271 147.324 80.7695 146.937 69.1348 c 4
 145.809 35.3271 143.736 0.833008 138.152 -31.0791 c 4
 136.514 -40.4414 135.696 -49.3633 135.41 -57.9268 c 4
 135.326 -60.4287 135.287 -62.9014 135.287 -65.3447 c 4
 135.287 -91.0137 139.491 -113.554 139.491 -135.422 c 4
 139.491 -137.173 139.465 -138.918 139.406 -140.662 c 4
 139.023 -152.144 137.286 -163.49 132.961 -175.065 c 6
 132.961 -175.068 l 5
 132.959 -175.068 l 5
 125.41 -195.27 78.6611 -202.335 56.6533 -203.619 c 4
 51.5654 -203.896 46.7178 -204.025 42.4141 -204.025 c 4
 40.3057 -204.025 38.3271 -203.995 36.5146 -203.935 c 4
 29.5205 -203.701 25 -203.029 25 -202.025 c 4
 25 -202.022 25 -202.018 25 -202.014 c 4
 25.0127 -201.63 25.6885 -201.198 27.1445 -200.724 c 4
 31.998 -199.76 50.6729 -201.441 50.8076 -197.397 c 4
 50.8076 -197.382 50.8076 -197.366 50.8076 -197.351 c 4
 50.8076 -196.768 50.4277 -196.066 49.5732 -195.224 c 4
 39.5557 -185.344 35.5439 -173.949 35.5439 -163.188 c 4
 35.5439 -162.704 35.5518 -162.222 35.5674 -161.74 c 4
 36.2529 -141.185 51.4131 -123.311 66.9336 -123.311 c 4
 67.1572 -123.311 67.3799 -123.313 67.6035 -123.322 c 4
 73.4814 -123.519 79.3848 -126.307 84.542 -132.509 c 4
 94.8096 -144.857 94.8916 -166.494 99.6279 -166.651 c 4
 99.6445 -166.652 99.6631 -166.652 99.6797 -166.652 c 4
 99.8164 -166.652 99.9551 -166.636 100.1 -166.603 c 4
 103.84 -165.595 105.181 -164.478 105.289 -161.261 c 4
 105.294 -161.12 105.296 -160.973 105.296 -160.823 c 4
 105.296 -160.03 105.232 -159.119 105.121 -158.063 c 4
 104.918 -156.159 104.829 -153.314 104.829 -149.954 c 4
 104.829 -147.027 104.896 -143.709 105.009 -140.284 c 4
 105.431 -127.645 106.504 -113.544 107.293 -112.179 c 4
 59.8027 -60.6953 96.2314 -60.916 63.0225 -31.9453 c 4
 49.2324 -19.9102 46.4756 0.676758 37.1553 13.9561 c 4
 31.4033 22.1523 28.8066 31.209 28.8066 40.5967 c 4
 28.8066 41.1699 28.8174 41.7441 28.8369 42.3203 c 4
 29.9023 74.2412 60.3438 109.559 98.3311 127.508 c 4
 118.941 137.243 139.033 141.129 158.472 141.129 c 4
 160.118 141.129 161.76 141.102 163.398 141.046 c 4
 215.639 139.303 262.156 108.29 302.748 92.9824 c 4
 303.777 92.6621 304.73 92.502 305.604 92.4727 c 4
 305.703 92.4688 305.8 92.4678 305.896 92.4678 c 4
 310.52 92.4678 312.878 96.2393 313 99.8799 c 4
 313.003 99.9785 313.005 100.076 313.005 100.174 c 4
 313.005 102.106 312.365 103.967 311.104 105.179 c 4
 310.409 105.566 309.706 105.956 309.042 106.341 c 4
 154.602 182.642 40.9229 307.645 40.9229 467.606 c 4
 40.9229 472.377 41.0234 477.179 41.2275 482.013 c 4
 45.0391 596.245 106.166 714.285 247.967 788.624 c 4
 286.845 809.006 338.601 817.125 389.84 817.125 c 4
 395.357 817.125 400.869 817.029 406.358 816.847 c 4
398.472 784.565 m 4
 394.794 784.688 391.121 784.75 387.456 784.75 c 4
 362.54 784.75 337.881 781.902 312.869 776.038 c 4
 294.127 771.646 275.747 756.076 270.241 740.759 c 4
 254.653 697.4 251.463 632.958 249.139 563.333 c 4
 248.738 551.297 248.361 539.102 247.953 526.837 c 4
 246.934 496.238 246.351 464.874 246.351 433.791 c 4
 246.351 325.79 253.38 221.171 273.472 163.769 c 4
 276.73 154.458 313.721 129.147 324.545 128.787 c 4
 329.481 130.449 331.923 136.84 338.258 136.84 c 4
 338.362 136.84 338.469 136.838 338.575 136.835 c 4
 339.383 136.808 340.252 136.679 341.197 136.424 c 4
 349.402 134.218 350.578 128.731 350.578 123.658 c 4
 350.578 123.195 350.568 122.735 350.552 122.281 c 4
 350.515 121.125 350.439 120.008 350.405 118.979 c 4
 350.396 118.717 350.391 118.463 350.389 118.214 c 4
 361.412 111.061 377.272 108.551 403.835 107.664 c 4
 405.786 107.599 407.744 107.565 409.707 107.565 c 4
 435.525 107.565 461.959 113.128 478.393 122.505 c 4
 484.955 126.249 489.922 130.602 492.618 135.45 c 4
 520.89 217.162 535.82 323.513 539.413 431.225 c 4
 540.204 454.908 540.673 478.7 540.673 502.321 c 4
 540.673 574.042 536.354 644.19 523.602 704.959 c 4
 519.762 723.26 509.74 764.639 487.276 770.66 c 4
 456.585 778.889 427.296 783.604 398.472 784.565 c 4
EndSplineSet
EndChar

StartChar: R
Encoding: 82 82 37
Width: 832
VWidth: 0
Flags: HMW
LayerCount: 2
Fore
SplineSet
318.851 777.307 m 4
 325.414 777.307 331.809 777.856 338.009 779.302 c 4
 373.488 787.517 405.284 791.258 433.323 791.258 c 4
 472.444 791.258 504.259 784.353 528.558 772.429 c 4
 574.312 749.707 611.12 705.961 611.12 658.485 c 4
 611.12 611.125 575.616 559.252 476.818 522.283 c 4
 474.457 521.397 471.863 520.513 471.863 519.573 c 4
 471.863 518.71 474.109 518.449 476.466 518.173 c 4
 582.336 507.037 664.622 427.969 666.131 325.614 c 4
 666.131 292.865 655.91 263.901 641.996 237.346 c 4
 613.281 182.787 569.003 117.721 569.003 69.0029 c 4
 569.003 43.8525 592.246 22.5371 613.696 10.4141 c 4
 624.704 4.23535 638.648 -0.369141 651.796 -0.369141 c 4
 658.755 -0.369141 665.489 0.966797 671.444 4.10449 c 4
 684.47 10.9014 695.158 26.3447 695.158 42.1172 c 4
 695.158 43.7168 695.041 45.3213 694.797 46.9189 c 4
 691.314 70.7676 672.17 78.3369 649.844 79.3311 c 4
 647.298 79.3311 645.955 77.2422 645.955 73.1094 c 4
 645.893 68.7334 639.623 67.085 636.848 63.416 c 4
 632.62 58.8906 629.752 57.3516 624.407 56.7432 c 5
 623.887 62.9424 619.534 65.9023 614.935 65.9023 c 4
 611.53 65.9023 609.532 61.9893 605.784 61.041 c 4
 600.893 61.3799 596.658 65.6445 595.634 69.2734 c 4
 595.599 69.3916 595.582 69.5146 595.582 69.6416 c 4
 595.582 71.8613 600.305 75.3906 600.305 78.3496 c 4
 599.403 82.1807 597.001 82.6641 594.528 82.6641 c 4
 593.696 82.6641 592.856 82.5986 592.063 82.5986 c 4
 590.32 82.5986 588.804 82.8633 588.093 84.5479 c 4
 587.915 85.0996 587.833 85.6191 587.833 86.1123 c 4
 587.833 91.1699 596.149 93.3682 597.766 98.1963 c 4
 597.899 98.5986 598.216 99.1309 598.216 99.5371 c 4
 598.216 99.7012 598.163 99.8447 598.024 99.9502 c 4
 596.559 101.075 591.467 101.278 591.467 103.102 c 4
 591.467 104.054 592.814 105.442 596.699 107.621 c 4
 597.807 108.244 597.048 110.105 598.11 111.151 c 4
 597.562 114.937 597.317 117.652 597.317 119.562 c 4
 597.317 122.666 597.927 123.649 598.899 123.649 c 4
 600.603 123.649 603.406 120.732 606.014 120.732 c 4
 606.705 120.732 607.383 120.942 608.021 121.476 c 4
 614.558 128.233 617.957 130.666 619.767 130.666 c 4
 624.396 130.666 618.752 115.197 628.215 114.772 c 5
 631.8 118.304 633.797 119.531 635.014 119.531 c 4
 637.758 119.531 636.576 113.439 640.625 113.222 c 4
 643.369 114.993 644.685 115.988 645.662 115.988 c 4
 647.029 115.988 647.741 114.091 650.736 109.721 c 4
 659.099 101.864 669.611 92.7471 678.125 92.7471 c 4
 680.019 92.7471 681.813 93.2109 683.463 94.2559 c 4
 683.937 94.2559 684.31 94.4121 684.512 94.7695 c 4
 684.878 95.4326 685.039 96.7812 685.039 98.4883 c 4
 685.039 103.695 683.466 112.239 681.646 114.786 c 4
 680.247 116.769 674.724 119.958 674.724 121.868 c 4
 660.428 124.688 655.871 132.486 655.871 141.162 c 4
 655.871 143.495 656.186 145.89 656.719 148.27 c 4
 657.455 151.522 658.471 155.719 658.471 159.366 c 4
 658.471 162.717 657.582 165.603 654.759 166.862 c 4
 646.312 170.638 643.51 174.639 643.51 178.94 c 4
 643.51 182.407 645.284 186.069 647.391 189.967 c 4
 648.543 192.035 647.537 201.39 650.266 204.111 c 4
 652.376 206.203 655.424 206.755 658.18 206.755 c 4
 661.266 206.755 663.986 206.099 664.623 206.099 c 4
 665.342 206.099 665.356 216.944 666.423 218.26 c 4
 666.489 218.34 666.571 218.377 666.671 218.377 c 4
 668.161 218.377 673.207 210.079 675.358 210.079 c 4
 675.676 210.079 675.93 210.264 676.1 210.688 c 4
 678.376 216.373 680.044 218.346 681.359 218.346 c 4
 684.195 218.346 685.417 209.447 687.535 208.392 c 4
 687.727 208.299 688.085 208.263 688.565 208.263 c 4
 690.248 208.263 693.43 208.752 696.192 208.752 c 4
 697.942 208.752 699.524 208.572 700.454 207.983 c 4
 705.53 204.729 707.146 202.182 707.146 199.964 c 4
 707.146 196.059 702.242 193.171 702.242 189.251 c 4
 702.242 188.787 702.313 188.311 702.473 187.815 c 4
 704.623 180.985 713.357 175.815 713.824 173.345 c 4
 720.91 170.985 723.152 168.113 723.152 165.137 c 4
 723.152 159.98 716.589 154.507 716.589 150.801 c 4
 716.589 142.085 714.595 136.575 710.419 132.077 c 4
 707.468 128.914 701.479 123.777 701.479 119.146 c 4
 701.479 116.43 702.064 113.887 703.306 112.023 c 4
 704.557 110.139 706.071 106.018 706.668 102.868 c 6
 707.764 97.1426 l 5
 711.245 96.3184 714.446 95.9092 717.35 95.9092 c 4
 727.269 95.9092 733.704 100.897 736.01 110.697 c 5
 743.176 121.745 749.629 123.809 754.362 123.809 c 4
 757.145 123.809 760.469 119.516 760.831 116.984 c 4
 761.243 114.13 765.807 112.254 770.704 112.254 c 4
 770.777 112.25 770.85 112.248 770.923 112.248 c 4
 774.892 112.248 778.608 118.847 783.064 118.847 c 4
 783.242 118.847 783.42 118.837 783.6 118.817 c 4
 788.65 118.22 788.937 113.039 795.225 109.012 c 4
 801.438 105.041 807.127 105.552 807.659 102.793 c 4
 804.638 96.9404 801.661 94.3867 801.661 91.1689 c 4
 801.661 89.4951 802.484 87.6406 804.557 85.0449 c 5
 802.736 84.4492 796.667 85.0234 796.667 84.0811 c 4
 796.667 81.7979 793.573 80.3037 786.416 80.3037 c 4
 785.169 80.3037 783.8 80.3428 782.303 80.4248 c 4
 780.172 80.1025 781.52 71.5557 780.435 68.293 c 4
 780.057 62.0312 780.712 56.7295 776.798 56.7295 c 4
 775.248 56.7295 772.99 57.5293 769.688 59.3857 c 4
 766.948 59.0352 762.336 56.9316 759.434 54.7061 c 4
 754.796 51.1445 749.367 49.2012 745.008 49.2012 c 4
 742.516 49.2012 740.372 49.8184 738.921 51.1113 c 4
 735.698 56.4697 728.284 61.1973 722.367 61.1973 c 4
 718.313 61.1973 714.966 58.9277 714.178 53.0342 c 4
 710.25 23.6455 703.639 7.22168 678.59 -14.2432 c 5
 694.12 -16.4639 702.574 -17.0215 714.523 -17.6016 c 4
 715.867 -17.6016 720.504 -19.3184 720.504 -20.7871 c 4
 720.504 -21.4932 719.466 -22.1426 716.545 -22.5244 c 4
 562.979 -20.9316 423.825 -20.3232 281.884 -20.3232 c 4
 204.459 -20.3232 126.203 -20.9873 44.3271 -22.0918 c 6
 44.2402 -22.0918 l 6
 37.8027 -22.0918 25 -18.9121 25 -14.4688 c 4
 25 -11.7998 27.9248 -8.32031 30.9326 -6.68457 c 4
 53.8242 -3.01562 66.625 4.31445 76.4004 22.3623 c 4
 91.4746 50.1875 112.993 51.6973 121.863 52.373 c 4
 123.756 52.5293 125.602 52.6123 127.403 52.6123 c 4
 137.996 52.6123 147.12 50.0625 155.842 43.5938 c 4
 161.53 38.458 163.637 34.3398 163.637 30.6904 c 4
 163.637 20.2256 146.709 13.5938 146.709 -2.02441 c 4
 146.709 -2.44336 146.723 -2.86914 146.753 -3.30078 c 5
 147.658 -3.31641 148.556 -3.32324 149.445 -3.32324 c 4
 176.701 -3.32324 196.077 6.38184 200.174 28.2773 c 4
 212.353 113.748 219.412 230.41 219.412 349.806 c 4
 219.412 506.997 205.885 668.928 173.928 770.56 c 5
 169.241 770.289 165.526 770.241 160.9 770.164 c 4
 156.262 770.164 149.549 769.639 149.549 765.822 c 4
 149.549 765.738 149.553 765.654 149.559 765.568 c 4
 149.696 763.938 149.763 762.33 149.763 760.749 c 4
 149.763 738.367 137.796 721.331 123.082 721.331 c 4
 114.034 721.331 103.958 727.613 94.959 742.805 c 4
 90.4639 750.401 79.8438 763.354 74.2012 768.395 c 4
 61.6445 779.593 46.5791 778.507 46.5791 782.304 c 4
 46.5791 782.353 46.583 782.403 46.5869 782.453 c 4
 46.623 782.784 46.6377 783.242 46.6377 783.765 c 4
 46.6377 785.43 46.4639 787.76 46.3096 788.804 c 4
 46.3096 789.188 46.6406 789.283 46.8965 789.373 c 4
 142.336 789.373 236.468 782.755 318.851 777.307 c 4
480.795 744.931 m 4
 465.513 758.499 431.839 768.022 401.726 768.022 c 4
 372.593 768.022 346.802 758.869 344.357 735.452 c 4
 343.632 712.911 343.31 691.917 343.31 671.838 c 4
 343.31 624.879 345.704 582.93 349.113 537.928 c 5
 352.685 538.102 356.5 538.172 360.506 538.172 c 4
 376.245 538.172 394.93 537.49 413.34 537.49 c 4
 452.08 537.49 489.604 541.471 495.828 566.212 c 4
 502.87 594.696 508.844 632.869 508.844 667.928 c 4
 508.844 697.708 502.289 725.649 480.795 744.931 c 4
350.711 470.17 m 5
 353.234 312.145 355.016 137.525 385.495 0.401367 c 5
 403.949 0.857422 421.986 0.97168 439.745 0.97168 c 4
 457.489 0.97168 474.956 1.10254 492.284 1.10254 c 4
 509.682 1.10254 526.939 1.21484 544.197 1.66699 c 5
 515.312 76.3672 518.015 238.75 507.98 371.462 c 5
 499.156 437.896 511.015 475.32 420.58 475.32 c 4
 401.993 475.32 379.062 473.63 350.711 470.17 c 5
EndSplineSet
EndChar

StartChar: S
Encoding: 83 83 38
Width: 742
VWidth: 0
Flags: HMW
LayerCount: 2
Fore
SplineSet
644.172 811.984 m 4
 657.346 801.679 662.473 791.153 662.473 781.604 c 4
 662.473 761.296 639.286 745.397 621.001 745.397 c 4
 617.202 745.397 613.614 746.083 610.49 747.559 c 5
 589.017 735.375 601.015 643.605 586.678 616.985 c 5
 632.161 580.666 717.497 465.785 717.497 323.003 c 4
 717.497 321.291 717.484 319.575 717.459 317.855 c 4
 712.124 169.699 612.989 61.1006 523.18 12.3984 c 4
 492.354 -3.24707 464.336 -14.2998 438.658 -21.4365 c 4
 413.136 -28.5293 389.926 -31.749 368.575 -31.749 c 4
 368.332 -31.749 368.09 -31.749 367.847 -31.748 c 4
 338.318 -31.6465 312.345 -25.3779 288.712 -14.6865 c 4
 227.507 16.5527 223.354 26.8174 180.104 50.25 c 4
 177.17 51.8389 174.039 52.5557 170.909 52.5557 c 4
 158.868 52.5557 146.859 41.9521 146.31 29.6611 c 4
 146.387 7.27051 148.079 -18.7744 148.079 -45.7783 c 4
 148.079 -46.5 148.077 -47.2207 148.074 -47.9434 c 4
 147.984 -73.9932 146.245 -100.863 139.901 -126.148 c 4
 129.923 -165.916 80.6035 -189.692 52.3057 -197.865 c 5
 47.2998 -194.19 l 6
 48.8008 -191.669 55.0186 -189.728 64.8789 -184.882 c 4
 94.7314 -169.684 115.791 -158.661 120.726 -121.286 c 4
 124.359 -93.7637 125.966 -65.709 125.966 -37.873 c 4
 125.966 29.2344 116.634 95.0713 103.899 149.127 c 5
 101.173 153.76 98.6543 155.463 96.4268 155.463 c 4
 90.3066 155.463 86.3721 142.619 86.2871 142.355 c 4
 81.0732 125.476 68.0928 118.071 55.4111 118.071 c 4
 40.5312 118.071 26.0625 128.266 25.0371 145.31 c 4
 25.0127 145.718 25 146.144 25 146.584 c 4
 25 157.281 32.1982 176.966 44.5742 179.92 c 4
 47.1514 180.534 49.8564 180.788 52.6133 180.788 c 4
 65.8037 180.788 80.1973 174.97 87.5586 174.97 c 4
 90.6504 174.97 92.501 175.996 92.501 178.912 c 4
 92.501 179.3 92.4688 179.721 92.4023 180.177 c 4
 85.4717 216.533 60.0283 261.447 55.1621 314.242 c 4
 54.0537 326.288 53.4717 338.939 53.4717 351.959 c 4
 53.4717 352.449 53.4727 352.94 53.4736 353.433 c 4
 56.3574 464.889 97.4922 565.831 191.49 615.546 c 4
 269.417 655.609 340.1 669.046 400.008 669.046 c 4
 400.466 669.046 400.925 669.045 401.381 669.044 c 4
 468.154 668.815 513.506 660.311 556.3 636.798 c 5
 571.508 681.734 563.888 718.972 587.154 776.737 c 4
 587.198 776.846 587.219 776.989 587.22 777.164 c 4
 587.22 777.172 l 4
 587.22 778.672 585.824 782.328 585.824 783.846 c 4
 585.824 783.854 l 4
 585.825 784.044 585.847 784.2 585.897 784.313 c 4
 588.935 806.701 607.423 818.338 624.493 818.338 c 4
 631.737 818.338 638.727 816.243 644.172 811.984 c 4
239.629 605.211 m 5
 239.629 605.162 239.629 605.111 239.629 605.059 c 4
 239.629 599.462 240.605 574.746 246.718 571.387 c 4
 341.322 519.396 509.324 561.877 600.492 513.389 c 4
 605.999 510.979 609.747 509.768 612.407 509.758 c 4
 612.439 509.758 l 4
 615.162 509.758 616.741 511.026 617.906 513.571 c 4
 582.79 608.89 496.379 640.832 408.396 640.832 c 4
 347.362 640.832 285.572 625.46 239.629 605.211 c 5
132.829 180.971 m 4
 129.68 179.894 127.887 177.091 127.887 174.403 c 4
 127.887 173.653 128.026 172.912 128.316 172.22 c 4
 165.774 82.4062 281.282 -7.08301 370.575 -8.76074 c 4
 370.836 -8.76172 371.098 -8.76172 371.359 -8.76172 c 4
 431.741 -8.76172 491.651 15.2324 533.667 45.6162 c 4
 543.986 53.3184 552.828 70.2969 552.869 82.4453 c 4
 552.869 82.4951 l 4
 552.869 87.9434 549.901 90.9551 546.883 94.6445 c 4
 483.935 171.573 267.638 108.523 132.829 180.971 c 4
EndSplineSet
EndChar

StartChar: T
Encoding: 84 84 39
Width: 903
VWidth: 0
Flags: HMW
LayerCount: 2
Fore
SplineSet
204.967 110.607 m 1
 123.321 198.731 90.5195 280.588 90.5195 354.025 c 0
 90.5195 485.722 196.007 590.345 314.463 655.486 c 0
 314.463 656.564 313.583 657.536 312.508 657.647 c 0
 311.436 657.757 308.805 658.073 306.66 658.348 c 0
 200.192 660.773 111.25 656.966 25.3672 670.952 c 0
 25.1152 671.108 25 671.441 25 671.915 c 0
 25 675.94 33.3662 690.127 36.0625 691.697 c 0
 84.7031 694.38 127.004 744.397 163.359 744.397 c 0
 174.04 744.397 184.208 740.08 193.871 728.976 c 0
 195.385 727.33 196.025 725.484 196.025 723.508 c 0
 196.025 712.568 176.412 697.631 176.412 690.466 c 0
 176.412 690.104 176.463 689.76 176.569 689.438 c 1
 201.337 684.162 212.409 685.229 235.13 684.835 c 0
 235.413 684.841 235.698 684.844 235.986 684.844 c 0
 238.917 684.844 242.12 684.578 245.054 684.578 c 0
 250.586 684.578 255.161 685.52 255.161 690.95 c 0
 255.161 695.353 254.356 696.892 251.334 698.268 c 0
 244.345 705.742 241.322 716.342 241.322 727.811 c 0
 241.322 750.075 252.717 775.615 268.591 787.926 c 0
 288.915 803.69 311.578 811.941 336.777 811.941 c 0
 365.905 811.941 398.42 800.918 434.63 777.736 c 0
 574.62 690.569 692.057 665.832 831.235 665.832 c 0
 838.538 665.832 845.899 665.9 853.328 666.03 c 1
 856.88 685.229 860.08 710.768 885.173 710.768 c 0
 891.222 710.768 898.543 709.283 907.448 705.868 c 0
 909.741 702.639 910.332 700.312 910.332 697.385 c 0
 910.332 694.289 909.671 690.522 909.671 684.304 c 0
 909.671 682.3 909.739 680.042 909.921 677.472 c 0
 910.144 675.111 910.252 673.041 910.252 671.215 c 0
 910.252 657.614 904.212 657.527 894.062 652.366 c 0
 877.236 643.814 824.984 640.664 759.245 640.664 c 0
 614.117 640.664 403.262 656.018 362.745 662.501 c 0
 362.508 662.538 362.219 662.558 361.884 662.558 c 0
 353.411 662.558 314.836 650.238 301.28 615.695 c 0
 278.871 558.589 268.185 447.698 268.185 339.345 c 0
 268.185 228.743 279.32 120.783 300.487 75.3643 c 1
 353.665 11.873 409.709 -10.915 457.386 -10.915 c 0
 509.442 -10.915 551.526 16.2549 569.018 47.2764 c 1
 587.419 122.347 600.533 236.876 600.533 346.753 c 0
 600.533 427.77 593.403 506.255 576.006 564.526 c 0
 571.502 572.622 558.215 576.091 545.633 576.091 c 0
 533.628 576.091 522.266 572.934 519.788 567.628 c 1
 531.708 554.847 536.354 543.425 536.354 533.109 c 0
 536.354 521.574 530.544 511.423 522.597 502.305 c 0
 514.211 495.166 505.603 491.606 497.713 491.606 c 0
 481.94 491.606 469.045 505.833 466.568 534.145 c 0
 466.55 534.845 466.54 535.543 466.54 536.24 c 0
 466.54 567.294 487.305 596.119 538.592 596.119 c 0
 545.377 596.119 552.695 595.613 560.571 594.543 c 0
 579.44 591.979 597.836 578.514 618.972 561.601 c 0
 710.786 485.193 749.02 393.967 749.02 305.647 c 0
 749.02 185.87 678.698 71.4414 576.337 6.58105 c 0
 530.669 -22.3564 489.176 -34.0664 451.088 -34.0664 c 0
 349.773 -34.0664 272.558 48.7852 204.967 110.607 c 1
EndSplineSet
EndChar

StartChar: S.s01
Encoding: 983049 983049 40
Width: 660
VWidth: 0
Flags: HMW
LayerCount: 2
Fore
SplineSet
60.252 -192.481 m 4
 60.252 -189.178 64.6572 -185.872 72.3691 -181.466 c 4
 85.5879 -173.755 95.5029 -168.247 99.9092 -161.638 c 4
 106.519 -157.23 110.926 -148.418 114.23 -137.401 c 4
 125.246 -96.6426 130.754 -50.376 130.754 0.298828 c 4
 130.754 45.4639 127.449 87.3242 120.839 125.88 c 4
 119.737 130.287 117.534 132.49 113.129 132.49 c 4
 103.214 130.287 93.2988 125.88 83.3848 125.88 c 4
 78.9785 125.88 74.5723 126.981 71.2676 129.185 c 4
 62.4541 132.489 55.8447 143.506 54.7432 152.319 c 4
 54.7432 153.42 l 4
 54.7432 163.335 62.4541 173.249 70.166 179.859 c 4
 78.9785 186.469 92.1973 188.672 102.112 188.672 c 4
 109.823 188.672 115.332 187.57 119.737 184.265 c 4
 121.94 183.163 124.145 182.062 125.246 182.062 c 4
 129.653 182.062 131.855 183.163 131.855 185.366 c 4
 131.855 189.773 127.449 194.18 117.534 198.586 c 4
 96.6045 208.5 80.0801 221.72 64.6572 239.345 c 4
 51.4385 256.971 40.4229 276.8 33.8135 298.832 c 4
 28.3047 320.863 25 345.1 25 370.436 c 4
 25 411.195 32.7119 451.954 47.0332 493.815 c 4
 61.3535 535.676 82.2832 572.028 109.823 603.975 c 4
 126.348 626.007 147.277 644.734 171.514 661.259 c 4
 195.748 677.782 222.187 689.9 249.727 697.611 c 4
 278.368 705.322 308.112 709.729 337.854 709.729 c 4
 394.036 709.729 445.812 696.51 494.282 670.071 c 4
 496.485 672.274 498.688 674.478 500.892 677.781 c 4
 514.111 725.15 513.01 764.809 525.127 803.364 c 4
 528.432 812.178 532.838 816.583 536.143 816.583 c 4
 537.244 816.583 538.347 815.481 539.448 814.38 c 4
 538.347 793.45 536.143 770.316 533.939 751.589 c 4
 530.634 719.643 527.33 686.595 527.33 653.547 c 4
 527.33 638.124 528.432 623.804 529.533 609.482 c 4
 530.634 588.553 537.244 551.099 549.362 497.12 c 5
 605.544 456.36 634.186 397.976 635.287 319.762 c 4
 635.287 242.65 616.56 163.335 580.207 80.7148 c 4
 554.87 20.127 520.72 -23.9375 479.961 -51.4775 c 4
 439.202 -79.0176 395.138 -92.2363 349.973 -92.2363 c 4
 273.962 -90.0332 232.102 -81.2197 169.311 -47.0713 c 4
 161.599 -47.0713 158.294 -63.5947 153.888 -82.3213 c 4
 143.974 -118.675 135.16 -145.113 124.145 -161.638 c 4
 115.332 -177.061 98.8076 -186.975 75.6738 -191.38 c 4
 70.166 -192.481 65.7588 -193.583 63.5557 -193.583 c 4
 62.4541 -193.583 61.3535 -193.583 60.252 -192.481 c 4
504.196 97.2393 m 4
 497.587 112.661 488.773 124.779 477.758 133.592 c 4
 466.742 142.404 454.624 147.913 443.608 151.218 c 4
 430.39 153.42 416.068 154.521 397.341 154.521 c 4
 388.528 154.521 373.105 154.521 351.073 153.42 c 4
 330.144 152.319 312.518 152.319 300.4 152.319 c 4
 246.422 152.319 199.054 160.03 157.192 176.555 c 5
 154.989 176.555 l 5
 152.786 176.555 l 6
 149.48 176.555 148.379 175.453 148.379 172.147 c 6
 148.379 171.046 l 5
 148.379 166.64 l 6
 149.48 149.014 152.785 121.475 157.192 85.1211 c 4
 163.802 35.5498 160.496 17.9238 181.428 -5.20996 c 4
 218.882 -47.0703 280.986 -59.7461 338.956 -62.4932 c 4
 385.224 -62.4932 425.799 -51.4775 460.684 -29.4453 c 4
 495.568 -7.41406 513.01 20.8613 513.01 55.3779 c 4
 513.01 69.3311 509.705 82.918 504.196 97.2393 c 4
520.72 520.253 m 6
 516.754 550.019 513.435 586.414 496.921 614.166 c 4
 485.025 634.156 467.408 649.683 445.641 661.502 c 4
 412.209 679.161 370.706 684.409 337.707 684.719 c 4
 337.541 684.719 l 4
 295.871 684.719 252.361 676.668 217.264 662.014 c 4
 198.554 654.202 182.236 644.514 169.861 633.168 c 4
 168.76 632.066 167.291 629.863 165.454 626.558 c 4
 163.617 623.253 162.7 619.765 162.7 616.093 c 4
 170.044 596.264 179.775 579.74 191.893 566.52 c 4
 204.01 553.301 217.965 543.387 233.754 536.777 c 4
 249.543 530.167 265.333 525.761 281.123 523.559 c 4
 296.912 521.354 314.354 520.253 333.448 520.253 c 4
 344.464 520.253 356.766 520.438 370.352 520.805 c 4
 383.938 521.171 397.157 521.722 410.01 522.457 c 4
 422.862 523.191 434.061 523.559 443.608 523.559 c 4
 470.781 523.559 492.813 519.519 509.704 511.439 c 4
 511.908 510.705 513.376 510.339 514.111 510.339 c 4
 518.517 510.339 520.72 513.276 520.72 519.151 c 6
 520.72 520.253 l 6
EndSplineSet
EndChar

StartChar: k
Encoding: 107 107 41
Width: 336
VWidth: 0
Flags: HMW
LayerCount: 2
Fore
SplineSet
42.0156 24.2578 m 5
 41.1514 24.2578 l 6
 39.999 24.835 39.4229 25.6992 39.4229 26.8516 c 4
 39.4229 29.1562 40.8633 30.8848 43.7441 32.0371 c 6
 50.6602 35.4951 l 5
 54.6934 99.458 56.71 161.404 56.71 221.333 c 4
 56.71 331.971 47.7783 476.318 33.3721 550.653 c 4
 32.3838 557.332 23 556.497 23 561.89 c 4
 23.0049 562.025 23.0068 562.18 23.0068 562.348 c 4
 23.0068 562.58 23.0039 562.838 23.0039 563.107 c 4
 23.0039 564.435 23.0713 566.037 23.8652 566.212 c 4
 71.9961 577.074 108.315 588.879 133.231 601.651 c 4
 139.927 604.992 148.615 608.688 153.62 628.565 c 4
 154.097 629.717 154.812 630.173 155.594 630.173 c 4
 157.597 630.173 160.039 627.182 160.039 625.225 c 4
 160.039 625.144 160.034 625.065 160.025 624.988 c 4
 152.438 574.854 148.882 461.391 148.789 413.221 c 4
 148.789 411.347 150.202 410.53 151.549 410.42 c 4
 151.616 410.415 151.685 410.412 151.754 410.412 c 4
 153.456 410.412 155.728 412.052 159.163 414.085 c 4
 183.828 428.683 205.082 451.252 223.989 481.505 c 4
 224.814 482.825 225.39 483.21 225.803 483.21 c 4
 226.038 483.21 226.222 483.086 226.37 482.938 c 4
 226.777 482.53 227.351 481.265 227.913 480.08 c 4
 243.785 446.607 267.653 410.17 302.074 405.412 c 4
 306.096 404.805 307.969 403.006 307.969 400.937 c 4
 307.969 399.436 306.984 397.793 305.121 396.358 c 4
 302.058 394 298.036 391.179 294.002 388.586 c 4
 269.73 371.515 236.471 343.229 217.074 318.141 c 5
 242.247 287.155 270.087 261.824 308.696 245.535 c 4
 309.945 245.044 313.782 243.855 313.782 242.219 c 4
 313.782 241.896 313.632 241.555 313.281 241.198 c 4
 286.339 217.305 258.228 192.048 250.784 158.234 c 4
 248.883 149.593 247.808 139.475 247.808 129.182 c 4
 247.808 104.48 253.997 78.7666 269.8 70.0107 c 5
 270.664 70.0107 l 5
 267.133 75.8232 265.158 82.7598 265.158 88.9453 c 4
 265.158 97.9639 269.358 105.383 279.058 105.383 c 4
 279.199 105.383 279.342 105.381 279.486 105.378 c 4
 293.231 105.074 303.028 94.9785 305.795 84.0293 c 4
 306.087 82.873 306.223 81.6895 306.223 80.4941 c 4
 306.223 73.4736 301.542 66.0391 296.357 61.332 c 4
 290.842 56.3223 282.309 54.501 275.004 54.501 c 4
 274.708 54.501 274.413 54.5039 274.121 54.5107 c 4
 260.126 54.7939 248.314 69.5303 243.438 80.0088 c 4
 239.115 89.5166 235.081 102.194 231.336 118.041 c 4
 227.591 133.889 226.089 143.239 224.854 145.269 c 4
 196.737 191.424 187.312 204 162.75 226.98 c 4
 160.335 229.24 155.944 233.878 152.703 233.878 c 4
 151.424 233.878 150.323 233.155 149.595 231.278 c 4
 149.52 230.681 149.492 229.812 149.492 228.794 c 4
 149.492 226.303 149.654 222.923 149.654 220.468 c 4
 149.654 192.809 151.383 153.048 154.841 101.187 c 4
 154.841 100.034 155.679 99.5244 156.569 98.5938 c 4
 168.411 86.2129 179.186 76.4082 189.846 70.0693 c 4
 200.506 63.7314 212.752 60.5615 226.582 60.5615 c 4
 233.497 60.5615 237.531 60.2734 238.684 59.6973 c 4
 239.836 59.1211 240.412 57.9688 240.412 56.2393 c 4
 240.412 53.3584 237.531 50.4785 231.769 47.5967 c 4
 199.201 33.7549 182.761 5.84082 168.67 -21.1465 c 4
 164.061 -30.3652 161.565 -36.1553 160.891 -38.4336 c 4
 160.553 -39.5732 159.727 -40.1035 158.844 -40.1035 c 4
 158.169 -40.1035 157.461 -39.7939 156.913 -39.209 c 4
 126.579 0.268555 101.215 26.2207 61.8154 26.2207 c 4
 55.5801 26.2207 49.0039 25.582 42.0156 24.2578 c 5
154.841 249.856 m 4
 162.62 269.564 184.229 298.549 218.803 337.156 c 4
 218.822 337.368 218.832 337.58 218.832 337.789 c 4
 218.832 339.604 218.121 341.275 217.074 342.343 c 4
 202.811 360.94 171.781 388.976 148.409 394.22 c 5
 147.402 366.561 146.196 329.666 146.196 292.21 c 4
 146.196 271.466 146.65 256.479 148.38 247.835 c 4
 148.673 246.565 150.245 245.871 151.397 245.871 c 4
 153.703 245.871 153.969 247.646 154.841 249.856 c 4
EndSplineSet
EndChar

StartChar: p
Encoding: 112 112 42
Width: 394
VWidth: 0
Flags: HMW
LayerCount: 2
Fore
SplineSet
95.2852 -89.1855 m 4
 92.8721 -88.5811 91.125 -87.291 91.125 -85.5723 c 4
 91.125 -84.8164 91.4629 -83.9775 92.2305 -83.0771 c 4
 94.2207 -74.6104 106.343 -30.4492 106.343 -3.14258 c 4
 106.343 5.26367 105.194 12.0723 102.248 15.751 c 5
 81.0371 19.8408 66.0039 22.6465 45.9863 22.6465 c 4
 42.3633 22.6465 38.5752 22.5537 34.5586 22.3594 c 4
 31.7773 19.8164 30.2441 16.583 27.8545 9.56934 c 5
 23 9.56934 l 5
 30.7949 29.5498 38.0107 47.4961 46.417 64.5469 c 4
 47.7744 67.2617 50.6797 71.3428 56.5977 72.6924 c 4
 60.9619 73.6865 65.5098 74.085 70.0752 74.085 c 4
 81.625 74.085 93.292 71.5352 102.412 69.6377 c 5
 103.091 109.005 103.43 152.104 103.43 198.936 c 4
 103.43 250.52 102.751 289.547 101.395 316.017 c 5
 85.4229 339.771 63 356.74 34.1289 366.921 c 4
 33.3789 367.217 33.0996 367.812 33.0996 368.524 c 4
 33.0996 370.114 34.4131 372.364 35.1465 373.029 c 4
 69.3691 404.05 89.5293 424.21 110.557 459.568 c 4
 111.807 461.671 114.29 461.604 115.647 461.604 c 4
 118.362 461.604 118.58 460.237 119.72 458.551 c 4
 138.595 425.854 171.013 393.94 202.327 393.392 c 5
 235.028 402.824 266.521 445.855 276.647 470.768 c 4
 278.005 473.482 280.72 474.839 284.792 474.839 c 4
 286.829 474.839 288.185 474.16 288.864 472.804 c 4
 292.258 451.763 301.251 435.305 315.844 423.426 c 4
 327.967 411.548 344.459 401.536 365.322 393.392 c 4
 369.395 392.035 371.432 391.018 371.432 390.339 c 4
 371.432 388.302 367.136 387.549 361.251 383.212 c 4
 353.899 377.795 351.409 369.977 350.052 363.867 c 4
 352.599 320.963 353.956 280.681 353.956 241.127 c 4
 353.956 187.262 351.438 134.746 345.979 78.8008 c 4
 345.979 77.4424 346.317 76.4248 346.997 75.7451 c 4
 350.056 73.6416 351.425 69.457 351.425 65.7432 c 4
 351.425 61.8926 349.954 58.5469 347.368 58.5469 c 4
 346.795 58.5469 346.168 58.7119 345.49 59.0713 c 4
 339.157 62.4248 332.674 63.8945 326.202 63.8945 c 4
 299.147 63.8945 272.314 29.584 261.377 7.5332 c 4
 259.138 4.61816 256.764 3.36816 254.709 3.36816 c 4
 251.581 3.36816 249.195 6.26367 249.159 10.5879 c 4
 249.159 13.3027 248.819 15.1689 248.141 16.1865 c 4
 247.461 17.2061 246.104 17.7148 244.068 17.7148 c 4
 228.146 17.9355 219.797 18.4141 199.271 18.7334 c 4
 194.52 18.0537 191.807 15.6787 191.127 11.6064 c 4
 188.413 -2.64746 187.056 -16.9014 187.056 -23.0098 c 5
 200.741 -37.3516 218.434 -51.6611 241.015 -56.8613 c 4
 248.805 -58.6553 254.438 -60.8877 254.438 -64.0557 c 4
 254.438 -65.4004 253.422 -66.9131 251.125 -68.6328 c 4
 222.923 -97.6943 211.358 -142.25 206.398 -179.287 c 4
 205.849 -181.214 204.107 -182.247 202.263 -182.247 c 4
 200.695 -182.247 199.052 -181.501 197.999 -179.924 c 4
 175.848 -115.565 137.406 -100.851 95.2852 -89.1855 c 4
266.467 345.542 m 4
 263.073 353.687 255.438 361.661 243.559 369.467 c 4
 232.484 376.744 222.127 381.247 212.545 381.247 c 4
 211.85 381.247 211.159 381.223 210.472 381.174 c 4
 206.234 380.878 201.142 378.874 200.29 375.066 c 4
 191.206 305.044 187.901 237.539 187.901 173.06 c 4
 187.901 140.508 188.743 108.727 190.109 77.7822 c 5
 190.109 76.7637 l 6
 190.109 72.6914 191.212 68.6221 195.317 68.1973 c 4
 209.324 66.7471 221.154 65.6836 232.966 65.6836 c 4
 241.495 65.6836 250.015 66.2383 259.339 67.6006 c 5
 268.438 114.88 271.55 173.772 271.55 227.73 c 4
 271.55 274.173 269.244 316.961 266.467 345.542 c 4
EndSplineSet
EndChar

StartChar: t
Encoding: 116 116 43
Width: 308
VWidth: 0
Flags: HMW
LayerCount: 2
Fore
SplineSet
176 573 m 0
 177.1 573 178.152 572.522 178.152 572.188 c 0
 178.152 572.116 178.104 572.052 178 572 c 2
 178 571 l 1
 177 569 l 1
 165.667 536.333 158.333 483.667 155 411 c 0
 155 405.667 159.333 403 168 403 c 0
 178 402.333 190.333 401.5 205 400.5 c 0
 219.667 399.5 230.667 399 238 399 c 1
 240 405 244.333 410.5 251 415.5 c 0
 257.667 420.5 263.667 423 269 423 c 0
 273 422.333 276.667 420.667 280 418 c 0
 283.333 415.333 285 412.333 285 409 c 2
 285 408 l 2
 285 397.333 279.333 392 268 392 c 0
 262 392 257 393.667 253 397 c 0
 250.333 397 248.333 393.667 247 387 c 0
 237.667 344.333 233 299 233 251 c 0
 233 233.667 233.667 216.333 235 199 c 1
 237 199.667 239.5 200.833 242.5 202.5 c 0
 245.5 204.167 248 205 250 205 c 0
 251.333 205 252.667 204.667 254 204 c 0
 261.333 202.667 265.667 198.333 267 191 c 0
 267.667 189.667 268 188 268 186 c 0
 268 176 263.667 166.667 255 158 c 0
 251.667 155.333 247 154 241 154 c 0
 238.333 154 236 154.333 234 155 c 0
 224.667 158.333 219.667 164.333 219 173 c 0
 217 207.667 216 239.333 216 268 c 2
 216 306 l 2
 216 308.667 205 310.333 183 311 c 2
 169 311 l 1
 160 311 l 2
 158 309.667 156.667 307 156 303 c 2
 156 276 l 1
 156 226 l 1
 156 177 l 1
 156 142 l 1
 178.667 110.667 203.333 92 230 86 c 0
 243.333 83.333 250 80 250 76 c 0
 250 74.667 248.333 73.667 245 73 c 0
 191.667 63.667 159.333 28.667 148 -32 c 0
 145.333 -38 142 -41 138 -41 c 2
 137 -41 l 2
 133.667 -41 132 -38.333 132 -33 c 2
 132 -32 l 1
 112.667 16 82.333 43 53 49 c 0
 50.333 49.667 47.167 50.167 43.5 50.5 c 0
 39.833 50.833 37 51.167 35 51.5 c 0
 33 51.833 31.667 52.667 31 54 c 0
 31 58.667 32.667 61.333 36 62 c 0
 42.667 64 48 67.333 52 72 c 0
 54 74 55.667 78.667 57 86 c 2
 59 135 l 2
 61 192.333 62 247.667 62 301 c 0
 62 352.333 61 402 59 450 c 2
 59 451 l 1
 59 457 l 2
 57 456.333 54 455.167 50 453.5 c 0
 46 451.833 41.333 449.833 36 447.5 c 0
 30.667 445.167 26.667 443.667 24 443 c 0
 23.333 443.667 23 444.333 23 445 c 2
 23 447 l 1
 30.333 450.333 37.333 453.667 44 457 c 0
 50.667 460.333 56.5 463.333 61.5 466 c 0
 102.935 490.843 132.031 520.179 157.5 550.5 c 0
 164.5 558.833 168.667 564 170 566 c 0
 170.667 566.667 171.333 567.667 172 569 c 0
 172.667 570.333 173.333 571.333 174 572 c 0
 174.667 572.667 175.333 573 176 573 c 0
277 409 m 0
 275.667 412.333 272.667 414 268 414 c 2
 267 414 l 2
 261.667 412.667 259 410 259 406 c 0
 259 402 261.333 399.333 266 398 c 2
 269 398 l 2
 271 398 273 398.667 275 400 c 0
 277 402 278 404.333 278 407 c 0
 278 407.667 277.667 408.333 277 409 c 0
251 192 m 2
 248 192 l 2
 244.667 192 241.333 190.833 238 188.5 c 0
 234.667 186.167 232.667 183.333 232 180 c 2
 232 179 l 2
 232 176.333 233.167 173.667 235.5 171 c 0
 237.833 168.333 240.333 167 243 167 c 0
 246.333 167 249.333 168.333 252 171 c 0
 254.667 173.667 256.333 176.333 257 179 c 2
 257 181 l 2
 257 187 255 190.667 251 192 c 2
EndSplineSet
EndChar

StartChar: q
Encoding: 113 113 44
Width: 392
VWidth: 0
Flags: HMW
LayerCount: 2
Fore
SplineSet
294.854 -185.394 m 0
 282.644 -152.279 244.788 -131.29 212.925 -130.156 c 0
 210.984 -130.087 210.015 -129.398 210.015 -128.139 c 0
 210.015 -128.101 210.016 -128.063 210.018 -128.024 c 0
 210.047 -127.358 210.198 -126.329 211.105 -126.07 c 0
 212.388 -125.706 215.372 -122.292 215.768 -119.572 c 0
 219.81 -51.9277 220.016 13.8711 221.842 84.6895 c 0
 220.569 86.0811 219.267 86.8066 217.935 86.8662 c 0
 217.9 86.8675 217.864 86.8682 217.829 86.8682 c 0
 216.519 86.8682 214.968 85.7976 212.806 84.0918 c 0
 191.553 69.5322 176.494 44.6123 165.274 11.457 c 0
 164.679 10.2412 163.188 7.53418 161.647 7.38184 c 0
 159.839 7.2037 158.245 7.11816 156.814 7.11816 c 0
 154.673 7.11816 152.901 7.31001 151.336 7.66992 c 0
 150.037 7.96875 148.702 8.45508 147.43 9.8457 c 0
 130.682 42.9287 111.859 59.9834 68.9199 67.4062 c 0
 65.8179 67.8698 64.0742 71.0975 64.0742 73.4717 c 0
 64.0742 73.8883 64.1279 74.2786 64.2373 74.623 c 0
 66.0312 79.2451 70.6338 83.376 70.8555 88.3408 c 0
 67.6895 170.214 65.999 223.354 64.7773 310.834 c 0
 63.4756 311.56 62.4912 311.938 61.8252 311.967 c 0
 61.757 311.97 61.688 311.972 61.6182 311.972 c 0
 59.6404 311.972 56.9859 310.757 53.6553 308.328 c 0
 38.5273 298.326 29.5859 292.386 26.833 290.507 c 2
 25.7891 289.553 l 2
 23.9292 289.635 23 291.123 23 294.014 c 0
 23 294.229 23.0052 294.451 23.0156 294.682 c 0
 23.0449 295.348 23.582 296.157 24.626 297.112 c 0
 102.49 359.081 157.611 402.815 208.658 463.161 c 0
 210.001 464.451 210.778 465 211.936 465 c 0
 212.038 465 212.142 464.996 212.251 464.987 c 0
 213.122 464.92 213.521 464.446 214.379 463.454 c 0
 250.239 417.333 280.987 401.252 324.52 401.252 c 0
 328.912 401.252 333.434 401.416 338.105 401.729 c 0
 340.104 401.639 341.712 401.546 343.057 400.506 c 0
 344.594 399.316 345.74 397.318 345.83 395.377 c 0
 312.23 338.385 299.853 146.901 299.853 4.48828 c 0
 299.853 -9.6241 299.974 -23.2546 300.209 -36.2246 c 0
 301.688 -60.0361 340.688 -77.0957 360.318 -79.9502 c 0
 364.276 -80.5264 366.797 -80.5732 367.766 -81.2842 c 0
 368.461 -81.7939 369.771 -83.1919 369.771 -84.6475 c 0
 369.771 -85.2219 369.567 -85.8053 369.041 -86.3467 c 0
 334.702 -109.976 311.549 -153.092 305.478 -186.429 c 0
 304.742 -190.466 302.121 -193.361 299.818 -193.361 c 0
 299.778 -193.361 299.738 -193.36 299.697 -193.358 c 0
 297.366 -193.255 296.008 -189.449 294.854 -185.394 c 0
222.689 103.671 m 1
 226.483 175.655 228.532 234.438 231.835 308.377 c 2
 231.879 309.376 l 2
 231.902 309.906 231.914 310.434 231.914 310.959 c 0
 231.914 334.207 208.744 353.065 162.405 367.534 c 1
 158.666 330.048 156.854 292.716 156.854 256.282 c 0
 156.854 214.002 159.294 172.931 163.996 134.23 c 1
 192.557 116.271 213.454 106.085 222.689 103.671 c 1
EndSplineSet
EndChar

StartChar: l
Encoding: 108 108 45
Width: 278
VWidth: 0
Flags: HMW
LayerCount: 2
Fore
SplineSet
167.449 -37.3428 m 4
 147.192 2.05762 107.335 30.165 68.3711 30.165 c 4
 67.9639 30.165 67.5557 30.1621 67.1484 30.1572 c 4
 63.7451 30.5117 59.3906 30.5762 57.249 32.8564 c 4
 58.0645 37.3174 63.292 38.3066 64.4492 41.8564 c 4
 69.6123 106.604 71.6436 173.404 71.6436 240.12 c 4
 71.6436 328.222 68.1006 416.176 63.5488 499.057 c 4
 63.5488 501.457 62.3496 502.657 59.9492 502.657 c 4
 47.2393 500.957 38.666 495.759 23.9492 490.057 c 4
 23.8916 490.044 23.8359 490.038 23.7842 490.038 c 4
 23.2178 490.038 23 490.768 23 491.798 c 4
 23 494.142 24.1279 498.043 24.8486 498.453 c 4
 81.0104 523.55 137.525 559.673 170.148 603.457 c 4
 171.462 605.263 172.015 606.895 172.015 607.888 c 4
 172.015 608.088 171.992 608.263 171.949 608.407 c 4
 171.655 609.391 171.186 609.726 170.643 609.726 c 4
 169.767 609.726 168.7 608.854 167.876 608.43 c 6
 166.549 608.856 l 5
 173.041 616.094 180.287 624.046 189.049 624.157 c 4
 190.043 624.157 190.976 623.667 190.976 622.88 c 4
 190.976 622.718 190.936 622.542 190.849 622.356 c 4
 183.252 606.123 176.337 597.789 165.648 582.757 c 5
 170.039 500.827 172.01 416.969 172.01 335.201 c 4
 172.01 260.779 170.377 188.088 167.449 120.157 c 5
 183.668 92.9697 222.451 73.3564 252.949 73.3564 c 4
 254.149 73.3564 254.899 73.0566 255.199 72.457 c 4
 255.498 71.8564 255.648 70.957 255.648 69.7568 c 4
 255.648 64.3564 252.41 62.4961 247.549 59.8564 c 4
 206.516 36.0146 185.391 7.69727 174.648 -34.6436 c 4
 173.886 -36.8594 171.765 -39.0195 169.854 -39.0195 c 4
 168.95 -39.0195 168.093 -38.5352 167.449 -37.3428 c 4
EndSplineSet
EndChar

StartChar: m
Encoding: 109 109 46
Width: 582
VWidth: 0
Flags: HMW
LayerCount: 2
Fore
SplineSet
415.234 475.593 m 2
 415.888 475.566 416.475 475.074 417.599 474.019 c 0
 418.877 472.817 419.993 470.616 420.301 468.689 c 0
 442.229 412.597 473.807 407.075 515.909 399.153 c 0
 518.754 398.102 520.938 397.29 521.188 395.082 c 0
 521.213 394.858 521.226 394.639 521.226 394.422 c 0
 521.226 391.524 518.983 389.28 515.01 387.577 c 0
 511.349 386.008 507.115 382.224 504.028 377.758 c 0
 498.596 369.902 493.582 354.751 493.505 351.556 c 0
 489.279 300.043 488.113 252.376 488.113 204.488 c 0
 488.113 166.514 488.847 128.4 489.369 88.1201 c 0
 489.594 83.748 491.275 82.7109 493.214 82.7109 c 0
 493.467 82.7109 493.725 82.7285 493.983 82.7588 c 0
 502.852 69.1689 523.651 59.75 546.757 54.4219 c 0
 549.635 53.7588 559.512 54.6621 559.512 53.1055 c 0
 559.512 51.0146 555.354 46.6758 552.366 45.6504 c 0
 508.58 30.7354 490.881 5.60254 473.492 -33.1934 c 0
 472.638 -34.9854 470.375 -35.96 468.414 -35.96 c 0
 466.877 -35.96 465.525 -35.3613 465.184 -34.0869 c 0
 464.354 -30.916 462.597 -25.4053 460.218 -21.6162 c 0
 441.071 8.88379 427.474 32.1797 387.199 49.5332 c 0
 386.738 49.5684 386.294 49.585 385.86 49.585 c 0
 383.544 49.585 381.778 48.2686 378.707 46.5195 c 0
 346.481 34.0918 330.608 8.12598 321.953 -15.0557 c 0
 321.953 -20.2705 319.361 -27.0195 316.277 -27.2266 c 0
 309.572 -27.4238 307.168 -29.6875 304.498 -29.6875 c 0
 303.685 -29.6875 302.847 -29.4775 301.855 -28.9365 c 0
 298.294 -26.9873 297.484 -19.2314 296.542 -17.9775 c 0
 270.357 16.8936 251.03 26.6875 217.284 31.8418 c 0
 215.008 32.1855 212.819 32.3506 210.713 32.3506 c 0
 175.431 32.3506 161.199 -6.74902 141.203 -35.7227 c 0
 140.349 -37.5146 138.086 -38.4893 136.126 -38.4893 c 0
 134.59 -38.4893 133.239 -37.8906 132.897 -36.6162 c 0
 132.068 -33.4453 130.31 -27.9346 127.931 -24.1455 c 0
 114.666 -2.80176 100.297 18.6592 56.6152 39.3955 c 1
 75.3633 48.0693 73.0078 80.6465 73.3877 87.7383 c 0
 73.4033 130.511 75.6631 183.408 75.6631 238.095 c 0
 75.6631 274.98 74.8506 312.681 72.1348 348.637 c 1
 61.3994 383.754 31.123 377.643 23 387.086 c 1
 44.499 401.2 85.4287 436.327 91.5039 469.79 c 0
 91.4932 470.007 91.4873 470.211 91.4873 470.402 c 0
 91.4873 472.213 91.9961 472.981 93.6475 473.925 c 0
 94.4551 474.387 94.9951 474.67 95.4639 474.74 c 0
 95.541 474.753 95.6172 474.759 95.6914 474.759 c 0
 96.3672 474.759 96.9531 474.271 98.1094 473.184 c 0
 99.3887 471.982 100.507 469.78 100.814 467.854 c 0
 120.118 419.214 135.051 409.181 169.908 402.151 c 1
 199.559 420.399 224.617 445.316 246.562 471.018 c 0
 247.859 472.66 250.31 473.291 252.893 473.291 c 0
 254.935 473.291 257.06 472.896 258.763 472.298 c 0
 263.862 470.505 267.641 465.602 270.281 460.885 c 0
 286.339 432.667 306.11 410.143 342.272 399.565 c 0
 343.568 399.226 344.956 399.012 346.468 399.012 c 0
 348.931 399.012 351.725 399.578 354.989 401.086 c 0
 374.822 415 405.387 437.637 410.991 470.625 c 0
 410.979 470.842 410.974 471.046 410.974 471.238 c 0
 410.974 473.05 411.482 473.817 413.134 474.762 c 0
 413.941 475.223 414.481 475.506 414.95 475.576 c 0
 415.026 475.588 415.101 475.595 415.174 475.595 c 0
 415.194 475.595 415.214 475.594 415.234 475.593 c 2
353.458 388.525 m 1
 346.294 383.907 l 2
 328.096 372.683 327.106 361.52 323.651 339.307 c 0
 318.78 263.2 313.698 185.726 313.263 105.018 c 0
 313.262 104.911 313.262 104.805 313.262 104.699 c 0
 313.262 98.1299 315.289 94.1357 320.867 89.6318 c 0
 345.931 69.4844 363.593 60.4053 378.981 60.4053 c 0
 384.74 60.4053 390.09 62.5059 395.474 66.4854 c 0
 404.907 71.6924 405.655 77.7061 405.655 83.4199 c 0
 405.655 84.4971 405.629 85.5635 405.629 86.6123 c 0
 405.629 87.2734 405.64 87.9277 405.674 88.5732 c 0
 405.687 122.996 406.127 164.302 406.127 207.677 c 0
 406.127 254.552 405.611 303.843 403.481 349.472 c 0
 402.778 353.306 397.106 359.603 394.217 362.277 c 0
 382.332 372.659 373.219 379.068 360.01 386.046 c 2
 353.458 388.525 l 1
184.95 382.741 m 0
 180.587 380.81 176.182 378.042 172.682 374.922 c 0
 167.25 367.666 162.236 353.67 162.159 350.72 c 0
 157.195 299.197 155.826 251.522 155.826 203.625 c 0
 155.826 165.659 156.559 127.555 157.08 87.2842 c 0
 158.274 71.168 198.228 56.3525 220.115 53.5869 c 0
 221.109 53.3574 222.976 53.3203 224.944 53.2988 c 0
 224.973 53.3643 225.002 53.4199 225.03 53.4854 c 0
 226.147 56.0117 226.309 56.0928 226.636 57.4951 c 0
 227.198 59.8936 227.029 62.4736 227.215 64.8633 c 0
 231.573 121.077 232.031 246.797 233.355 333.919 c 0
 233.368 334.841 233.395 335.756 233.395 336.656 c 0
 233.395 338.927 233.227 341.106 232.237 343.071 c 0
 230.396 346.729 226.347 348.761 223.331 351.531 c 0
 211.736 361.51 200.95 372.027 188.022 380.926 c 0
 187.161 381.561 186.115 382.169 184.95 382.741 c 0
EndSplineSet
EndChar

StartChar: o
Encoding: 111 111 47
Width: 338
VWidth: 0
Flags: HMW
LayerCount: 2
Fore
SplineSet
167.731 -38.5615 m 0
 146.741 -11.1855 100.998 17.6465 56.9062 21.7871 c 0
 55.4531 21.9209 54.9473 22.7373 54.9473 23.7354 c 0
 54.9473 24.6826 55.4014 25.7939 55.9346 26.6465 c 0
 59.7158 30.04 65.0088 29.4805 68.5713 33.4512 c 0
 70.9609 83.998 72.4863 134.028 72.4863 187.479 c 0
 72.4863 234.08 71.3271 283.282 68.5713 337.698 c 0
 67.2744 342.234 65.3301 344.502 62.7383 344.502 c 0
 62.7363 344.502 l 0
 57.5068 344.502 32.6816 327.798 25.7998 324.09 c 0
 24.1836 324.751 23 326.215 23 327.456 c 0
 23 328.038 23.2598 328.57 23.8584 328.949 c 0
 101.638 378.858 155.604 418.236 208.532 469.79 c 0
 209.532 470.755 210.999 473.614 212.849 473.614 c 0
 212.928 473.614 213.006 473.609 213.086 473.599 c 0
 214.917 473.354 215.338 471.665 216.262 469.054 c 0
 226.882 437.143 264.792 394.075 296.395 394.075 c 0
 296.488 394.075 296.584 394.075 296.678 394.076 c 0
 297.572 394.082 298.45 394.094 299.307 394.094 c 0
 304.79 394.094 309.351 393.617 311.257 388.245 c 0
 304.692 363.154 298.729 241.976 298.729 154.489 c 0
 298.729 116.655 299.845 85.123 302.509 70.3887 c 0
 303.124 66.9814 306.344 65.5273 310.19 65.5273 c 0
 310.285 65.5273 l 0
 310.319 65.5273 l 0
 314.062 65.5273 315.117 61.7725 315.146 59.6953 c 0
 313.087 51.2236 303.641 51.6826 296.678 50.9473 c 0
 266.916 47.668 204.735 2.87891 176.377 -37.0234 c 0
 175.167 -39.1387 173.423 -39.9766 171.679 -39.9766 c 0
 170.269 -39.9766 168.859 -39.4277 167.731 -38.5615 c 0
213.312 64.5547 m 0
 217.034 126.427 219.356 204.432 219.356 266.63 c 0
 219.356 291.615 218.981 314.05 218.172 331.864 c 1
 195.997 358.968 178.936 377.588 164.709 383.385 c 0
 164.202 383.59 163.723 383.687 163.273 383.687 c 0
 160.523 383.687 158.876 380.062 158.876 375.606 c 0
 156.944 309.53 155.218 245.33 155.218 186.342 c 0
 155.218 154.776 155.713 124.704 156.935 96.6338 c 2
 156.935 95.6611 l 2
 156.935 91.7725 158.383 89.0469 160.819 86.9131 c 0
 173.942 75.4307 189.334 65.2041 207.48 56.7793 c 0
 208.228 56.3975 208.877 56.2285 209.442 56.2285 c 0
 212.577 56.2285 213.124 61.4355 213.312 64.5547 c 0
EndSplineSet
EndChar

StartChar: s.s01
Encoding: 983050 983050 48
Width: 350
VWidth: 0
Flags: HMW
LayerCount: 2
Fore
SplineSet
197.023 479.085 m 4
 197.701 479.052 198.574 478.743 198.818 478.127 c 4
 206.358 469.901 213.897 462.877 221.438 457.05 c 4
 228.978 451.223 237.203 444.884 246.114 438.028 c 4
 255.025 431.174 263.251 425.005 270.791 419.521 c 4
 272.847 416.778 273.875 414.38 273.875 412.324 c 6
 273.875 410.269 l 5
 273.875 409.239 l 5
 274.39 409.754 l 5
 276.96 411.811 l 6
 278.674 413.181 280.045 414.381 281.073 415.408 c 4
 288.613 420.892 295.811 423.976 302.665 424.662 c 6
 303.692 424.662 l 6
 315.542 424.339 325.102 415.985 325.283 405.128 c 4
 324.588 390.124 315.465 384.771 306.776 384.563 c 4
 304.034 384.563 300.824 384.97 297.523 386.619 c 4
 293.948 388.406 292.383 391.76 292.383 395.873 c 4
 292.383 402.042 295.81 406.155 302.665 408.211 c 4
 306.091 409.582 307.805 411.638 307.805 414.38 c 4
 307.119 415.065 306.262 415.408 305.234 415.408 c 4
 304.206 415.408 302.321 415.065 299.579 414.38 c 4
 293.41 411.638 285.527 404.784 275.932 393.817 c 4
 256.054 371.883 243.716 348.919 238.917 324.929 c 5
 252.23 295.747 296.569 264.273 325.283 262.211 c 4
 326.368 261.94 327.007 261.769 327.111 260.689 c 4
 327.113 260.666 327.114 260.642 327.114 260.617 c 4
 327.114 259.958 326.305 258.904 325.283 258.098 c 4
 312.757 216.961 306.87 177.131 306.87 142.03 c 4
 306.87 117.089 309.842 94.5352 315.517 75.5967 c 4
 316.544 73.8828 317.058 72.3408 317.058 70.9697 c 4
 315.002 64.7998 311.575 61.7158 306.776 61.7158 c 4
 301.259 63.1123 295.625 63.7676 289.931 63.7676 c 4
 236.609 63.7676 178.102 6.37012 161.324 -36.5518 c 4
 159.583 -37.7461 157.823 -38.3027 155.947 -38.3027 c 4
 154.247 -38.3027 152.454 -37.8447 150.494 -36.9893 c 4
 136.951 2.66602 94.6973 54.2949 61.043 75.083 c 5
 57.958 70.9697 l 6
 54.3613 68.3984 43.8291 50.9492 43.8291 42.3018 c 4
 43.8291 41.0107 44.0645 39.915 44.5918 39.0957 c 4
 45.0137 38.4404 45.4922 38.1543 46.0078 38.1543 c 4
 48.9404 38.1543 53.1123 47.3809 55.3877 50.4062 c 4
 56.416 51.7764 57.4434 52.9766 58.4717 54.0049 c 6
 60.0146 55.5459 l 5
 60.0146 54.5186 l 6
 60.0146 53.1475 59.6719 50.9199 58.9854 47.8359 c 4
 56.8027 39.2686 46.9717 26.1553 39.4512 25.7305 c 4
 35.3379 25.7305 33.2822 29.1572 33.2822 36.0117 c 4
 33.2822 42.8672 34.3096 48.8643 36.3652 54.0049 c 4
 38.4209 59.1455 42.7061 66.8574 49.2188 77.1396 c 4
 55.7295 87.4209 62.4131 97.3594 69.2676 106.955 c 4
 76.1221 116.551 83.3203 126.663 90.8604 137.287 c 4
 98.3994 147.911 103.198 154.938 105.254 158.364 c 4
 105.94 159.05 106.282 160.078 106.282 161.449 c 4
 106.282 162.819 105.596 164.533 104.226 166.589 c 4
 84.4336 193.186 62.1914 204.633 35.3379 204.633 c 4
 31.5625 205.307 28.6875 205.504 26.085 206.688 c 5
 37.208 222.496 42.9092 233.269 50.7607 248.845 c 5
 50.915 254.932 50.9863 261.362 50.9863 268.021 c 4
 50.9863 303.726 48.9434 345.934 46.6475 376.338 c 4
 46.6475 377.709 46.3057 378.395 45.6201 378.395 c 4
 38.375 377.399 32.9688 376.458 25.0557 374.561 c 4
 23.6855 374.561 23 375.652 23 378.395 c 4
 23 379.08 24.2686 379.417 26.668 380.103 c 4
 32.6455 381.299 37.2627 382.259 43.5645 383.536 c 4
 98.3994 399.986 148.78 431.517 194.705 478.127 c 4
 195.472 478.773 196.11 479.089 196.88 479.089 c 4
 196.927 479.089 196.976 479.088 197.023 479.085 c 4
300.348 394.732 m 4
 300.926 391.849 304.322 389.104 307.304 389.104 c 4
 307.482 389.104 307.658 389.114 307.834 389.134 c 4
 311.302 389.536 315.076 393.468 315.076 396.992 c 4
 315.076 397.229 315.06 397.465 315.023 397.697 c 4
 314.524 400.957 310.357 403.839 306.901 403.839 c 4
 306.466 403.839 306.042 403.793 305.637 403.697 c 4
 302.629 402.979 300.238 399.121 300.238 395.882 c 4
 300.238 395.486 300.273 395.103 300.348 394.732 c 4
140.212 391.76 m 5
 139.184 391.76 l 5
 138.155 389.704 l 5
 138.155 388.677 l 6
 134.729 356.461 133.015 333.498 133.015 319.789 c 4
 133.015 297.854 136.441 281.403 143.296 270.436 c 4
 144.667 267.693 147.923 264.438 153.064 260.668 c 4
 158.205 256.898 161.805 255.014 163.86 255.014 c 6
 165.917 255.014 l 5
 191.964 298.883 206.017 322.531 208.072 325.958 c 4
 208.758 328.014 209.1 329.898 209.1 331.612 c 4
 209.1 333.326 208.414 334.869 207.043 336.24 c 4
 181.682 360.915 159.404 379.422 140.212 391.76 c 5
172.086 239.59 m 4
 171.649 239.882 171.191 240.012 170.723 240.012 c 4
 168.739 240.012 166.552 237.696 164.889 235.478 c 4
 147.993 210.181 135.517 195.914 124.79 164.533 c 4
 124.306 163.117 124.099 161.748 124.099 160.438 c 4
 124.099 155.741 126.759 151.789 128.902 149.11 c 4
 136.442 140.199 159.748 116.209 202.931 73.0264 c 4
 205.673 70.2842 207.386 68.9131 208.072 68.9131 c 4
 218.278 112.855 224.727 153.832 227.607 203.605 c 6
 227.607 204.633 l 5
 202.246 218.342 184.646 231.216 172.086 239.59 c 4
EndSplineSet
EndChar

StartChar: x
Encoding: 120 120 49
Width: 444
VWidth: 0
Flags: HMW
LayerCount: 2
Fore
SplineSet
352.873 481.34 m 2
 352.932 481.34 l 0
 353.131 481.34 353.322 481.331 353.503 481.311 c 0
 355.874 481.038 356.346 480.502 356.429 477.975 c 0
 371.389 434.994 390.604 413.594 418.49 399.652 c 0
 420.08 397.573 420.952 396.035 420.952 394.188 c 0
 420.952 392.29 420.034 390.065 418.033 386.589 c 0
 416.299 385.69 410.419 383.285 410.419 383.285 c 1
 380.562 365.918 345.086 342.654 318.086 315.721 c 0
 301.527 299.202 295.334 285.343 276.511 259.198 c 0
 276.511 256.278 279.237 252.576 281.388 252.576 c 0
 299.8 247.021 320.111 248.364 339.446 247.735 c 2
 344.653 247.557 l 1
 344.226 237.011 l 1
 343.933 229.942 l 2
 343.929 229.85 343.927 229.755 343.927 229.66 c 0
 343.927 219.382 366.063 192.756 377.033 184.772 c 0
 377.96 184.772 378.833 181.044 379.136 180.741 c 0
 379.298 180.58 379.37 180.344 379.37 180.058 c 0
 379.37 178.455 377.096 175.3 375.445 175.057 c 0
 374.301 174.887 373.235 173.718 372.896 172.257 c 0
 372.486 170.491 371.536 169.654 369.696 169.438 c 0
 343.188 173.27 311.698 175.599 283.105 176.163 c 0
 283.078 176.164 283.05 176.164 283.021 176.164 c 0
 281.119 176.164 275.396 175.028 273.737 172.498 c 0
 272.909 159.664 272.291 147.535 272.291 134.486 c 0
 272.291 128.695 272.413 122.725 272.692 116.429 c 0
 272.839 112.559 276.998 110.237 280.152 108.389 c 0
 303.129 94.9258 322.478 86.1631 349.235 77.0176 c 0
 352.514 76.4023 355.554 75.541 355.991 75.1035 c 0
 356.098 74.998 356.145 74.793 356.145 74.5146 c 0
 356.145 72.5332 353.728 66.8369 352.671 66.8369 c 0
 310.405 53.6611 291.777 -1.44922 274.723 -35.7666 c 1
 273.299 -41.4834 l 2
 272.953 -42.8691 271.366 -43.9307 269.673 -43.9307 c 0
 268.258 -43.9307 266.77 -43.1895 265.867 -41.2764 c 0
 264.88 -39.1836 262.96 -27.7412 262.494 -26.8076 c 0
 242.375 13.5459 223.239 24.9072 181.32 43.9736 c 1
 123.164 37.4033 9.12988 -70.6309 -44.1426 -139.577 c 0
 -46.6631 -142.839 -48.0303 -148.562 -48.0303 -153.377 c 0
 -48.0303 -155.857 -47.668 -158.097 -46.9121 -159.633 c 0
 -46.8379 -159.771 -46.7451 -159.837 -46.6367 -159.837 c 0
 -44.8623 -159.837 -38.5674 -142.448 -27.21 -142.448 c 0
 -26.7803 -142.448 -26.3447 -142.473 -25.9004 -142.524 c 0
 -16.2998 -143.951 -8.46777 -156.632 -8.46777 -168.498 c 0
 -8.46777 -169.194 -8.49512 -169.889 -8.5498 -170.577 c 0
 -9.42383 -181.48 -17.0771 -191.134 -30.5957 -191.134 c 0
 -33.8516 -191.134 -37.4482 -190.574 -41.3721 -189.336 c 0
 -51.5215 -186.136 -57 -170.821 -57 -156.367 c 0
 -57 -148.63 -55.4307 -141.14 -52.166 -135.885 c 0
 -26.1445 -93.9961 40.4297 -40.7324 49.332 6.81836 c 0
 52.7402 17.0186 57.7578 43.3887 57.7578 56.9355 c 0
 57.7578 61.9736 57.0635 65.2373 55.335 65.2373 c 0
 53.4639 65.2373 50.3809 61.4141 45.6533 51.877 c 0
 45.4922 51.5537 45.2754 51.4092 45.0176 51.4092 c 0
 43.2881 51.4092 39.7432 57.9268 39.4023 60.4131 c 0
 39.3838 60.4609 39.375 60.5215 39.375 60.5918 c 0
 39.375 63.2686 52.1396 81.752 53.6914 83.3037 c 0
 80.2344 63.0771 104.729 48.165 133.957 48.165 c 0
 143.048 48.165 152.597 49.6074 162.808 52.7803 c 0
 167.191 54.1426 170.863 55.5264 171.632 59.5596 c 0
 175.638 80.5674 176.494 100.72 176.494 121.115 c 0
 176.494 134.765 176.109 148.522 176.03 162.719 c 0
 175.997 166.658 174.851 174.098 166.535 176.214 c 0
 158.952 177.736 150.8 178.362 142.325 178.362 c 0
 115.563 178.362 85.5859 172.127 60.1484 168.24 c 0
 59.3203 168.928 58.6426 170.257 58.6426 171.195 c 0
 70.9297 189.509 92.9443 214.44 104.861 240.709 c 0
 108.714 249.26 114.126 257.938 122.612 257.938 c 0
 123.479 257.938 124.378 257.849 125.311 257.657 c 0
 132.674 256.154 140.694 255.466 149.345 255.466 c 0
 156.585 255.466 164.267 255.948 172.375 256.839 c 0
 172.638 257.523 173.57 258.956 173.57 259.913 c 0
 173.57 260.109 173.531 260.284 173.439 260.43 c 0
 173.67 265.314 173.86 270.902 173.86 276.764 c 0
 173.86 285.947 173.394 295.806 171.88 304.688 c 0
 170.693 311.652 169.837 320.832 165.572 324.919 c 0
 146.699 350.618 118.145 367.905 89.2607 367.905 c 0
 86.4648 367.905 83.6641 367.743 80.8701 367.411 c 0
 80.5283 367.343 80.1201 367.311 79.6709 367.311 c 0
 78.1094 367.311 76.0498 367.704 74.5342 368.337 c 0
 71.6211 369.554 70.0566 371.901 70.0566 374.629 c 0
 70.0566 376.078 70.498 377.635 71.4141 379.185 c 0
 72.3594 380.784 73.3721 382.094 73.667 382.095 c 0
 114.761 415.694 132.849 438.101 167.743 475.436 c 0
 169.058 476.841 170.532 477.341 172 477.341 c 0
 173.723 477.341 175.438 476.653 176.877 475.936 c 0
 178.554 475.099 180.538 472.846 181.491 470.699 c 0
 202.364 427.092 222.222 411.688 242.154 411.688 c 0
 243.029 411.688 243.905 411.718 244.781 411.776 c 0
 276.729 413.905 308.996 454.126 346.074 479.804 c 0
 347.351 480.704 351.335 481.321 352.873 481.34 c 2
290.468 389.374 m 0
 288.824 391.406 285.57 393.659 282.988 393.659 c 0
 282.112 393.659 281.312 393.399 280.682 392.783 c 0
 270.821 381.481 268.393 361.37 268.393 341.359 c 0
 268.393 321.927 270.683 302.59 270.683 291.509 c 0
 270.683 289.638 270.617 288.003 270.465 286.642 c 0
 270.171 284.012 269.916 280.813 269.916 278.139 c 0
 269.916 275.047 270.256 272.656 271.267 272.656 c 0
 272.248 273.132 273.002 273.717 273.671 274.317 c 0
 282.019 285.186 286.11 290.22 303.404 318.873 c 0
 306.759 324.43 308.12 330.501 308.12 336.833 c 0
 308.12 354.168 297.916 373.444 290.468 389.374 c 0
EndSplineSet
EndChar

StartChar: y
Encoding: 121 121 50
Width: 417
VWidth: 0
Flags: HMW
LayerCount: 2
Fore
SplineSet
124 480.622 m 1
 141.778 434.775 168.348 399.883 209.645 396.584 c 0
 213.835 396.249 215.866 395.489 216.164 393.393 c 0
 215.865 390.041 213.65 386.894 209.601 382.02 c 0
 202.067 370.787 184.799 354.83 183.509 334.474 c 0
 180.862 270.986 175.831 190.656 175.831 119.674 c 0
 175.831 93.0039 176.556 67.6885 178.368 45.0469 c 1
 220.591 57.8887 270.001 74.958 270.96 85.9961 c 0
 271.287 89.7559 271.435 95.3574 271.435 102.457 c 0
 271.435 147.535 265.517 252.924 262.204 329.331 c 0
 260.456 351.737 257.553 354.88 240.389 367.412 c 0
 236.566 371.871 235.822 374.271 235.822 376.82 c 0
 235.822 378.731 238.122 380.269 242.201 380.593 c 0
 273.43 400.538 285.351 415.16 304.146 458.786 c 0
 305.055 460.902 305.559 462.765 307.806 462.786 c 2
 307.831 462.786 l 2
 309.741 462.786 310.517 460.726 311.794 458.755 c 0
 329.421 424.058 355.298 406.917 389.569 380.303 c 0
 391.262 378.988 392.292 378.487 392.953 376.425 c 0
 393.094 375.983 393.156 375.587 393.156 375.222 c 0
 393.156 374.292 392.749 373.564 392.174 372.818 c 0
 387.41 367.171 366.244 354.102 362.678 342.993 c 0
 360.232 292.872 358.836 254.549 358.836 220.598 c 0
 358.836 169.772 361.963 128.75 369.365 72.6201 c 0
 371.234 56.2637 373.524 41.791 378.387 32.4746 c 0
 379.821 29.7236 381.288 28.5283 381.288 26.5527 c 0
 381.288 26.1006 381.211 25.6074 381.04 25.0469 c 0
 379.863 21.1934 377.508 21.2178 373.866 19.7227 c 0
 325.035 7.25879 213.057 -17.5674 171.358 -57.3213 c 0
 170.746 -59.6924 168.814 -61.1807 167.005 -61.1807 c 0
 165.477 -61.1807 164.035 -60.1182 163.55 -57.626 c 0
 163.32 -55.7119 163.007 -53.9668 162.622 -52.3408 c 1
 137.406 -70.0342 96.5918 -93.3857 69.1895 -107.169 c 1
 42.7939 -127.887 -2.64746 -157.128 -23.6719 -169.976 c 0
 -42.2148 -176.488 -51.2412 -178.938 -54.6904 -178.938 c 0
 -56.3057 -178.938 -57 -178.392 -57 -177.425 c 0
 -57 -171.74 -46.0781 -152.702 -35.5107 -142.519 c 0
 -21.7197 -129.228 52.3799 -70.4082 52.3799 -70.4082 c 1
 52.3799 -70.4062 l 1
 67.2178 -59.9668 82.3896 31.377 83.2676 39.832 c 0
 85.7754 109.834 88.377 182.215 88.377 251.855 c 0
 88.377 273.789 88.1191 295.453 87.5186 316.683 c 0
 86.9453 336.951 58.4834 354.612 45.9287 354.612 c 0
 45.3174 354.612 44.7422 354.57 44.2119 354.484 c 0
 40.7354 354.484 37.4092 359.311 34.5576 363.354 c 1
 75.4268 392.346 98.9746 427.508 124 480.622 c 1
EndSplineSet
EndChar

StartChar: r
Encoding: 114 114 51
Width: 386
VWidth: 0
Flags: HMW
LayerCount: 2
Fore
SplineSet
113.285 36.3301 m 4
 105.312 38.0322 100.695 38.043 100.695 40.1621 c 4
 100.695 41.1729 101.746 42.665 103.983 45.0488 c 4
 111.484 51.9785 112.238 63.2568 112.238 63.2568 c 5
 115.454 114.94 117.146 170.313 117.146 221.951 c 4
 117.146 257.495 116.345 291.271 114.688 320.854 c 5
 114.688 320.886 l 4
 114.688 321.272 114.672 325.069 114.049 325.745 c 4
 96.6182 344.683 78.4795 356.996 53.3994 368.222 c 4
 51.2812 369.17 49.2451 369.519 47.3398 369.519 c 4
 43.3057 369.519 39.8594 367.953 37.4688 367.194 c 4
 35.0713 366.944 32.666 366.375 30.4385 366.375 c 4
 27.5479 366.375 24.957 367.334 23.0752 371.195 c 4
 23.0264 371.499 23 371.776 23 372.04 c 4
 23 372.981 23.3311 373.734 24.1338 374.771 c 4
 69.8008 402.591 101.886 433.969 131.133 472.827 c 5
 133.271 473.732 l 5
 135.494 471.258 l 5
 144.886 427.068 167.369 412.779 192.292 396.576 c 4
 197.455 393.723 202.592 392.055 206.458 392.055 c 4
 208.41 392.055 210.039 392.48 211.185 393.394 c 4
 248.393 418.934 263.501 431.565 286.102 475.88 c 5
 286.102 475.88 292.56 478.288 296.267 478.288 c 4
 297.759 478.288 298.806 477.897 298.806 476.803 c 4
 298.806 476.789 298.806 476.776 298.806 476.763 c 4
 298.162 472.286 297.856 468.014 297.856 463.933 c 4
 297.856 421.67 330.684 400.074 361.528 387.743 c 5
 361.528 387.743 363.494 386.992 363.632 385.534 c 4
 363.649 385.359 363.657 385.19 363.657 385.025 c 4
 363.657 383.813 363.233 382.846 362.695 381.877 c 4
 361.866 380.385 359.169 379.433 359.169 379.433 c 5
 331.952 369.271 302.039 354.832 292.976 326.911 c 4
 280.057 287.109 274.568 225.779 270.865 192.927 c 4
 270.816 191.65 270.792 190.413 270.792 189.215 c 4
 270.792 170.174 276.837 160.864 283.847 160.528 c 4
 286.731 161.069 287.866 162.129 287.866 163.745 c 4
 287.866 164.788 287.394 166.063 286.612 167.581 c 4
 285.115 170.495 281.691 172.487 280.415 175.621 c 4
 279.812 177.099 279.539 178.501 279.539 179.822 c 4
 279.539 188.521 291.392 193.699 299.271 193.699 c 4
 301.884 193.699 304.06 193.13 305.222 191.93 c 4
 309.073 187.404 311.338 181.313 311.338 175.036 c 4
 311.338 170.621 310.218 166.114 307.741 161.996 c 4
 301.431 151.503 292.705 145.423 282.572 145.423 c 4
 279.021 145.423 275.298 146.17 271.444 147.734 c 4
 258.253 153.092 254.172 169.184 254.172 189.9 c 4
 254.172 223.518 264.918 269.315 264.918 301.199 c 4
 264.918 309.262 264.23 316.434 262.509 322.295 c 4
 255.892 344.822 237.104 364.395 218.828 376.271 c 5
 218.828 376.271 216.89 377.197 214.551 377.197 c 4
 213.538 377.197 212.451 377.024 211.413 376.527 c 4
 209.635 375.526 209.052 372.317 209.052 372.317 c 5
 203.865 312.722 204.924 193.874 204.707 107.679 c 4
 204.625 106.928 204.584 106.192 204.584 105.475 c 4
 204.584 101.265 205.989 97.665 208.583 95.2256 c 4
 223.084 81.5928 238.612 71.2705 261.479 63.3955 c 4
 264.083 63.0283 265.028 62.5732 266.773 60.8477 c 4
 268.446 59.1943 268.8 58.7539 268.8 56.7227 c 4
 268.8 56.2656 268.782 55.7285 268.757 55.0791 c 5
 236.624 36.127 209.792 -8.66016 191.982 -36.9824 c 4
 191.604 -37.583 189.953 -39.3379 188.544 -39.4766 c 4
 188.362 -39.4941 188.174 -39.5029 187.983 -39.5029 c 4
 186.506 -39.5029 184.845 -38.9404 184.184 -37.4717 c 4
 166.662 -0.799805 148.282 27.8018 113.285 36.3301 c 4
EndSplineSet
EndChar

StartChar: v
Encoding: 118 118 52
Width: 398
VWidth: 0
Flags: HMW
LayerCount: 2
Fore
SplineSet
106.917 471.962 m 4
 110.564 471.553 112.529 469.331 115.3 464.879 c 4
 147.964 423.618 155.254 417.501 184.006 397.596 c 4
 187.691 395.045 192.705 392.069 195.279 390.263 c 4
 196.492 389.412 197.306 388.421 197.306 387.157 c 4
 197.306 386.83 197.251 386.485 197.135 386.119 c 4
 188.685 359.521 185.501 324.281 185.501 285.222 c 4
 185.501 224.813 193.115 155.267 200.64 94.4023 c 4
 203.986 87.709 208.672 81.3506 214.696 75.3262 c 4
 220.72 69.3027 225.74 64.9512 229.756 62.2744 c 4
 233.771 59.5967 240.465 55.2461 249.836 49.2227 c 4
 251.844 47.8838 253.015 47.2148 253.35 47.2148 c 4
 253.685 47.2148 254.187 47.5488 254.856 48.2188 c 4
 256.194 50.8955 257.198 57.2549 257.868 67.2949 c 4
 262.553 108.123 264.896 175.727 264.896 270.103 c 4
 264.896 299.553 264.227 319.299 262.888 329.339 c 4
 262.888 333.354 260.88 338.039 256.864 343.395 c 4
 252.849 348.749 249.334 353.099 246.322 356.446 c 4
 237.808 365.813 217.67 376.196 217.67 382.022 c 4
 217.67 382.073 217.672 382.124 217.675 382.174 c 6
 218.156 389.949 l 6
 218.47 395.021 227.62 396.449 232.769 399.618 c 4
 257.091 414.722 275.179 432.721 294.095 459.639 c 5
 294.095 459.639 298.356 464.841 301.368 464.841 c 4
 301.424 464.841 301.479 464.839 301.534 464.836 c 4
 304.481 464.642 306.746 461.928 308.068 458.854 c 4
 319.499 433.668 346.197 399.796 372.324 388.574 c 4
 374.169 387.781 375.571 387.16 375.607 385.707 c 4
 375.608 385.682 375.608 385.655 375.608 385.63 c 4
 375.608 383.964 374.13 384.356 371.822 382.049 c 4
 369.479 379.705 366.467 376.861 362.786 373.515 c 4
 359.104 370.167 356.26 366.821 354.252 363.475 c 4
 352.244 360.127 350.905 356.111 350.236 351.427 c 4
 346.396 273.55 342.446 190.557 342.446 105.783 c 4
 342.446 95.0654 342.51 84.3193 342.645 73.5518 c 4
 345.951 57.2695 361.816 56.6309 367.304 42.6963 c 4
 367.304 40.6221 366.224 39.1045 364.145 39.1045 c 4
 363.876 39.1045 363.59 39.1299 363.288 39.1826 c 6
 356.955 40.2891 l 6
 347.986 41.8564 342.538 43.1982 333.168 43.1982 c 4
 307.063 43.1982 286.481 34.1621 263.39 16.0908 c 4
 240.298 -1.98145 222.588 -18.2344 205.186 -45.6768 c 4
 204.617 -46.293 203.924 -46.5479 203.244 -46.5479 c 4
 202.033 -46.5479 200.867 -45.7373 200.539 -44.7236 c 6
 196.624 -33.1055 l 6
 184.523 -3.31445 151.028 26.4863 117.678 35.4414 c 4
 107.701 38.1211 105.839 40.4492 105.839 43.1514 c 4
 105.839 44.1133 106.074 45.1221 106.264 46.2109 c 4
 108.94 68.9678 110.28 101.765 110.28 144.603 c 4
 110.28 198.148 108.272 254.373 104.256 313.274 c 5
 104.256 315.282 l 6
 104.256 319.298 103.252 322.645 101.244 325.322 c 4
 79.1562 348.749 55.0605 365.147 28.9561 374.519 c 4
 26.9482 375.856 23.5791 376.603 23.042 379.021 c 4
 23.0137 379.15 23 379.284 23 379.424 c 4
 23 381.484 25.9443 384.559 25.9443 384.559 c 5
 54.0566 404.639 78.1523 432.751 98.2324 468.895 c 4
 100.453 471.123 103.058 472.033 105.646 472.033 c 4
 106.07 472.033 106.494 472.009 106.917 471.962 c 4
EndSplineSet
EndChar

StartChar: Y.s01
Encoding: 983051 983051 53
Width: 833
VWidth: 0
Flags: HMW
LayerCount: 2
Fore
SplineSet
800.327 802.505 m 6
 803.407 802.505 807.244 795.879 807.965 791.461 c 4
 808.356 789.065 808.739 786.322 808.739 783.614 c 4
 808.739 778.504 807.374 773.522 802.122 771.261 c 4
 773.63 758.992 733.335 747.888 693.358 735.885 c 4
 665.501 727.521 649.096 719.411 644.638 699.674 c 4
 558.16 403.629 510.813 110.892 309.779 -111.683 c 4
 301.453 -120.9 297.716 -126.776 297.716 -129.994 c 4
 297.716 -132.123 299.353 -133.09 302.379 -133.09 c 4
 331.871 -133.09 493.383 -41.3525 558.532 -41.3525 c 4
 562.112 -41.3525 565.402 -41.6299 568.363 -42.2148 c 4
 597.371 -47.9443 620.13 -93.5361 624.372 -121.669 c 4
 624.656 -123.694 624.795 -125.7 624.795 -127.68 c 4
 624.795 -145.68 613.392 -161.465 597.469 -169.009 c 4
 585.371 -174.739 574.108 -178.209 563.093 -179.76 c 4
 553.62 -181.093 536.146 -183.096 521.612 -183.096 c 4
 508.322 -183.096 497.492 -181.421 497.492 -176.029 c 4
 497.492 -174.523 498.338 -172.728 500.211 -170.597 c 4
 519.902 -148.193 528.291 -133.743 528.291 -125.137 c 4
 528.291 -117.61 521.876 -114.552 510.994 -114.552 c 4
 463.794 -114.552 332.55 -172.079 276.16 -172.079 c 4
 259.898 -172.079 249.861 -167.296 249.861 -154.969 c 4
 249.861 -147.344 253.7 -136.834 262.279 -122.785 c 4
 288.769 -79.4111 380.905 5.79297 380.905 66.1592 c 4
 380.905 71.7471 380.116 77.123 378.412 82.2324 c 4
 305.823 299.88 212.447 623.646 76.3242 762.609 c 4
 69.8906 769.177 36.6494 780.815 25.7256 786.208 c 4
 25.2227 786.457 25 787.07 25 787.865 c 4
 25 790.471 27.3896 795.023 30.123 795.023 c 4
 33.9023 795.023 39.4893 793.906 46.4619 791.503 c 4
 192.062 737.315 292.692 709.444 406.22 709.444 c 4
 507.971 709.444 620.081 731.833 784.216 777.732 c 5
 789.151 794.388 795.777 802.504 800.325 802.504 c 6
 800.327 802.505 l 6
328.588 693.345 m 5
 348.03 587.152 435.54 277.274 470.882 188.416 c 5
 495.926 259.267 537.083 400.611 537.083 503.653 c 4
 537.083 510.927 536.879 518.01 536.448 524.862 c 4
 530.204 624.315 469.752 689.193 415.218 691.114 c 4
 390.579 691.984 328.588 693.345 328.588 693.345 c 5
EndSplineSet
EndChar

StartChar: W
Encoding: 87 87 54
Width: 1317
VWidth: 0
Flags: HMW
LayerCount: 2
Fore
SplineSet
47.2627 787.516 m 5
 72.2012 785.737 108.352 783.063 136.877 781.402 c 4
 219.401 776.598 339.449 773.344 469.342 773.799 c 4
 499.951 773.906 531.107 773.955 562.449 773.955 c 4
 849.411 773.955 1151.83 783.705 1191.56 783.705 c 4
 1192.11 783.705 1192.6 783.713 1193.05 783.708 c 6
 1193.47 783.705 l 6
 1194.73 783.699 1195.98 783.692 1197.21 783.696 c 4
 1199.94 783.705 1202.61 783.71 1205.22 783.71 c 4
 1233.64 783.71 1255.44 784.75 1283.8 786.138 c 4
 1284.96 786.194 1286.05 786.222 1287.09 786.222 c 4
 1287.24 786.222 1287.39 786.224 1287.54 786.223 c 4
 1298.37 786.159 1302.55 783.658 1302.55 780.791 c 4
 1302.55 780.772 l 4
 1302.53 777.104 1295.98 772.88 1287.79 772.189 c 4
 1254.86 769.419 1213.16 769.335 1174.5 760.323 c 5
 1039.96 659.361 840.33 80.4258 756.418 -12.1855 c 4
 750.31 -18.9268 741.002 -27.3936 735.803 -25.4795 c 4
 735.78 -25.4707 735.759 -25.4795 735.734 -25.4795 c 4
 727.65 -25.3984 720.813 -18.4014 716.695 -13.1113 c 4
 693.725 16.3926 685.871 75.832 658.443 126.978 c 5
 636.124 87.3037 614.518 12.4512 581.108 -17.8066 c 4
 573.038 -25.1162 564.002 -29.4385 553.646 -29.7178 c 4
 553.408 -29.7246 553.172 -29.7275 552.936 -29.7275 c 4
 542.533 -29.7275 532.282 -25.7314 522.45 -16.4521 c 4
 496.191 8.32617 473.894 58.1641 456.572 94.5908 c 4
 349.637 319.462 299.355 554.301 137.791 749.345 c 4
 111.262 781.37 8.35938 770.06 15.3389 779.357 c 4
 18.9434 784.161 31.0645 787.659 42.8945 787.659 c 4
 43.0156 787.659 43.1367 787.661 43.2578 787.66 c 4
 44.6016 787.653 45.9414 787.516 47.2617 787.516 c 6
 47.2627 787.516 l 5
696.506 749.527 m 5
 641.824 665.24 620.592 560.296 620.837 462.229 c 4
 620.841 460.805 620.842 459.382 620.842 457.962 c 4
 620.842 371.763 636.823 291.224 658.418 235.228 c 5
 692.783 320.241 730.045 447.567 729.623 570.64 c 4
 729.619 571.88 729.616 573.119 729.616 574.358 c 4
 729.616 635.886 720.21 696.226 696.506 749.527 c 5
930.632 716.683 m 6
 930.632 716.683 931.59 724.141 931.57 727.898 c 4
 931.57 728.034 931.569 728.172 931.569 728.308 c 4
 931.569 740.741 928.172 752.226 921.649 752.264 c 4
 921.619 752.264 l 4
 917.023 752.264 909.982 746.771 903.22 730.732 c 4
 826.859 549.664 747.249 335.774 681.268 180.524 c 5
 691.334 141.396 722.121 44.4775 725.421 36.1465 c 4
 728.586 28.1553 729.262 20.9502 734.587 20.9189 c 4
 734.612 20.9189 l 4
 734.816 20.9189 735.028 20.9355 735.248 20.957 c 4
 741.495 21.5801 743.113 31.3828 745.53 36.9648 c 4
 838.095 250.822 907.453 526.197 930.632 716.684 c 5
 930.632 716.683 l 6
635.492 177.766 m 5
 591.243 332.294 474.675 717.173 443.886 742.126 c 5
 434.198 738.951 429.65 709.056 429.816 663.734 c 4
 429.822 662.176 429.825 660.6 429.825 659.005 c 4
 429.825 500.641 477.536 166.816 498.651 108.28 c 4
 513.977 65.792 521.796 29.6641 545.828 1.14355 c 4
 547.348 -0.65918 550.197 -3.39062 553.047 -3.4873 c 4
 553.109 -3.48926 553.172 -3.49121 553.235 -3.49121 c 4
 553.267 -3.49023 l 4
 556.18 -3.49023 559.056 -0.977539 560.407 1.05762 c 4
 582.515 34.3516 626.208 136.369 635.492 177.766 c 5
EndSplineSet
EndChar

StartChar: V
Encoding: 86 86 55
Width: 903
VWidth: 0
Flags: HMW
LayerCount: 2
Fore
SplineSet
25.6172 776.819 m 5
 18.2979 781.821 15 785.709 15 788.198 c 4
 15 790.317 17.1826 791.458 21.1533 791.458 c 4
 25.3994 791.458 31.6738 790.278 39.5059 787.739 c 4
 217.533 724.906 347.047 690.243 479.964 690.243 c 4
 594.879 690.243 712.354 719.429 866.32 782.551 c 4
 874.377 785.801 881.026 789.128 884.862 789.128 c 4
 887.183 789.128 888.493 788.009 888.493 785.089 c 4
 888.493 782.948 887.855 779.854 886.475 775.546 c 4
 814.011 743.512 771.745 733.377 711.016 693.153 c 5
 625.303 428.195 598.42 178.632 516.267 -9.63574 c 4
 506.785 -27.9131 493.51 -41.1553 477.32 -41.1553 c 4
 476.634 -41.1553 475.942 -41.1348 475.246 -41.0928 c 4
 457.486 -39.8916 444.214 -19.9941 437.506 -3.65625 c 4
 324.394 270.472 283.143 473.126 165.534 720.526 c 5
 148.811 738.274 101.891 752.18 25.6172 776.818 c 5
 25.6172 776.819 l 5
389.71 679.352 m 5
 380.705 626.531 376.804 569.594 376.804 511.087 c 4
 376.804 346.994 415.426 170.523 459.301 38.291 c 4
 464.606 23.1602 471.107 9.09082 477.808 9.09082 c 4
 478.017 9.09082 478.229 9.1084 478.44 9.14453 c 4
 483.662 9.90039 492.313 18.0508 498.591 37.5869 c 4
 529.459 139.71 544.649 255.85 544.649 369.188 c 4
 544.649 478.886 527.755 585.949 494.496 675.014 c 5
 486.86 674.656 479.562 674.467 472.517 674.467 c 4
 442.63 674.467 417.252 675.888 389.71 679.353 c 5
 389.71 679.352 l 5
EndSplineSet
EndChar

StartChar: J.s03
Encoding: 983052 983052 56
Width: 601
VWidth: 0
Flags: HMW
LayerCount: 2
Fore
SplineSet
75.5977 785.372 m 5
 178.103 779.208 244.812 776.368 310.285 776.368 c 4
 383.909 776.368 455.969 779.961 575.602 786.46 c 4
 575.934 785.938 576.081 785.372 576.081 784.788 c 4
 576.081 781.574 571.643 777.82 569.431 777.638 c 6
 569.431 777.638 452.242 773.498 396.148 768.643 c 5
 391.629 664.927 387.639 560.714 384.391 466.837 c 4
 388.321 462.085 392.467 460.469 396.699 460.469 c 4
 405.688 460.469 415.07 467.754 423.612 467.754 c 4
 424.818 467.754 426.008 467.608 427.177 467.278 c 4
 437.186 464.442 444.157 457.991 444.157 451.798 c 4
 444.157 446.384 438.83 441.166 425.546 438.733 c 4
 424.802 438.597 424.055 438.534 423.308 438.534 c 4
 415.238 438.534 406.962 445.804 397.571 445.804 c 4
 392.618 445.804 387.353 443.782 381.645 437.604 c 5
 381.645 428.104 381.64 422.23 381.64 415.561 c 4
 381.64 415.396 381.641 415.229 381.645 415.062 c 4
 387.262 411.179 393.523 409.735 400.116 409.735 c 4
 419.163 409.735 440.981 421.779 458.049 421.779 c 4
 464.788 421.779 470.787 419.901 475.583 414.663 c 4
 478.034 411.986 479.164 408.002 479.164 403.868 c 4
 479.164 398.275 477.097 392.407 473.44 389.129 c 4
 467.917 384.177 461.122 382.395 453.643 382.395 c 4
 434.474 382.395 410.802 394.097 392.474 394.097 c 4
 387.856 394.097 383.577 393.354 379.796 391.494 c 4
 379.441 384.79 379.441 378.223 379.441 369.955 c 5
 384.839 365.877 389.498 364.482 393.687 364.482 c 4
 402.741 364.482 409.605 370.993 417.015 370.993 c 4
 418.351 370.993 419.704 370.783 421.091 370.282 c 4
 424.937 368.897 427.536 364.889 427.536 360.436 c 4
 427.536 356.501 425.504 352.218 420.502 349.095 c 4
 418.894 348.091 417.229 347.688 415.51 347.688 c 4
 408.525 347.688 400.619 354.326 391.779 354.326 c 4
 386.528 354.326 380.946 351.983 375.034 344.512 c 5
 371.065 166.428 361.512 36.6602 350.155 -30.4414 c 4
 338.11 -101.625 311.143 -176.733 218.869 -176.733 c 4
 214.863 -176.733 210.731 -176.58 206.469 -176.265 c 4
 104.004 -168.685 26.6768 -0.0273438 25 162.9 c 4
 26.3076 170.784 26.7832 177.009 30.375 177.009 c 4
 31.7744 177.009 33.6484 176.063 36.2295 173.9 c 4
 63.7568 -69.8965 72.9229 69.2539 169.947 -15.1016 c 4
 184.96 -28.1523 189.728 -39.4355 189.728 -49.5439 c 4
 189.728 -63.8926 177.227 -66.7617 177.227 -73.0771 c 4
 177.227 -74.5098 177.87 -76.1201 179.449 -78.083 c 4
 190.472 -89.5488 200.136 -94.7285 208.607 -94.7285 c 4
 261.642 -94.7285 267.927 108.284 267.927 243.083 c 4
 267.927 284.956 267.32 320.246 267.32 340.825 c 4
 267.32 342.218 267.323 343.543 267.328 344.798 c 4
 263.914 350.003 259.862 351.661 255.593 351.661 c 4
 248.108 351.661 239.951 346.572 233.351 346.572 c 4
 230.948 346.572 228.752 347.245 226.871 349.083 c 4
 225.158 350.758 224.447 353.378 224.447 356.209 c 4
 224.447 361.413 226.852 367.327 229.856 369.374 c 4
 230.716 369.957 231.651 370.201 232.653 370.201 c 4
 237.738 370.201 244.55 363.913 251.882 363.913 c 4
 255.483 363.913 259.211 365.43 262.922 369.956 c 6
 262.922 392.066 l 5
 258.391 395.777 252.789 397.12 246.515 397.12 c 4
 230.105 397.12 209.087 387.938 190.521 387.938 c 4
 186.444 387.938 182.487 388.381 178.723 389.46 c 4
 171.609 391.499 169.023 396.359 169.023 401.55 c 4
 169.023 408.594 173.788 416.244 178.468 418.268 c 4
 182.777 420.13 187.371 420.862 192.127 420.862 c 4
 209.579 420.862 229.21 411 245.042 411 c 4
 250.886 411 256.21 412.343 260.718 416.021 c 5
 260.718 436.683 l 5
 254.506 443.24 249.067 445.325 244.134 445.325 c 4
 235.514 445.325 228.43 438.963 221.437 438.963 c 4
 220.737 438.963 220.039 439.026 219.341 439.166 c 4
 210.208 440.994 205.342 447.464 205.342 453.742 c 4
 205.342 459.349 209.223 464.804 217.414 466.658 c 4
 218.804 466.974 220.126 467.112 221.39 467.112 c 4
 230.754 467.112 237.033 459.504 245.573 459.504 c 4
 249.248 459.504 253.344 460.912 258.284 464.946 c 5
 255.394 563.669 254.079 672.827 249.561 767.438 c 5
 203.845 773.523 124.547 775.592 69.6572 776.19 c 4
 69.0654 776.816 68.8057 777.56 68.8057 778.35 c 4
 68.8057 781.188 72.1689 784.62 75.5967 785.371 c 5
 75.5967 785.372 l 5
 75.5977 785.372 l 5
EndSplineSet
EndChar

StartChar: D.s01
Encoding: 983053 983053 57
Width: 833
VWidth: 0
Flags: HMW
LayerCount: 2
Fore
SplineSet
553.821 780.158 m 6
 596.788 780.158 633.144 766.938 661.788 741.599 c 4
 759.841 660.072 808.316 557.613 808.316 435.324 c 4
 808.316 364.814 792.893 294.305 763.146 222.693 c 4
 732.298 151.083 693.738 88.2852 647.466 33.2002 c 4
 621.024 2.35156 597.889 -18.5801 578.058 -30.6992 c 4
 557.126 -42.8174 536.193 -48.3262 514.16 -48.3262 c 4
 502.042 -48.3262 483.312 -46.123 455.77 -40.6152 c 4
 450.262 -39.5137 445.854 -38.4111 440.345 -37.3096 c 4
 434.837 -35.1055 430.43 -34.0039 426.022 -32.9023 c 4
 422.718 -31.8008 418.311 -31.8008 415.005 -31.8008 c 6
 410.599 -31.8008 l 6
 369.835 -32.9023 321.36 -40.6152 262.97 -54.9375 c 4
 253.055 -57.1396 243.14 -60.4453 233.224 -63.75 c 4
 223.309 -67.0557 214.495 -70.3604 207.884 -73.666 c 4
 200.173 -76.9717 190.257 -81.3789 179.24 -87.9883 c 4
 166.02 -94.5986 158.308 -99.0049 153.9 -101.208 c 4
 149.493 -103.411 140.681 -108.921 126.358 -116.632 c 4
 112.036 -124.344 103.223 -128.751 101.02 -130.955 c 4
 97.7139 -133.158 96.6123 -133.158 93.3066 -133.158 c 4
 92.2061 -132.057 92.2061 -132.057 92.2061 -130.955 c 4
 92.2061 -124.344 95.5107 -118.836 103.223 -115.53 c 4
 104.324 -114.429 107.629 -112.225 113.138 -108.921 c 4
 117.545 -105.615 120.85 -102.31 121.951 -101.208 c 4
 123.053 -100.106 126.358 -97.9023 129.663 -94.5986 c 4
 132.968 -91.293 136.272 -89.0898 137.374 -87.9883 c 4
 139.578 -85.7842 141.781 -83.5811 143.985 -80.2764 c 4
 147.291 -76.9707 149.493 -74.7676 150.595 -71.4619 c 4
 151.696 -68.1572 153.9 -64.8525 155.002 -61.5469 c 4
 158.308 -53.8359 160.512 -43.9199 160.512 -34.0049 c 4
 160.512 -24.0889 161.613 -16.376 163.816 -10.8682 c 4
 172.631 6.75879 188.055 16.6738 210.088 17.7754 c 4
 226.613 16.6738 237.631 5.65723 243.14 -13.0723 c 4
 246.444 -22.9873 249.749 -28.4951 253.055 -29.5967 c 4
 256.36 -29.5967 259.664 -28.4951 265.173 -25.1904 c 4
 277.292 -17.4775 286.105 -6.46094 291.614 7.86133 c 5
 291.614 38.709 291.614 69.5557 291.614 99.3018 c 4
 291.614 335.067 296.021 519.054 303.732 660.072 c 5
 283.902 685.412 257.462 704.141 223.309 715.158 c 5
 220.003 715.158 l 6
 214.495 715.158 210.088 711.853 206.782 704.14 c 4
 199.071 689.817 190.257 681.005 178.139 677.699 c 4
 171.529 676.598 166.02 675.495 160.512 675.495 c 4
 141.782 675.495 127.459 684.31 117.544 701.938 c 4
 99.916 727.276 99.916 738.294 58.0518 740.497 c 4
 49.2383 742.701 39.3223 746.005 31.6113 753.718 c 4
 27.2041 757.022 25 759.226 25 762.53 c 4
 25 764.734 26.1025 765.836 28.3066 766.938 c 4
 74.5781 772.445 116.443 775.751 152.799 775.751 c 4
 202.376 775.751 227.716 769.142 228.817 754.819 c 5
 315.852 746.005 379.751 741.599 422.718 741.599 c 4
 432.633 741.599 442.548 741.599 450.261 742.7 c 5
 473.396 768.039 507.549 780.158 552.719 780.158 c 6
 553.821 780.158 l 6
547.212 743.801 m 6
 510.854 743.801 485.515 736.089 465.684 718.462 c 4
 462.38 716.258 457.973 711.853 457.973 709.648 c 4
 429.327 582.952 415.005 459.561 415.005 328.458 c 4
 415.005 229.305 423.818 124.642 439.243 12.2686 c 4
 443.65 -16.377 483.312 -21.8857 515.262 -21.8857 c 4
 536.193 -21.8857 556.024 -15.2754 573.652 -3.15625 c 4
 592.38 8.96289 615.517 25.4883 617.719 53.0312 c 4
 628.737 178.626 637.551 319.645 637.551 456.256 c 4
 637.551 548.8 633.144 640.241 624.331 720.666 c 4
 622.128 727.277 613.314 730.581 605.602 733.887 c 4
 589.076 740.497 569.245 743.801 548.312 743.801 c 6
 547.212 743.801 l 6
608.906 575.24 m 4
 615.517 578.545 619.923 579.646 623.229 579.646 c 4
 624.33 579.646 625.433 579.646 625.433 578.545 c 4
 625.433 577.444 622.127 574.139 616.617 568.63 c 4
 615.517 567.528 615.517 566.427 613.313 566.427 c 4
 613.313 566.427 611.109 565.324 608.906 564.224 c 4
 607.805 562.02 604.499 560.918 600.093 560.918 c 4
 595.686 560.918 592.381 562.02 589.075 564.224 c 4
 586.873 565.324 583.567 566.427 580.262 566.427 c 4
 574.754 566.427 569.245 564.224 565.94 560.918 c 4
 564.838 559.816 562.635 558.715 561.532 558.715 c 4
 560.432 558.715 559.329 559.816 559.329 562.02 c 4
 559.329 563.121 560.431 566.426 564.837 568.63 c 4
 567.041 573.037 570.347 575.24 572.551 575.24 c 6
 578.058 578.545 l 6
 579.159 580.748 582.466 581.85 585.771 581.85 c 4
 590.177 581.85 593.482 580.748 597.889 578.545 c 4
 600.093 576.342 604.499 575.24 608.906 575.24 c 4
492.126 590.665 m 6
 494.328 590.665 495.431 589.562 496.532 588.461 c 4
 498.735 587.359 500.939 586.258 503.143 586.258 c 4
 505.346 586.258 506.446 584.054 506.446 579.646 c 4
 506.446 574.139 506.446 571.936 505.346 571.936 c 4
 504.244 571.936 503.143 570.834 502.041 569.731 c 4
 500.939 568.63 500.939 568.63 499.837 568.63 c 4
 498.735 568.63 497.634 568.63 494.328 569.731 c 4
 491.023 570.833 487.719 571.936 482.21 573.037 c 6
 478.904 573.037 l 6
 476.701 573.037 474.498 571.936 471.192 569.731 c 4
 466.785 566.426 462.38 564.224 459.074 564.224 c 4
 457.973 564.224 456.871 564.224 455.77 565.324 c 4
 454.667 566.426 453.564 566.426 453.564 567.528 c 4
 453.564 569.731 455.769 573.037 460.176 576.342 c 4
 468.989 585.155 478.904 589.563 488.82 590.665 c 6
 492.126 590.665 l 6
531.787 571.936 m 4
 532.889 570.834 533.99 568.63 535.092 564.224 c 4
 536.193 559.816 536.193 554.308 536.193 548.8 c 4
 536.193 539.985 533.99 524.562 529.584 502.527 c 4
 524.075 479.392 521.871 462.866 521.871 450.747 c 4
 521.871 443.035 522.973 435.323 525.176 427.611 c 4
 526.277 426.511 526.277 424.308 526.277 421.002 c 4
 526.277 418.798 527.38 416.594 529.584 412.188 c 4
 531.787 409.984 533.99 407.78 537.295 407.78 c 4
 540.6 407.78 542.804 408.882 546.108 412.188 c 4
 549.413 414.391 550.516 416.594 550.516 418.798 c 4
 550.516 419.899 550.516 421.002 549.414 422.104 c 4
 548.312 423.205 547.212 425.409 547.212 427.611 c 4
 547.212 428.713 547.212 428.713 548.312 429.814 c 4
 549.414 433.12 552.719 435.323 558.228 438.629 c 4
 560.432 439.73 561.532 439.73 562.634 439.73 c 4
 563.736 439.73 564.838 439.73 567.042 438.629 c 4
 570.347 437.527 571.448 436.426 571.448 435.324 c 4
 571.448 434.223 570.347 432.019 568.144 428.713 c 4
 565.939 425.408 564.837 423.205 564.837 419.899 c 4
 563.735 416.594 562.634 414.391 559.329 412.188 c 4
 556.024 411.086 554.923 408.882 554.923 407.78 c 4
 554.923 404.475 551.617 398.967 543.905 391.255 c 4
 538.396 385.746 533.989 383.544 530.686 383.544 c 4
 529.584 383.544 527.38 383.544 524.074 384.646 c 4
 520.77 385.746 517.465 387.949 514.16 391.255 c 4
 510.854 394.561 508.65 395.662 506.446 395.662 c 4
 505.346 395.662 503.142 395.662 500.938 394.56 c 4
 497.634 393.458 495.43 392.356 493.227 392.356 c 4
 488.82 392.356 485.515 394.56 483.312 397.865 c 4
 482.209 401.17 481.107 403.373 481.107 405.577 c 4
 481.107 407.78 482.209 409.984 483.312 412.188 c 4
 484.413 413.288 485.515 415.492 487.718 417.696 c 4
 487.718 419.9 489.922 421.002 492.126 421.002 c 4
 493.227 421.002 495.43 419.9 498.735 416.594 c 4
 500.939 414.39 502.041 413.288 503.143 413.288 c 4
 504.244 413.288 506.447 414.391 507.549 417.696 c 4
 508.65 441.934 510.854 469.476 515.262 489.307 c 4
 519.669 511.341 521.871 526.765 521.871 538.884 c 4
 521.871 544.393 521.871 551.002 520.77 556.511 c 6
 517.465 562.02 l 6
 514.159 565.324 513.058 567.528 513.058 568.63 c 4
 516.363 569.731 522.973 573.037 527.38 573.037 c 4
 529.584 573.037 530.686 573.037 531.787 571.936 c 4
570.347 549.901 m 4
 571.448 549.901 572.551 549.901 573.652 548.8 c 4
 575.854 547.698 578.059 547.698 581.363 547.698 c 4
 584.669 547.698 586.872 547.698 589.075 548.8 c 6
 590.177 548.8 l 6
 591.279 548.8 592.381 547.697 592.381 546.596 c 4
 592.381 544.393 592.381 543.29 591.278 542.188 c 4
 590.177 542.188 590.177 541.087 590.177 539.985 c 4
 590.177 538.884 590.177 537.781 589.075 536.681 c 4
 587.975 534.478 582.466 533.376 572.551 533.376 c 4
 571.449 533.376 571.449 533.376 570.347 534.478 c 4
 567.041 534.478 564.837 537.781 564.837 543.29 c 4
 564.837 544.393 565.939 546.596 567.042 547.698 c 4
 568.144 548.8 569.245 549.901 570.347 549.901 c 4
489.922 544.393 m 4
 492.126 544.393 494.329 543.291 495.431 542.188 c 4
 498.735 538.884 499.837 536.681 499.837 534.478 c 4
 499.837 533.376 499.837 532.274 498.735 531.173 c 4
 497.634 530.07 496.531 530.07 494.328 530.07 c 4
 493.227 530.07 491.023 530.07 489.922 531.173 c 4
 487.719 531.173 485.515 531.173 483.312 531.173 c 6
 477.804 531.173 l 5
 475.601 531.173 l 6
 474.498 532.274 474.498 533.376 474.498 536.681 c 4
 474.498 538.883 474.498 541.087 475.601 542.188 c 4
 476.702 543.291 482.21 544.393 489.922 544.393 c 4
539.498 374.729 m 5
 541.702 374.729 l 6
 545.008 373.627 547.212 373.627 547.212 372.525 c 4
 547.212 370.323 540.602 367.018 528.482 362.611 c 4
 520.77 360.407 516.363 358.203 516.363 357.103 c 4
 514.159 354.898 514.159 353.797 513.058 353.797 c 4
 511.956 353.797 509.752 354.898 507.549 357.103 c 4
 505.347 359.305 503.143 360.406 502.041 360.406 c 6
 500.938 360.406 l 5
 499.837 360.406 l 6
 494.328 360.406 492.126 362.61 492.126 365.916 c 4
 492.126 367.018 493.227 367.018 494.328 368.119 c 4
 494.328 369.222 494.328 369.222 495.431 369.222 c 4
 496.532 369.222 497.634 368.119 498.735 368.119 c 4
 500.939 368.119 503.143 369.221 503.143 371.425 c 4
 503.143 372.525 504.244 372.525 507.549 372.525 c 4
 511.956 372.525 516.362 371.425 519.668 369.222 c 4
 522.973 367.018 525.176 365.916 527.38 365.916 c 4
 527.38 365.916 528.482 367.018 529.584 369.222 c 4
 530.686 372.525 539.498 374.729 539.498 374.729 c 5
569.245 348.288 m 4
 570.347 348.288 571.448 344.982 571.448 339.475 c 4
 571.448 335.068 571.448 331.763 572.551 330.661 c 4
 573.652 329.561 573.652 329.561 573.652 328.458 c 4
 572.551 327.356 572.551 325.153 572.551 324.052 c 4
 572.551 322.949 572.551 321.848 572.551 320.745 c 4
 572.551 318.542 572.551 316.339 571.448 315.237 c 4
 570.347 315.237 569.245 315.237 565.94 316.339 c 4
 562.635 317.439 560.432 322.949 560.432 330.661 c 6
 560.432 331.763 l 6
 560.432 336.17 561.532 339.476 563.735 343.883 c 4
 565.939 346.085 568.144 348.288 569.245 348.288 c 4
541.702 340.576 m 6
 542.804 340.576 l 6
 543.905 340.576 546.109 340.576 548.312 339.475 c 4
 551.617 338.373 552.719 336.169 552.719 335.067 c 4
 552.719 333.966 551.617 331.762 550.516 328.458 c 4
 549.414 325.153 547.211 324.052 545.007 324.052 c 4
 542.804 324.052 540.6 325.153 538.396 326.255 c 4
 537.295 327.356 537.295 327.356 536.193 327.356 c 4
 535.092 327.356 531.787 326.255 527.38 324.052 c 4
 521.871 321.848 516.363 320.745 508.65 320.745 c 4
 507.549 320.745 505.346 319.644 500.938 319.644 c 4
 499.837 318.542 497.634 317.44 496.532 317.44 c 4
 494.328 317.44 493.227 318.542 491.023 318.542 c 4
 489.922 318.542 486.617 317.44 482.21 314.136 c 4
 474.498 309.729 471.192 306.423 471.192 304.22 c 4
 471.192 303.118 468.989 300.915 465.684 299.813 c 6
 464.583 299.813 l 5
 461.277 302.017 l 6
 460.176 302.017 460.176 303.117 460.176 304.22 c 4
 461.277 306.424 461.277 308.627 461.277 311.933 c 4
 464.583 326.255 468.989 333.966 473.396 333.966 c 4
 474.498 333.966 476.702 332.864 480.006 330.661 c 4
 483.312 329.561 487.719 328.458 492.126 327.356 c 6
 496.532 327.356 l 6
 498.735 327.356 500.939 328.458 503.143 329.56 c 4
 504.244 330.66 505.346 331.763 506.446 331.763 c 6
 507.549 331.763 l 6
 508.65 330.661 510.854 330.661 513.058 330.661 c 4
 522.973 331.763 530.686 340.576 541.702 340.576 c 6
517.465 308.627 m 4
 521.871 307.158 524.074 304.587 524.074 300.915 c 6
 524.074 299.813 l 6
 524.074 297.61 524.44 295.773 525.176 294.305 c 6
 525.176 292.102 l 6
 525.176 290.633 524.81 289.164 524.074 287.695 c 4
 523.34 286.226 522.973 284.023 522.973 281.084 c 4
 522.973 276.677 524.074 273.005 526.277 270.067 c 4
 527.747 267.863 528.482 264.926 528.482 261.254 c 4
 528.482 257.581 528.115 255.011 527.38 253.542 c 4
 525.911 252.807 524.81 245.095 524.074 230.406 c 4
 523.34 216.45 521.87 207.27 519.668 202.863 c 4
 518.199 200.66 517.465 197.722 517.465 194.05 c 4
 517.465 188.175 516.729 185.235 515.262 185.235 c 6
 513.058 186.889 l 5
 507.503 199.475 507.569 213.422 507.549 223.795 c 4
 507.549 232.609 507.916 238.484 508.65 241.423 c 4
 510.12 246.564 510.854 249.869 510.854 251.338 c 4
 510.854 252.807 509.753 254.644 507.549 256.847 c 4
 503.143 261.988 500.938 268.965 500.938 277.778 c 4
 500.938 284.39 500.388 288.612 499.286 290.448 c 4
 498.185 292.285 496.165 293.203 493.227 293.203 c 4
 493.153 293.202 493.082 293.201 493.011 293.201 c 4
 490.146 293.201 489.104 294.282 489.104 295.689 c 4
 489.104 298.087 492.127 301.434 494.328 302.017 c 4
 497.267 302.751 499.47 304.22 500.938 306.424 c 4
 503.323 308.114 507.783 309.408 512.126 309.408 c 4
 513.984 309.408 515.821 309.171 517.465 308.627 c 4
210.224 -10.7627 m 4
 208 -9.80566 205.507 -9.36328 202.961 -9.36328 c 4
 198.271 -9.36328 193.408 -10.8652 189.751 -13.4189 c 4
 184.779 -16.8906 180.988 -23.3721 180.988 -29.4639 c 4
 180.988 -29.7061 180.994 -29.9453 181.007 -30.1855 c 4
 181.425 -38.5459 186.857 -48.4922 194.786 -51.1787 c 4
 196.209 -51.6611 197.711 -51.8809 199.245 -51.8809 c 4
 205.538 -51.8809 212.371 -48.1709 216.488 -43.5869 c 4
 219.678 -40.0332 221.206 -34.832 221.206 -29.8379 c 4
 221.206 -28.2695 221.055 -26.7207 220.758 -25.251 c 4
 219.572 -19.3994 215.708 -13.123 210.224 -10.7627 c 4
EndSplineSet
Comment: "http://www.e-codices.unifr.ch/en/ubb/A-II-0005/67r" 
EndChar

StartChar: J
Encoding: 74 74 58
Width: 584
VWidth: 0
Flags: HMW
LayerCount: 2
Fore
SplineSet
49.8418 787.94 m 5
 72.7275 809.096 98.5605 817.745 125.189 817.745 c 4
 154.199 817.745 184.175 805.24 212.21 786.438 c 4
 289.746 726.517 387.979 676.574 489.286 655.387 c 4
 494.153 655.387 501.393 657.385 505.381 659.827 c 4
 511.993 663.975 516.996 666.175 521.959 666.175 c 4
 528.523 666.175 535.015 661.575 545.281 651.657 c 4
 555.468 641.879 559.339 637.395 559.339 633.855 c 4
 559.339 632.475 558.641 631.244 557.423 629.885 c 4
 554.812 626.945 550.326 624.539 547.455 624.539 c 4
 529.323 619.357 519.258 606.759 517.652 594.605 c 4
 515.377 570.025 514.406 541.976 514.406 511.738 c 4
 514.406 437.594 514.672 355.266 514.672 277.424 c 4
 514.672 159.934 514.065 52.6621 511.022 -0.833984 c 4
 503.631 -130.697 436.588 -195.594 367.963 -195.594 c 4
 355.021 -195.594 342.023 -193.286 329.358 -188.67 c 4
 307.564 -180.728 300.807 -174.557 300.807 -170.247 c 4
 300.807 -165.391 309.382 -162.898 314.702 -162.898 c 4
 315.291 -162.898 315.841 -162.929 316.335 -162.99 c 4
 325.514 -164.437 334.145 -165.132 342.256 -165.132 c 4
 434.351 -165.132 459.442 -75.5635 459.442 20.9561 c 4
 459.442 56.9746 455.949 93.96 451.139 127.62 c 5
 352.959 131.586 316.645 218.927 316.645 319.646 c 4
 316.645 427.179 366.179 550.454 426.833 598.719 c 4
 432.637 603.211 435.518 607.905 435.518 612.173 c 4
 435.518 618.066 430.881 623.183 421.703 626.017 c 4
 400.04 633.303 378.838 643.473 356.309 648.17 c 4
 356.005 648.19 355.712 648.203 355.425 648.203 c 4
 349.528 648.203 346.352 646.969 324.754 637.052 c 4
 299.685 626.483 266.139 620.987 233.629 620.987 c 4
 192.045 621.711 138.564 636.58 124.862 680.403 c 4
 124.055 684.128 123.599 688.063 123.599 692.096 c 4
 123.599 707.586 132.919 724.568 159.993 736.448 c 4
 166.638 740.647 170.174 744.184 170.174 747.798 c 4
 170.174 753.92 161.695 760.256 143.114 769.999 c 4
 129.701 777.3 111.842 785.554 94.3447 785.554 c 4
 82.6523 785.554 71.1191 782.582 61.124 774.466 c 4
 53.6602 768.231 46.1826 755.84 43.2969 746.684 c 4
 40.3535 737.869 38.8604 728.516 38.8604 719.058 c 4
 38.8604 684.483 53.7705 648.564 85.1553 631.905 c 4
 88.0781 630.718 90.4688 628.237 90.4688 626.393 c 4
 90.4688 624.377 88.9385 623.319 86.9678 623.319 c 4
 47.2979 636.954 25.5566 691.779 25 723.428 c 4
 25 748.235 33.2578 772.247 49.8418 787.94 c 5
EndSplineSet
EndChar

